<?xml version="1.0" encoding="utf-8"?>
<!-- Generator: Adobe Illustrator 22.1.0, SVG Export Plug-In . SVG Version: 6.00 Build 0)  -->
<svg version="1.1" id="calender_pc.svg" xmlns="http://www.w3.org/2000/svg" xmlns:xlink="http://www.w3.org/1999/xlink" x="0px"
	 y="0px" viewBox="0 0 18 18" style="enable-background:new 0 0 18 18;" xml:space="preserve">
<g>
	<path d="M4.5,3.8C4.5,3.8,4.5,3.8,4.5,3.8c0.7,0,1.3-0.5,1.3-1.2c0,0,0,0,0,0V1.2C5.7,0.6,5.2,0,4.5,0C3.8,0,3.2,0.6,3.2,1.2v1.3
		C3.2,3.2,3.8,3.8,4.5,3.8z"/>
	<path d="M18,2.2h-2.6v0.6c0,1.1-0.9,1.9-1.9,1.9c-1.1,0-1.9-0.9-1.9-1.9V2.2H6.4v0.6c0,1.1-0.9,1.9-1.9,1.9c-1.1,0-1.9-0.9-1.9-1.9
		V2.2L0,2.1V18h18L18,2.2z M16,16H2V7h14V16z"/>
	<path d="M13.5,3.8C13.5,3.8,13.5,3.8,13.5,3.8c0.7,0,1.3-0.5,1.3-1.2c0,0,0,0,0,0V1.2c0-0.7-0.6-1.3-1.3-1.3
		c-0.7,0-1.3,0.6-1.3,1.3v1.3C12.2,3.2,12.8,3.8,13.5,3.8z"/>
	<rect x="10" y="9" width="2" height="1"/>
	<rect x="13" y="9" width="2" height="1"/>
	<rect x="6" y="9" width="2" height="1"/>
	<rect x="3" y="9" width="2" height="1"/>
	<rect x="10" y="11" width="2" height="1"/>
	<rect x="13" y="11" width="2" height="1"/>
	<rect x="6" y="11" width="2" height="1"/>
	<rect x="3" y="11" width="2" height="1"/>
	<rect x="10" y="13" width="2" height="1"/>
	<rect x="13" y="13" width="2" height="1"/>
	<rect x="6" y="13" width="2" height="1"/>
	<rect x="3" y="13" width="2" height="1"/>
</g>
</svg>
