<?xml version="1.0" encoding="utf-8"?>
<!-- Generator: Adobe Illustrator 22.1.0, SVG Export Plug-In . SVG Version: 6.00 Build 0)  -->
<svg version="1.1" id="fb_pc.svg" xmlns="http://www.w3.org/2000/svg" xmlns:xlink="http://www.w3.org/1999/xlink" x="0px" y="0px"
	 viewBox="0 0 36 36" style="enable-background:new 0 0 36 36;" xml:space="preserve">
<style type="text/css">
	.st0{fill:#FFFFFF;}
</style>
<path class="st0" d="M18,0L18,0C8.1,0,0,8.1,0,18s8.1,18,18,18l0,0c9.9,0,18-8.1,18-18S27.9,0,18,0z M22.5,12.8L22.5,12.8
	c0,0.2-0.2,0.3-0.3,0.3h-1.5c-1,0-1.2,0.4-1.2,1.2v1.6H22l0,0c0.2,0,0.3,0.2,0.3,0.3V19l0,0c0,0.2-0.2,0.3-0.3,0.3h-2.5v7l0,0
	c0,0.2-0.2,0.3-0.3,0.3h-2.8l0,0c-0.2,0-0.3-0.2-0.3-0.3v-7h-2.2l0,0c-0.2,0-0.3-0.2-0.3-0.3v-2.8l0,0c0-0.2,0.2-0.3,0.3-0.3H16v-2
	c0-2.5,1.6-4.1,4-4.1h2.2l0,0c0.2,0,0.3,0.2,0.3,0.3L22.5,12.8L22.5,12.8z"/>
</svg>
