<?xml version="1.0" encoding="utf-8"?>
<!-- Generator: Adobe Illustrator 22.1.0, SVG Export Plug-In . SVG Version: 6.00 Build 0)  -->
<svg version="1.1" id="fb_sp.svg" xmlns="http://www.w3.org/2000/svg" xmlns:xlink="http://www.w3.org/1999/xlink" x="0px" y="0px"
	 viewBox="0 0 46 46" style="enable-background:new 0 0 46 46;" xml:space="preserve">
<style type="text/css">
	.st0{fill:#FFFFFF;}
</style>
<path class="st0" d="M23,0L23,0C10.3,0,0,10.3,0,23s10.3,23,23,23h0c12.7,0,23-10.3,23-23S35.7,0,23,0z M28.7,16.3L28.7,16.3
	c0,0.2-0.2,0.4-0.4,0.4h-1.9c-1.3,0-1.5,0.5-1.5,1.5v2.1h3.2c0,0,0,0,0,0c0.2,0,0.4,0.2,0.4,0.4v3.6c0,0,0,0,0,0
	c0,0.2-0.2,0.4-0.4,0.4h-3.2v9c0,0,0,0,0,0c0,0.2-0.2,0.4-0.4,0.4h-3.6c0,0,0,0,0,0c-0.2,0-0.4-0.2-0.4-0.4v-9h-2.8c0,0,0,0,0,0
	c-0.2,0-0.4-0.2-0.4-0.4v-3.6c0,0,0,0,0,0c0-0.2,0.2-0.4,0.4-0.4h2.8v-2.5c0-3.2,2-5.3,5.1-5.3h2.8c0,0,0,0,0,0
	c0.2,0,0.4,0.2,0.4,0.4V16.3z"/>
</svg>
