<?xml version="1.0" encoding="utf-8"?>
<!-- Generator: Adobe Illustrator 22.1.0, SVG Export Plug-In . SVG Version: 6.00 Build 0)  -->
<svg version="1.1" id="レイヤー_1" xmlns="http://www.w3.org/2000/svg" xmlns:xlink="http://www.w3.org/1999/xlink" x="0px"
	 y="0px" viewBox="0 0 30 20" style="enable-background:new 0 0 30 20;" xml:space="preserve">
<style type="text/css">
	.st0{fill:#D12E1A;}
	.st1{fill:#F4D621;}
</style>
<g>
	<rect class="st0" width="30" height="20"/>
	<g>
		<g>
			<polygon class="st1" points="7.8,4 5.6,4 5,2 4.3,4 2.2,4 3.9,5.4 3.3,7.4 5,6.2 6.7,7.4 6.1,5.4 			"/>
			<polygon class="st1" points="12.9,6.7 12.2,6.7 12,6 11.7,6.7 11,6.7 11.6,7.1 11.4,7.8 12,7.4 12.5,7.8 12.3,7.1 			"/>
			<polygon class="st1" points="12.7,3.4 12.1,3.7 11.6,3.1 11.7,3.8 11,4.1 11.7,4.3 11.8,5 12.2,4.4 12.8,4.5 12.4,4 			"/>
			<polygon class="st1" points="10.4,1.1 9.9,1.6 9.3,1.4 9.6,2 9.2,2.5 9.9,2.3 10.3,2.9 10.3,2.2 11,2.1 10.3,1.8 			"/>
			<polygon class="st1" points="11,9 10.3,8.8 10.3,8.1 9.9,8.6 9.2,8.4 9.6,9 9.2,9.5 9.9,9.3 10.2,9.9 10.3,9.2 			"/>
		</g>
	</g>
</g>
</svg>
