<?xml version="1.0" encoding="utf-8"?>
<!-- Generator: Adobe Illustrator 22.1.0, SVG Export Plug-In . SVG Version: 6.00 Build 0)  -->
<svg version="1.1" id="hotelphoto_pc.svg" xmlns="http://www.w3.org/2000/svg" xmlns:xlink="http://www.w3.org/1999/xlink" x="0px"
	 y="0px" viewBox="0 0 22 18" style="enable-background:new 0 0 22 18;" xml:space="preserve">
<style type="text/css">
	.st0{fill:#1A1A1A;}
</style>
<path id="長方形_636" class="st0" d="M5.4,3.9L5.4,3.9c0.8,0,1.5,0.7,1.5,1.5l0,0c0,0.8-0.7,1.5-1.5,1.5l0,0
	c-0.8,0-1.5-0.7-1.5-1.5l0,0C3.9,4.6,4.6,3.9,5.4,3.9z"/>
<path d="M19,0H3C1.3,0,0,1.3,0,3v12c0,1.7,1.3,3,3,3h16c1.7,0,3-1.3,3-3V3C22,1.3,20.7,0,19,0z M20,10.4L16.7,6l-4.4,5.6L10,9.3
	L4.5,16H3c-0.6,0-1-0.4-1-1V3c0-0.6,0.4-1,1-1h16c0.6,0,1,0.4,1,1V10.4z"/>
</svg>
