<svg xmlns="http://www.w3.org/2000/svg" width="16" height="16" viewBox="0 0 16 16">
  <defs>
    <style>
      .cls-1 {
        fill-rule: evenodd;
      }
    </style>
  </defs>
  <path id="infomation_pc.svg" class="cls-1" d="M4156.01,1728.01a8,8,0,1,0,8,8A8,8,0,0,0,4156.01,1728.01Zm1.66,12.4c-0.41.16-.74,0.28-0.98,0.37a2.777,2.777,0,0,1-.86.13,1.735,1.735,0,0,1-1.16-.37,1.153,1.153,0,0,1-.41-0.92,3.4,3.4,0,0,1,.03-0.45,4.127,4.127,0,0,1,.1-0.51l0.51-1.82c0.05-.18.09-0.35,0.12-0.5a2.292,2.292,0,0,0,.04-0.43,0.669,0.669,0,0,0-.14-0.49,0.835,0.835,0,0,0-.55-0.13,1.507,1.507,0,0,0-.41.06,3.776,3.776,0,0,0-.36.12l0.14-.56c0.34-.14.66-0.26,0.97-0.36a3.146,3.146,0,0,1,.87-0.14,1.669,1.669,0,0,1,1.15.36,1.2,1.2,0,0,1,.4.93q0,0.12-.03.42a2.99,2.99,0,0,1-.1.55l-0.51,1.81a4.615,4.615,0,0,0-.12.5,3.212,3.212,0,0,0-.05.42,0.663,0.663,0,0,0,.16.5,0.98,0.98,0,0,0,.56.13,1.423,1.423,0,0,0,.43-0.07,2.263,2.263,0,0,0,.34-0.11Zm-0.09-7.37a1.218,1.218,0,0,1-.86.33,1.242,1.242,0,0,1-.87-0.33,1.056,1.056,0,0,1-.36-0.81,1.087,1.087,0,0,1,.36-0.81,1.242,1.242,0,0,1,.87-0.33,1.218,1.218,0,0,1,.86.33,1.087,1.087,0,0,1,.36.81A1.056,1.056,0,0,1,4157.58,1733.04Z" transform="translate(-4148 -1728)"/>
</svg>
