<?xml version="1.0" encoding="utf-8"?>
<!-- Generator: Adobe Illustrator 22.1.0, SVG Export Plug-In . SVG Version: 6.00 Build 0)  -->
<svg version="1.1" id="insta_sp.svg" xmlns="http://www.w3.org/2000/svg" xmlns:xlink="http://www.w3.org/1999/xlink" x="0px"
	 y="0px" viewBox="0 0 17 17" style="enable-background:new 0 0 17 17;" xml:space="preserve">
<style type="text/css">
	.st0{fill:#FFFFFF;}
</style>
<path d="M12,17H5c-2.8,0-5-2.2-5-5V5c0-2.8,2.2-5,5-5h7c2.8,0,5,2.2,5,5v7C17,14.8,14.8,17,12,17z M5,2C3.3,2,2,3.3,2,5v7
	c0,1.7,1.3,3,3,3h7c1.7,0,3-1.3,3-3V5c0-1.7-1.3-3-3-3H5z"/>
<rect id="長方形_635_のコピー_3" x="11.9" y="3.1" width="2" height="2"/>
<g>
	<path id="長方形_635_のコピー_2_1_" class="st0" d="M8.5,5L8.5,5C10.4,5,12,6.6,12,8.5l0,0c0,1.9-1.6,3.5-3.5,3.5l0,0
		C6.6,12,5,10.4,5,8.5l0,0C5,6.6,6.6,5,8.5,5z"/>
	<path d="M8.5,13C6,13,4,11,4,8.5S6,4,8.5,4S13,6,13,8.5S11,13,8.5,13z M8.5,6C7.1,6,6,7.1,6,8.5C6,9.9,7.1,11,8.5,11
		C9.9,11,11,9.9,11,8.5C11,7.1,9.9,6,8.5,6z"/>
</g>
</svg>
