<svg xmlns="http://www.w3.org/2000/svg" width="14" height="16.12" viewBox="0 0 14 16.12">
  <defs>
    <style>
      .cls-1 {
        fill: #fff;
        fill-rule: evenodd;
      }
    </style>
  </defs>
  <path id="like_sp.svg" class="cls-1" d="M4857.35,3487.4a1.451,1.451,0,0,0,.36-0.95,1.415,1.415,0,0,0-1.4-1.42h-2.71a9.64,9.64,0,0,0,.38-2.39v-0.48a1.882,1.882,0,0,0-1.86-1.89h-0.47a0.469,0.469,0,0,0-.45.36l-0.26,1.03c-0.35,1.44-1.48,3.04-2.65,3.33a1.39,1.39,0,0,0-1.3-.9h-2.79a0.469,0.469,0,0,0-.47.47v8.51a0.478,0.478,0,0,0,.47.48h2.79a1.4,1.4,0,0,0,1.26-.81l1.6,0.54a5.006,5.006,0,0,0,1.62.27h3.91a1.406,1.406,0,0,0,1.39-1.42,1.553,1.553,0,0,0-.09-0.53,1.42,1.42,0,0,0,.67-2.31A1.42,1.42,0,0,0,4857.35,3487.4Zm-9.89,4.73a0.469,0.469,0,0,1-.47.47h-2.33v-7.57h2.33a0.469,0.469,0,0,1,.47.47v6.63Zm7.92-4.26h0.93a0.467,0.467,0,0,1,.46.47,0.476,0.476,0,0,1-.46.48h-0.93a0.47,0.47,0,0,0,0,.94h0.93a0.475,0.475,0,0,1,0,.95h-0.93a0.47,0.47,0,0,0,0,.94,0.476,0.476,0,0,1,.46.48,0.467,0.467,0,0,1-.46.47h-3.91a3.975,3.975,0,0,1-1.32-.22l-1.76-.59v-5.86a3.752,3.752,0,0,0,2.09-1.38,6.966,6.966,0,0,0,1.37-2.66l0.16-.67h0.11a0.937,0.937,0,0,1,.93.94v0.48a7.563,7.563,0,0,1-.45,2.39h-0.95a0.475,0.475,0,0,0,0,.95h4.66a0.47,0.47,0,0,1,0,.94h-0.93a0.478,0.478,0,0,0-.47.48A0.469,0.469,0,0,0,4855.38,3487.87Zm-9.32,2.84a0.47,0.47,0,0,1,0,.94A0.47,0.47,0,0,1,4846.06,3490.71Zm6.52-13.31a0.461,0.461,0,0,0-.46.47v0.98a0.47,0.47,0,0,0,.46.48,0.478,0.478,0,0,0,.47-0.48v-0.98A0.469,0.469,0,0,0,4852.58,3477.4Zm-1.98,2.09-0.65-.67a0.453,0.453,0,0,0-.66,0,0.483,0.483,0,0,0,0,.67l0.66,0.67a0.459,0.459,0,0,0,.65,0A0.465,0.465,0,0,0,4850.6,3479.49Zm5.27-.67a0.442,0.442,0,0,0-.65,0l-0.66.67a0.483,0.483,0,0,0,0,.67,0.471,0.471,0,0,0,.66,0l0.65-.67A0.465,0.465,0,0,0,4855.87,3478.82Z" transform="translate(-4843.72 -3477.41)"/>
</svg>
