<svg xmlns="http://www.w3.org/2000/svg" width="19" height="22" viewBox="0 0 19 22">
  <defs>
    <style>
      .cls-1 {
        fill: #fff;
        fill-rule: evenodd;
      }
    </style>
  </defs>
  <path id="like_pc.svg" class="cls-1" d="M3426.51,3506.62a1.9,1.9,0,0,0,.49-1.29,1.919,1.919,0,0,0-1.9-1.93h-3.69a12.534,12.534,0,0,0,.52-3.27v-0.64a2.557,2.557,0,0,0-2.53-2.58h-0.63a0.64,0.64,0,0,0-.62.49l-0.34,1.4c-0.49,1.97-2.02,4.14-3.61,4.53a1.906,1.906,0,0,0-1.77-1.22h-3.8a0.636,0.636,0,0,0-.63.64v11.61a0.636,0.636,0,0,0,.63.64h3.8a1.907,1.907,0,0,0,1.72-1.1l2.17,0.74a6.96,6.96,0,0,0,2.21.36h5.3a1.919,1.919,0,0,0,1.9-1.93,1.882,1.882,0,0,0-.13-0.72,1.917,1.917,0,0,0,1.4-1.86,1.943,1.943,0,0,1,0-2.58A1.914,1.914,0,0,0,3426.51,3506.62Zm-13.44,6.45a0.644,0.644,0,0,1-.64.64h-3.16V3503.4h3.16a0.644,0.644,0,0,1,.64.64v9.03Zm10.76-5.8h1.27a0.64,0.64,0,0,1,0,1.28h-1.27a0.638,0.638,0,0,0-.63.65,0.63,0.63,0,0,0,.63.64h1.27a0.645,0.645,0,0,1,0,1.29h-1.27a0.645,0.645,0,0,0,0,1.29,0.645,0.645,0,0,1,0,1.29h-5.3a5.587,5.587,0,0,1-1.81-.3l-2.39-.81v-7.97a5.178,5.178,0,0,0,2.85-1.88,9.654,9.654,0,0,0,1.86-3.63l0.22-.92h0.14a1.283,1.283,0,0,1,1.27,1.29v0.64a10.365,10.365,0,0,1-.61,3.27h-1.29a0.645,0.645,0,0,0,0,1.29h6.33a0.645,0.645,0,0,1,0,1.29h-1.27A0.645,0.645,0,0,0,3423.83,3507.27Zm-12.66,3.86a0.645,0.645,0,1,1-.64.65A0.647,0.647,0,0,1,3411.17,3511.13Zm8.86-18.13a0.636,0.636,0,0,0-.63.64v1.34a0.636,0.636,0,0,0,.63.64,0.644,0.644,0,0,0,.64-0.64v-1.34A0.644,0.644,0,0,0,3420.03,3493Zm-2.68,2.84-0.9-.91a0.622,0.622,0,0,0-.89,0,0.646,0.646,0,0,0,0,.91l0.89,0.91a0.617,0.617,0,0,0,.9,0A0.665,0.665,0,0,0,3417.35,3495.84Zm7.16-.91a0.622,0.622,0,0,0-.89,0l-0.9.91a0.646,0.646,0,0,0,0,.91,0.617,0.617,0,0,0,.9,0l0.89-.91A0.646,0.646,0,0,0,3424.51,3494.93Z" transform="translate(-3408 -3493)"/>
</svg>
