<svg xmlns="http://www.w3.org/2000/svg" width="236" height="34" viewBox="0 0 236 34">
  <defs>
    <style>
      .cls-1 {
        fill: #fff;
        fill-rule: evenodd;
      }
    </style>
  </defs>
  <path id="logo_pc.svg" class="cls-1" d="M3204.09,1085.04v2.23a0.258,0.258,0,0,0,.07.2,0.349,0.349,0,0,0,.21.11v0.14h-1.24v-0.14a0.38,0.38,0,0,0,.22-0.11,0.3,0.3,0,0,0,.06-0.2v-5.05a0.3,0.3,0,0,0-.06-0.2,0.451,0.451,0,0,0-.22-0.11v-0.14h3.14a5.569,5.569,0,0,1,1.03.07,1.762,1.762,0,0,1,.65.25,1.382,1.382,0,0,1,.49.5,1.676,1.676,0,0,1,.2.81,1.542,1.542,0,0,1-.37,1.04,1.523,1.523,0,0,1-.74.47,4.525,4.525,0,0,1-1.26.13h-2.18Zm0-.56h2.24a6.3,6.3,0,0,0,.75-0.04,1.459,1.459,0,0,0,.43-0.15,0.944,0.944,0,0,0,.45-0.88,0.933,0.933,0,0,0-.45-0.88,1.234,1.234,0,0,0-.43-0.16,6.694,6.694,0,0,0-.75-0.03h-2.24v2.14Zm10.06,0.56v2.17a0.494,0.494,0,0,0,.05.25,0.339,0.339,0,0,0,.23.12v0.14h-1.25v-0.14a0.324,0.324,0,0,0,.22-0.11,0.433,0.433,0,0,0,.06-0.26v-4.93a0.433,0.433,0,0,0-.06-0.26,0.324,0.324,0,0,0-.22-0.11v-0.14h3.28a5.935,5.935,0,0,1,1.06.07,1.961,1.961,0,0,1,.68.25,1.356,1.356,0,0,1,.48.5,1.641,1.641,0,0,1,.21.82,1.462,1.462,0,0,1-.45,1.11,1.943,1.943,0,0,1-1.24.49l1.51,2.36a0.452,0.452,0,0,0,.4.21v0.14h-1.38v-0.14q0.21-.03.21-0.12a1.08,1.08,0,0,0-.15-0.28l-1.36-2.14h-2.28Zm0-.56h2.42a6.24,6.24,0,0,0,.74-0.04,1.489,1.489,0,0,0,.45-0.15,0.944,0.944,0,0,0,.45-0.88,0.929,0.929,0,0,0-.47-0.88,1.34,1.34,0,0,0-.45-0.16,7.419,7.419,0,0,0-.79-0.03h-2.35v2.14Zm10.47,0.46v2.22h3.82a0.316,0.316,0,0,0,.38-0.28h0.14V1088h-0.14a0.41,0.41,0,0,0-.12-0.22,0.433,0.433,0,0,0-.26-0.06h-4.79v-0.14a0.324,0.324,0,0,0,.22-0.11,0.433,0.433,0,0,0,.06-0.26v-4.93a0.379,0.379,0,0,0-.06-0.25,0.41,0.41,0,0,0-.22-0.12v-0.14h4.74a0.4,0.4,0,0,0,.25-0.06,0.41,0.41,0,0,0,.12-0.22h0.14v1.12h-0.14a0.35,0.35,0,0,0-.11-0.22,0.442,0.442,0,0,0-.26-0.05h-3.77v2.04h2.47a0.433,0.433,0,0,0,.26-0.06,0.35,0.35,0,0,0,.11-0.22h0.14v1.12h-0.14a0.35,0.35,0,0,0-.11-0.22,0.433,0.433,0,0,0-.26-0.06h-2.47Zm12.47,2.78-2.51-5v4.49a0.4,0.4,0,0,0,.06.25,0.313,0.313,0,0,0,.22.12v0.14h-1.18v-0.14a0.324,0.324,0,0,0,.22-0.11,0.433,0.433,0,0,0,.06-0.26v-4.93a0.433,0.433,0,0,0-.06-0.26,0.324,0.324,0,0,0-.22-0.11v-0.14h1.55v0.14a0.249,0.249,0,0,0-.22.18,1.3,1.3,0,0,0,.15.34l1.98,3.92,2-3.96a0.9,0.9,0,0,0,.11-0.29,0.245,0.245,0,0,0-.22-0.19v-0.14h1.57v0.14a0.408,0.408,0,0,0-.23.12,0.468,0.468,0,0,0-.05.25v4.93a0.494,0.494,0,0,0,.05.25,0.317,0.317,0,0,0,.23.12v0.14h-1.25v-0.14a0.324,0.324,0,0,0,.22-0.11,0.433,0.433,0,0,0,.06-0.26v-4.49Zm8.68-.51v-4.93a0.433,0.433,0,0,0-.06-0.26,0.35,0.35,0,0,0-.22-0.11v-0.14h1.24v0.14a0.41,0.41,0,0,0-.22.12,0.379,0.379,0,0,0-.06.25v4.93a0.433,0.433,0,0,0,.06.26,0.35,0.35,0,0,0,.22.11v0.14h-1.24v-0.14a0.324,0.324,0,0,0,.22-0.11A0.433,0.433,0,0,0,3245.77,1087.21Zm6.83-2.27v2.22h3.83a0.433,0.433,0,0,0,.26-0.06,0.35,0.35,0,0,0,.11-0.22h0.14V1088h-0.14a0.313,0.313,0,0,0-.12-0.22,0.412,0.412,0,0,0-.26-0.06h-4.79v-0.14a0.353,0.353,0,0,0,.23-0.11,0.442,0.442,0,0,0,.05-0.26v-4.93a0.468,0.468,0,0,0-.05-0.25,0.408,0.408,0,0,0-.23-0.12v-0.14h4.74a0.433,0.433,0,0,0,.26-0.06,0.41,0.41,0,0,0,.12-0.22h0.14v1.12h-0.14a0.41,0.41,0,0,0-.12-0.22,0.442,0.442,0,0,0-.26-0.05h-3.77v2.04h2.47a0.433,0.433,0,0,0,.26-0.06,0.41,0.41,0,0,0,.12-0.22h0.14v1.12h-0.14a0.41,0.41,0,0,0-.12-0.22,0.433,0.433,0,0,0-.26-0.06h-2.47Zm10.03,0.1v2.17a0.4,0.4,0,0,0,.06.25,0.313,0.313,0,0,0,.22.12v0.14h-1.24v-0.14a0.35,0.35,0,0,0,.22-0.11,0.433,0.433,0,0,0,.06-0.26v-4.93a0.433,0.433,0,0,0-.06-0.26,0.35,0.35,0,0,0-.22-0.11v-0.14h3.27a6.06,6.06,0,0,1,1.07.07,2.039,2.039,0,0,1,.68.25,1.356,1.356,0,0,1,.48.5,1.641,1.641,0,0,1,.21.82,1.462,1.462,0,0,1-.45,1.11,1.971,1.971,0,0,1-1.25.49l1.52,2.36a0.436,0.436,0,0,0,.39.21v0.14h-1.38v-0.14q0.21-.03.21-0.12a1.08,1.08,0,0,0-.15-0.28l-1.36-2.14h-2.28Zm0-.56h2.42a6.439,6.439,0,0,0,.75-0.04,1.523,1.523,0,0,0,.44-0.15,0.944,0.944,0,0,0,.45-0.88,0.922,0.922,0,0,0-.46-0.88,1.4,1.4,0,0,0-.46-0.16,7.331,7.331,0,0,0-.78-0.03h-2.36v2.14Zm-84.94-17.5v-5.42h1.67V1075h-1.67v-6.45h-6.42V1075h-1.68v-13.44h1.68v5.42h6.42m17.91,1.3a7.055,7.055,0,0,1-14.11,0,7.055,7.055,0,0,1,14.11,0m-1.67,0a5.38,5.38,0,1,0-10.76,0A5.38,5.38,0,1,0,3193.93,1068.28Zm6.57,6.72h-1.68v-11.9h-3.2v-1.54h8.08v1.54h-3.2V1075m5.16-13.44h7.23v1.54h-5.55v3.76h5.39v1.53h-5.39v5.08h5.55V1075h-7.23v-13.44m11.62,11.91h4.1V1075h-5.77v-13.44h1.67v11.91m13.73-7.34h-0.04l-1.57,8.87h-1.74l2.76-14.01,4.62,10.59,4.63-10.59,2.75,14.01h-1.73l-1.57-8.87h-0.04l-4.04,9.16-4.03-9.16m11.7-4.57h1.93l3.3,5.74,3.31-5.74h1.93l-4.4,7.6V1075h-1.68v-5.84l-4.39-7.6m17.61,2.55a2.3,2.3,0,0,0-2.16-1.27,2.129,2.129,0,0,0-2.25,1.91c0,1.06,1.04,1.61,1.88,1.93l0.96,0.37c1.92,0.75,3.34,1.8,3.34,4.05a4.147,4.147,0,0,1-4.3,4.19,4.2,4.2,0,0,1-4.17-3.76l1.7-.36a2.55,2.55,0,1,0,5.1-.07c0-1.44-1.17-2.07-2.33-2.55l-0.93-.39c-1.53-.66-2.93-1.53-2.93-3.41,0-2.17,1.93-3.47,3.97-3.47a3.834,3.834,0,0,1,3.46,2.03l-1.34.8m7.24,10.89h-1.68v-11.9h-3.2v-1.54h8.08v1.54h-3.2V1075m6.07-3.37-1.53,3.37h-1.81l6.44-14.01,6.43,14.01h-1.81l-1.53-3.37h-6.19m3.1-6.97-2.4,5.44h4.79Zm5.09-3.1h1.93l3.3,5.74,3.31-5.74h1.93l-4.4,7.6V1075h-1.68v-5.84l-4.39-7.6m17.61,2.55a2.3,2.3,0,0,0-2.16-1.27,2.129,2.129,0,0,0-2.25,1.91c0,1.06,1.04,1.61,1.88,1.93l0.96,0.37c1.91,0.75,3.34,1.8,3.34,4.05a4.147,4.147,0,0,1-4.3,4.19,4.2,4.2,0,0,1-4.17-3.76l1.7-.36a2.546,2.546,0,1,0,5.09-.07c0-1.44-1.16-2.07-2.32-2.55l-0.93-.39c-1.54-.66-2.93-1.53-2.93-3.41,0-2.17,1.93-3.47,3.97-3.47a3.834,3.834,0,0,1,3.46,2.03l-1.34.8m-159.95,22.77-2.64-2.63,2.64-2.63,2.63,2.63-2.63,2.63m2.63-13.15-2.63,2.63-2.64-2.63-5.27,5.26,2.63,2.63,2.64-2.63,2.64,2.63,2.63-2.63,2.64,2.63,2.64-2.63-5.28-5.26m-2.63,1.31-10.54-10.52,10.54-10.52,10.55,10.52-10.55,10.52m8.58,3.28-5.28-5.26,7.91-7.89,5.27,5.27-7.9,7.88m-11.88-5.25-5.27,5.26-7.91-7.89,5.27-5.26,7.91,7.89m189.44,2.32-11.43-12.11v11.66h-0.86v-13.75l11.42,12.02v-11.84h0.87v14.02Zm10.17-.45h-0.81v-1.49h-0.03a3.748,3.748,0,0,1-3.18,1.67,4.094,4.094,0,0,1-4.11-4.39,4,4,0,0,1,4.07-4.29,3.863,3.863,0,0,1,3.22,1.62h0.03v-1.43h0.81v8.31Zm-7.32-4.21a3.392,3.392,0,0,0,3.28,3.63c2.13,0,3.29-1.72,3.29-3.72a3.267,3.267,0,0,0-3.34-3.44A3.393,3.393,0,0,0,3328.47,1070.73Zm10.55-3.03h0.04a1.9,1.9,0,0,1,1.8-1.26,2.227,2.227,0,0,1,.89.2l-0.43.72a1.1,1.1,0,0,0-.58-0.16c-1.82,0-1.72,2.27-1.72,3.49v4.25h-0.81v-8.31h0.81v1.07Zm5.85-3.85a0.74,0.74,0,1,1-1.48,0A0.74,0.74,0,1,1,3344.87,1063.85Zm-0.34,11.09h-0.81v-8.31h0.81v8.31Zm3.91,0h-0.81v-7.56h-0.92v-0.75h0.92v-2.98h0.81v2.98h1.47v0.75h-1.47v7.56Zm10.56,0h-0.81v-1.49h-0.04a3.73,3.73,0,0,1-3.17,1.67,4.1,4.1,0,0,1-4.12-4.39,4,4,0,0,1,4.08-4.29,3.845,3.845,0,0,1,3.21,1.62h0.04v-1.43H3359v8.31Zm-7.33-4.21a3.4,3.4,0,0,0,3.29,3.63c2.13,0,3.28-1.72,3.28-3.72a3.267,3.267,0,0,0-3.34-3.44A3.4,3.4,0,0,0,3351.67,1070.73Z" transform="translate(-3123 -1054)"/>
</svg>
