<?xml version="1.0" encoding="utf-8"?>
<!-- Generator: Adobe Illustrator 22.1.0, SVG Export Plug-In . SVG Version: 6.00 Build 0)  -->
<svg version="1.1" id="people_pc.svg" xmlns="http://www.w3.org/2000/svg" xmlns:xlink="http://www.w3.org/1999/xlink" x="0px"
	 y="0px" viewBox="0 0 23 18.1" style="enable-background:new 0 0 23 18.1;" xml:space="preserve">
<g>
	<path d="M18.2,10.6L18.1,10c1.3-0.8,2.1-2.2,2.1-3.7c0-2.2-1.5-4-3.4-4s-3.4,1.8-3.4,4c-0.1,1.5,0.8,3,2.1,3.7l-0.1,0.5
		c-0.4,0.5-1.7,0.9-2.7,1.5c0.6,0.3,2.7,1.9,2.8,3.9h1.3v0H23C23,11.7,19.1,11.6,18.2,10.6z"/>
	<path d="M10.7,12c-0.8-0.3-1.4-0.6-1.8-1.1l-0.1-0.1L8.6,9.6l0.3-0.1c1.5-0.9,2.5-2.6,2.4-4.4c0-2.6-1.7-4.7-3.8-4.7
		S3.6,2.5,3.6,5.1C3.5,6.9,4.4,8.6,6,9.5l0.3,0.2L6,10.8c-0.4,0.5-1.1,0.8-1.9,1.2c-1.8,0.8-3.9,1.8-4.1,5.1h14.8
		C14.6,13.8,12.4,12.8,10.7,12z"/>
</g>
</svg>
