<?xml version="1.0" encoding="utf-8"?>
<!-- Generator: Adobe Illustrator 22.1.0, SVG Export Plug-In . SVG Version: 6.00 Build 0)  -->
<svg version="1.1" id="people_sp.svg" xmlns="http://www.w3.org/2000/svg" xmlns:xlink="http://www.w3.org/1999/xlink" x="0px"
	 y="0px" viewBox="0 0 28 20" style="enable-background:new 0 0 28 20;" xml:space="preserve">
<g>
	<path d="M21.8,12.2l-0.1-0.7c1.6-0.9,2.6-2.6,2.5-4.4c0-2.7-1.8-4.8-4.1-4.8S16,4.4,16,7.1c-0.1,1.8,0.9,3.6,2.5,4.5l-0.1,0.6
		c-0.5,0.6-2,1.1-3.3,1.8c0.8,0.4,3.3,2.3,3.4,4.7h1.6v0h7.4C27.5,13.6,22.9,13.5,21.8,12.2z"/>
	<path d="M12.8,13.9c-0.9-0.4-1.7-0.8-2.2-1.3l-0.1-0.1l-0.3-1.4l0.3-0.2c1.9-1.1,3-3.1,2.9-5.2c0-3.1-2.1-5.7-4.6-5.7
		S4.3,2.5,4.3,5.7c-0.1,2.2,1,4.2,2.9,5.3l0.3,0.2l-0.3,1.3c-0.5,0.6-1.3,1-2.3,1.4C2.8,14.9,0.2,16,0,20h17.7
		C17.5,16,14.9,14.9,12.8,13.9z"/>
</g>
</svg>
