<svg xmlns="http://www.w3.org/2000/svg" width="17" height="18">
    <path fill="#FFF" fill-rule="evenodd" d="M16.82 13.724a.787.787 0 0 1-.243.692l-2.31 2.283c-.105.116-.24.214-.408.294a1.657 1.657 0 0 1-.495.156 2.326 2.326 0 0 1-.33.017c-.22 0-.576-.036-1.069-.111-.491-.076-1.093-.26-1.805-.555-.713-.294-1.52-.734-2.424-1.323-.902-.589-1.864-1.395-2.883-2.422-.81-.796-1.482-1.558-2.014-2.284a16.282 16.282 0 0 1-1.286-2.016 10.783 10.783 0 0 1-.729-1.678 8.902 8.902 0 0 1-.33-1.299 4.207 4.207 0 0 1-.069-.855c.011-.208.017-.324.017-.347.023-.161.076-.325.156-.493.081-.167.18-.303.295-.407l2.311-2.3a.763.763 0 0 1 .555-.242c.151 0 .284.043.399.129.116.087.215.193.296.32l1.858 3.512a.833.833 0 0 1 .087.606 1.066 1.066 0 0 1-.295.553l-.851.849a.275.275 0 0 0-.061.112.437.437 0 0 0-.026.129c.046.244.15.519.313.831.139.277.353.615.642 1.013.29.397.701.856 1.233 1.375.521.531.984.943 1.39 1.237.405.294.744.51 1.016.649.272.138.48.222.625.251l.217.043a.416.416 0 0 0 .113-.025.287.287 0 0 0 .113-.062l.99-1.003c.208-.185.452-.277.73-.277.196 0 .352.035.468.104h.018l3.352 1.972c.243.15.388.341.434.572z"/>
</svg>
