<svg xmlns="http://www.w3.org/2000/svg" width="12" height="12">
    <path fill="#FFF" fill-rule="evenodd" d="M11.994 9.47a.583.583 0 0 1-.178.509l-1.689 1.677a.954.954 0 0 1-.299.217 1.242 1.242 0 0 1-.362.114 1.31 1.31 0 0 0-.076.006 1.472 1.472 0 0 1-.165.007c-.161 0-.422-.027-.782-.082-.359-.056-.8-.191-1.321-.408-.521-.216-1.111-.539-1.772-.972-.66-.432-1.363-1.025-2.109-1.779a14.028 14.028 0 0 1-1.473-1.678A11.925 11.925 0 0 1 .828 5.6a8.053 8.053 0 0 1-.534-1.233 6.454 6.454 0 0 1-.241-.954 3.14 3.14 0 0 1-.051-.629l.013-.254c.017-.119.055-.239.114-.363a.952.952 0 0 1 .216-.299l1.69-1.69A.559.559 0 0 1 2.441 0c.11 0 .208.032.292.095a.883.883 0 0 1 .216.235l1.359 2.581a.615.615 0 0 1 .064.445.787.787 0 0 1-.216.406l-.623.624a.22.22 0 0 0-.044.082.31.31 0 0 0-.019.095c.034.179.11.382.229.61.102.204.258.452.47.745.211.292.512.629.901 1.01.382.39.72.693 1.017.909.296.216.544.375.743.476.199.102.352.164.457.185l.159.032a.332.332 0 0 0 .165-.064l.724-.737a.779.779 0 0 1 .534-.204c.144 0 .258.026.343.077h.013l2.452 1.449c.177.11.283.25.317.419z"/>
</svg>
