<svg xmlns="http://www.w3.org/2000/svg" width="236" height="34">
    <path fill="#FFF" fill-rule="evenodd" d="M235.187 20.94v-1.494h-.036c-.613 1.062-1.949 1.674-3.176 1.674-2.526 0-4.114-1.962-4.114-4.392 0-2.43 1.57-4.283 4.079-4.283 1.281 0 2.508.576 3.211 1.62h.036v-1.44h.812v8.315h-.812zm-3.284-7.739c-1.912 0-3.229 1.728-3.229 3.527 0 1.908 1.262 3.636 3.283 3.636 2.13 0 3.285-1.728 3.285-3.726 0-1.926-1.318-3.437-3.339-3.437zm-6.46 7.739h-.812v-7.559h-.92v-.756h.92v-2.97h.812v2.97h1.462v.756h-1.462v7.559zm-4.312-10.349a.731.731 0 0 1-.74-.738c0-.396.325-.738.74-.738s.74.342.74.738a.731.731 0 0 1-.74.738zm-3.393 2.61c-1.822 0-1.714 2.267-1.714 3.491v4.248h-.812v-8.315h.812v1.079h.036c.325-.755.92-1.259 1.805-1.259.324 0 .595.072.884.197l-.433.72a1.132 1.132 0 0 0-.578-.161zm-5.756 6.245h-.036c-.614 1.062-1.949 1.674-3.176 1.674-2.526 0-4.114-1.962-4.114-4.392 0-2.43 1.57-4.283 4.078-4.283 1.281 0 2.508.576 3.212 1.62h.036v-1.44h.812v8.315h-.812v-1.494zm-3.284-6.245c-1.913 0-3.23 1.728-3.23 3.527 0 1.908 1.263 3.636 3.284 3.636 2.129 0 3.284-1.728 3.284-3.726 0-1.926-1.317-3.437-3.338-3.437zm-17.504 7.739h-.866V7.189l11.422 12.023V7.369h.866V21.39L191.194 9.277V20.94zm-16.333-7.887c1.913.749 3.341 1.8 3.341 4.047 0 2.441-1.895 4.189-4.305 4.189-2.181 0-3.878-1.604-4.164-3.76l1.697-.359c-.019 1.481 1.161 2.549 2.608 2.549 1.449 0 2.485-1.211 2.485-2.619 0-1.443-1.162-2.068-2.323-2.55l-.929-.393c-1.539-.658-2.932-1.532-2.932-3.403 0-2.175 1.93-3.477 3.968-3.477 1.502 0 2.734.731 3.466 2.032l-1.34.804c-.501-.84-1.142-1.269-2.16-1.269-1.074 0-2.253.733-2.253 1.91 0 1.052 1.036 1.603 1.877 1.924l.964.375zm-9.968 7.95h-1.682v-5.848l-4.394-7.591h1.928l3.305 5.738 3.307-5.738h1.932l-4.396 7.591v5.848zm-6.54 0l-1.536-3.368h-6.183l-1.536 3.368h-1.805l6.433-14.012 6.434 14.012h-1.807zm-4.627-10.34l-2.394 5.44h4.786l-2.392-5.44zm-9.165 10.34h-1.681V9.097h-3.198V7.564h8.079v1.533h-3.2v11.906zm-8.809-7.95c1.913.749 3.342 1.8 3.342 4.047 0 2.441-1.894 4.189-4.307 4.189-2.181 0-3.879-1.604-4.165-3.76l1.699-.359c-.019 1.481 1.162 2.549 2.609 2.549s2.485-1.211 2.485-2.619c0-1.443-1.162-2.068-2.324-2.55l-.929-.393c-1.536-.658-2.931-1.532-2.931-3.403 0-2.175 1.929-3.477 3.967-3.477 1.501 0 2.735.731 3.467 2.032l-1.341.804c-.5-.84-1.144-1.269-2.161-1.269-1.074 0-2.253.733-2.253 1.91 0 1.052 1.038 1.603 1.877 1.924l.965.375zm-9.968 7.95h-1.68v-5.848l-4.398-7.591h1.93l3.308 5.738 3.305-5.738h1.929l-4.394 7.591v5.848zm-9.666-8.876h-.035l-4.038 9.162-4.039-9.162h-.036l-1.574 8.876h-1.733l2.753-14.012 4.629 10.591 4.628-10.591 2.752 14.012h-1.732l-1.575-8.876zm-10.474 15.585c.05-.037.089-.112.118-.224h.14v1.126h-.14c-.026-.109-.065-.183-.115-.221-.051-.039-.138-.058-.261-.058h-3.77v2.042h2.471c.123 0 .209-.019.26-.057.051-.037.09-.112.116-.222h.14v1.126h-.14c-.026-.111-.065-.185-.116-.223-.051-.038-.137-.057-.26-.057h-2.471v2.212h3.827c.123 0 .209-.019.26-.056.051-.038.09-.112.116-.223h.14v1.126h-.14c-.029-.111-.069-.185-.12-.223-.051-.038-.137-.056-.26-.056h-4.79v-.14c.114-.029.189-.068.225-.118.037-.049.055-.135.055-.257v-4.926c0-.123-.019-.208-.057-.258-.038-.049-.112-.089-.223-.118v-.139h4.737c.123 0 .209-.019.258-.056zM92.607 7.564h1.677V19.47h4.093v1.533h-5.77V7.564zm1.915 20.276c.261.048.488.132.68.251.198.122.359.29.481.502.14.242.21.515.21.818 0 .454-.15.825-.452 1.112-.302.286-.717.45-1.245.491l1.518 2.352c.09.146.222.218.394.218v.14h-1.383v-.14c.143-.023.215-.064.215-.122 0-.029-.051-.123-.153-.283l-1.357-2.134h-2.283v2.164c0 .12.019.204.057.255.038.051.112.091.223.12v.14h-1.246v-.14c.11-.029.185-.068.223-.118.038-.049.057-.135.057-.257v-4.926c0-.123-.019-.209-.057-.26-.038-.051-.113-.089-.223-.116v-.139h3.276c.449 0 .804.024 1.065.072zm-3.375 2.637h2.419c.33 0 .578-.013.746-.041a1.33 1.33 0 0 0 .444-.151c.3-.174.451-.466.451-.877 0-.413-.155-.707-.464-.881a1.37 1.37 0 0 0-.457-.153 5.62 5.62 0 0 0-.781-.039h-2.358v2.142zM82.656 7.564h7.238v1.533h-5.558v3.76h5.398v1.534h-5.398v5.079h5.558v1.533h-7.238V7.564zm-5.159 13.439h-1.679V9.097h-3.2V7.564h8.078v1.533h-3.199v11.906zm-11.953.286c-3.895 0-7.058-3.012-7.058-7.005 0-3.853 3.2-7.007 7.058-7.007 3.862 0 7.061 3.154 7.061 7.007 0 3.993-3.163 7.005-7.061 7.005zm0-12.445c-3.159 0-5.378 2.48-5.378 5.44 0 3.064 2.467 5.435 5.378 5.435 2.914 0 5.381-2.371 5.381-5.435 0-2.96-2.216-5.44-5.381-5.44zM54.687 14.55h-6.415v6.453H46.59V7.564h1.682v5.418h6.415V7.564h1.678v13.439h-1.678V14.55zm-34.905 4.512l7.908-7.888 5.273 5.261-7.907 7.889-5.274-5.262zM5.941 10.515L16.485-.003 27.03 10.515 16.485 21.037 5.941 10.515zm1.967 13.817L0 16.442l5.27-5.261 7.91 7.89-5.272 5.261zm8.57-1.972l2.635-2.629 5.274 5.259-2.637 2.629-2.638-2.629-2.634 2.629-2.637-2.629-2.637 2.629-2.637-2.628 5.274-5.26 2.637 2.629zm2.635 7.889l-2.635 2.629-2.637-2.629 2.637-2.63 2.635 2.63zm65.183-2.411c.245.046.464.13.656.253.202.122.363.289.486.501.137.239.206.507.206.803 0 .408-.126.757-.377 1.048-.192.224-.436.38-.732.469-.297.088-.719.133-1.267.133h-2.174v2.221c0 .09.021.158.062.205.04.046.113.084.218.113v.14h-1.246v-.14a.45.45 0 0 0 .218-.113c.041-.047.062-.115.062-.205v-5.044c0-.088-.021-.155-.062-.201a.442.442 0 0 0-.218-.114v-.139h3.14c.441 0 .783.023 1.028.07zm-3.202 2.639h2.24c.332 0 .58-.013.741-.039.162-.026.307-.077.436-.153.297-.174.446-.466.446-.877 0-.413-.149-.707-.446-.881a1.233 1.233 0 0 0-.433-.153 5.123 5.123 0 0 0-.744-.039h-2.24v2.142zm31.132-2.57c-.143.05-.215.111-.215.184 0 .035.048.146.145.336l1.989 3.926 1.998-3.961c.07-.14.105-.239.105-.297 0-.076-.072-.138-.214-.188v-.139h1.562v.139c-.111.029-.185.069-.223.118-.038.05-.057.135-.057.258v4.926c0 .119.019.204.057.255.038.051.112.091.223.12v.14h-1.247v-.14c.114-.029.189-.068.226-.118.036-.049.054-.135.054-.257v-4.493l-2.535 5.008-2.513-5.008v4.493c0 .119.019.204.057.255.038.051.112.091.223.12v.14h-1.181v-.14c.111-.029.185-.068.223-.118.038-.049.057-.135.057-.257v-4.926c0-.123-.019-.209-.057-.26-.038-.051-.112-.089-.223-.116v-.139h1.546v.139zm11.508 0c-.111.029-.185.069-.223.118-.038.05-.057.135-.057.258v4.926c0 .122.018.208.055.257.036.05.111.089.225.118v.14h-1.247v-.14c.114-.029.189-.068.226-.118.036-.049.054-.135.054-.257v-4.926c0-.123-.019-.209-.057-.26-.037-.051-.112-.089-.223-.116v-.139h1.247v.139zm9.896-.195c.049-.037.089-.112.118-.224h.14v1.126h-.14c-.027-.109-.065-.183-.116-.221-.051-.039-.138-.058-.261-.058h-3.77v2.042h2.471c.123 0 .21-.019.261-.057.05-.037.089-.112.115-.222h.141v1.126h-.141c-.026-.111-.065-.185-.115-.223-.051-.038-.138-.057-.261-.057h-2.471v2.212h3.827c.123 0 .21-.019.261-.056.051-.038.089-.112.116-.223h.14v1.126h-.14c-.03-.111-.07-.185-.121-.223-.051-.038-.137-.056-.26-.056h-4.79v-.14c.114-.029.189-.068.225-.118.037-.049.055-.135.055-.257v-4.926c0-.123-.019-.208-.057-.258-.038-.049-.112-.089-.223-.118v-.139h4.737c.123 0 .209-.019.259-.056zm9.377.128c.261.048.488.132.68.251.198.122.359.29.481.502.14.242.21.515.21.818 0 .454-.151.825-.453 1.112-.301.286-.716.45-1.244.491l1.518 2.352c.09.146.221.218.393.218v.14h-1.382v-.14c.143-.023.215-.064.215-.122 0-.029-.051-.123-.154-.283l-1.356-2.134h-2.283v2.164c0 .12.019.204.057.255.038.051.112.091.223.12v.14h-1.247v-.14c.111-.029.186-.068.223-.118.038-.049.057-.135.057-.257v-4.926c0-.123-.019-.209-.057-.26-.037-.051-.112-.089-.223-.116v-.139h3.277c.449 0 .804.024 1.065.072zm-3.375 2.637h2.419c.33 0 .578-.013.746-.041.168-.028.315-.078.444-.151.3-.174.45-.466.45-.877 0-.413-.154-.707-.463-.881a1.37 1.37 0 0 0-.457-.153 5.62 5.62 0 0 0-.781-.039h-2.358v2.142zm81.896-9.537h-.812v-8.315h.812v8.315z"/>
</svg>
