<?xml version="1.0" encoding="utf-8"?>
<!-- Generator: Adobe Illustrator 22.1.0, SVG Export Plug-In . SVG Version: 6.00 Build 0)  -->
<svg version="1.1" id="tw_pc.svg" xmlns="http://www.w3.org/2000/svg" xmlns:xlink="http://www.w3.org/1999/xlink" x="0px" y="0px"
	 viewBox="0 0 36 36" style="enable-background:new 0 0 36 36;" xml:space="preserve">
<style type="text/css">
	.st0{fill:#FAFAFA;}
</style>
<path class="st0" d="M18,0C8.1,0,0,8.1,0,18s8.1,18,18,18s18-8.1,18-18S27.9,0,18,0z M24.4,14.5l0,0.5c0,4.7-3.3,10.1-9.3,10.1
	c-1.8,0-3.6-0.6-5-1.6c0.3,0,0.5,0,0.8,0c1.5,0,2.9-0.5,4.1-1.5c-1.4-0.1-2.7-1.1-3.1-2.5c0.5,0.1,1,0.1,1.5-0.1
	c-1.6-0.4-2.7-1.8-2.6-3.5v0c0.4,0.3,1,0.4,1.5,0.4c-0.9-0.7-1.5-1.8-1.5-2.9c0-0.6,0.1-1.2,0.4-1.8c1.6,2.2,4.1,3.5,6.8,3.7
	c-0.1-0.3-0.1-0.5-0.1-0.8c-0.1-1.9,1.4-3.5,3.3-3.5c0.9,0,1.8,0.4,2.4,1.1c0.7-0.2,1.4-0.4,2.1-0.9c-0.2,0.8-0.7,1.5-1.4,2
	c0.7-0.1,1.3-0.3,1.9-0.6C25.6,13.4,25,14,24.4,14.5z"/>
</svg>
