<?xml version="1.0" encoding="UTF-8" standalone="no"?>
<svg width="16px" height="11px" viewBox="0 0 16 11" version="1.1" xmlns="http://www.w3.org/2000/svg" xmlns:xlink="http://www.w3.org/1999/xlink">
    <!-- Generator: Sketch 45.2 (43514) - http://www.bohemiancoding.com/sketch -->
    <title>CN-flag</title>
    <desc>Created with Sketch.</desc>
    <defs></defs>
    <g id="Page-1" stroke="none" stroke-width="1" fill="none" fill-rule="evenodd">
        <g id="MS-Pepper-Landing-Page-Desktop-EN" transform="translate(-1130.000000, -138.000000)">
            <g id="Lang-Hover" transform="translate(1115.000000, 30.000000)">
                <g id="CN" transform="translate(15.000000, 104.000000)">
                    <g id="CN-flag" transform="translate(0.000000, 4.000000)">
                        <polygon id="Fill-1" fill="#E54C3C" points="0 11 16 11 16 0 0 0"></polygon>
                        <polygon id="Fill-2" fill="#EFC319" points="2.46693953 1.4537069 2.79512558 2.48334483 3.85707907 2.48334483 2.99791628 3.11944828 3.32591628 4.14889655 2.46693953 3.5127931 1.60796279 4.14889655 1.93596279 3.11944828 1.07698605 2.48334483 2.13875349 2.48334483"></polygon>
                        <polygon id="Fill-3" fill="#EFC319" points="5.19568372 1.01457931 5.32293953 1.41380345 5.73428837 1.41380345 5.40145116 1.66035517 5.52870698 2.05938966 5.19568372 1.81283793 4.86266047 2.05938966 4.98973023 1.66035517 4.65689302 1.41380345 5.06842791 1.41380345"></polygon>
                        <polygon id="Fill-4" fill="#EFC319" points="5.36682791 2.67647069 5.49408372 3.07550517 5.9056186 3.07550517 5.5727814 3.3220569 5.69985116 3.72128103 5.36682791 3.47453966 5.03380465 3.72128103 5.16106047 3.3220569 4.82822326 3.07550517 5.23957209 3.07550517"></polygon>
                        <polygon id="Fill-5" fill="#EFC319" points="4.64971163 4.43633793 4.77696744 4.83537241 5.18850233 4.83537241 4.85547907 5.08211379 4.98254884 5.48114828 4.64971163 5.23459655 4.31668837 5.48114828 4.44394419 5.08211379 4.11092093 4.83537241 4.52245581 4.83537241"></polygon>
                        <polygon id="Fill-6" fill="#EFC319" points="3.12245581 5.4516569 3.24971163 5.85069138 3.66124651 5.85069138 3.32822326 6.09743276 3.45529302 6.49646724 3.12245581 6.24991552 2.78943256 6.49646724 2.91668837 6.09743276 2.58366512 5.85069138 2.9952 5.85069138"></polygon>
                    </g>
                </g>
            </g>
        </g>
    </g>
</svg>