<?xml version="1.0" encoding="utf-8"?>
<!-- Generator: Adobe Illustrator 22.1.0, SVG Export Plug-In . SVG Version: 6.00 Build 0)  -->
<svg version="1.1" id="レイヤー_1" xmlns="http://www.w3.org/2000/svg" xmlns:xlink="http://www.w3.org/1999/xlink" x="0px"
	 y="0px" viewBox="0 0 30 20" style="enable-background:new 0 0 30 20;" xml:space="preserve">
<style type="text/css">
	.st0{fill:#FFFFFF;}
	.st1{fill:#BB1A30;}
	.st2{fill:#12366D;}
	.st3{fill:#040000;}
</style>
<g>
	<rect class="st0" width="30" height="20"/>
	<path class="st1" d="M17.8,5.8c-2.3-1.5-5.4-0.9-6.9,1.4c0,0,0,0.1-0.1,0.1c-0.7,1.1-0.4,2.6,0.8,3.4c1.1,0.8,2.7,0.5,3.5-0.7
		s2.3-1.5,3.5-0.7c1.1,0.7,1.4,2.2,0.8,3.4C20.7,10.4,20,7.3,17.8,5.8z"/>
	<path class="st2" d="M10.8,7.2c-0.8,1.1-0.5,2.7,0.7,3.5c1.1,0.8,2.7,0.5,3.5-0.7s2.3-1.5,3.5-0.7c1.1,0.8,1.5,2.3,0.7,3.5
		c-1.5,2.3-4.6,2.9-6.9,1.4C9.9,12.6,9.3,9.5,10.8,7.2z"/>
	<g>
		<rect x="21.2" y="12.9" transform="matrix(0.5547 -0.832 0.832 0.5547 -1.1119 24.4906)" class="st3" width="2.3" height="0.9"/>
		
			<rect x="22.2" y="13.5" transform="matrix(0.5546 -0.8321 0.8321 0.5546 -1.2246 25.6669)" class="st3" width="2.3" height="0.9"/>
		<rect x="4.9" y="4.5" transform="matrix(0.5547 -0.832 0.832 0.5547 -0.8067 8.3232)" class="st3" width="5" height="0.9"/>
		<rect x="20.4" y="3.3" transform="matrix(0.832 -0.5547 0.5547 0.832 1.005 12.3218)" class="st3" width="0.9" height="2.3"/>
		
			<rect x="21.9" y="5.5" transform="matrix(0.8321 -0.5546 0.5546 0.8321 2.379622e-02 13.5104)" class="st3" width="0.9" height="2.3"/>
		<rect x="22.2" y="2.4" transform="matrix(0.832 -0.5547 0.5547 0.832 1.0739 13.3773)" class="st3" width="0.9" height="5"/>
		<rect x="24" y="4.2" transform="matrix(0.8321 -0.5547 0.5547 0.8321 1.1426 14.4321)" class="st3" width="0.9" height="2.3"/>
		<rect x="22.5" y="1.9" transform="matrix(0.8321 -0.5547 0.5547 0.8321 2.123 13.2413)" class="st3" width="0.9" height="2.3"/>
		<rect x="6.2" y="12.8" transform="matrix(0.8321 -0.5546 0.5546 0.8321 -6.6385 6.0269)" class="st3" width="0.9" height="2.3"/>
		<rect x="21.8" y="16.5" transform="matrix(0.5547 -0.832 0.832 0.5547 -3.8395 26.5965)" class="st3" width="2.3" height="0.9"/>
		<rect x="19.7" y="15.1" transform="matrix(0.5547 -0.832 0.832 0.5547 -3.6121 24.2477)" class="st3" width="2.3" height="0.9"/>
		
			<rect x="20.7" y="15.8" transform="matrix(0.5547 -0.8321 0.8321 0.5547 -3.7253 25.4235)" class="st3" width="2.3" height="0.9"/>
		<rect x="23.2" y="14.2" transform="matrix(0.5548 -0.832 0.832 0.5548 -1.3411 26.8354)" class="st3" width="2.3" height="0.9"/>
		<rect x="7.7" y="15" transform="matrix(0.8321 -0.5547 0.5547 0.8321 -7.6194 7.2187)" class="st3" width="0.9" height="2.3"/>
		<rect x="5.9" y="5.2" transform="matrix(0.5548 -0.832 0.832 0.5548 -0.9206 9.4969)" class="st3" width="5" height="0.9"/>
		<rect x="5.9" y="13.3" transform="matrix(0.832 -0.5547 0.5547 0.832 -7.6887 6.163)" class="st3" width="0.9" height="5"/>
		<rect x="3.8" y="3.8" transform="matrix(0.5546 -0.8321 0.8321 0.5546 -0.6926 7.1496)" class="st3" width="5" height="0.9"/>
		<rect x="8" y="11.9" transform="matrix(0.8321 -0.5547 0.5547 0.8321 -6.57 7.0837)" class="st3" width="0.9" height="5"/>
	</g>
</g>
</svg>
