<svg xmlns="http://www.w3.org/2000/svg" width="16" height="16">
    <path fill-rule="evenodd" d="M8.009.008a8.001 8.001 0 1 0 0 16.003 8.001 8.001 0 0 0 0-16.003zm1.665 12.4c-.411.161-.739.285-.985.37a2.584 2.584 0 0 1-.855.129c-.499 0-.887-.122-1.163-.365a1.178 1.178 0 0 1-.414-.925c0-.146.01-.296.031-.448.021-.151.054-.322.099-.513l.516-1.82c.045-.176.084-.343.115-.497.032-.156.046-.299.046-.429 0-.231-.047-.394-.143-.485-.097-.092-.279-.137-.551-.137-.133 0-.269.02-.409.062-.14.042-.26.081-.359.119l.136-.561c.338-.138.661-.255.969-.353.308-.099.599-.148.874-.148.495 0 .877.121 1.146.36.267.238.402.549.402.932 0 .078-.009.218-.028.417-.018.2-.053.382-.103.55l-.513 1.815a5.53 5.53 0 0 0-.113.498 2.635 2.635 0 0 0-.049.425c0 .241.053.405.162.494.107.086.295.131.56.131.125 0 .265-.023.424-.067.158-.043.272-.082.343-.115l-.138.561zm-.09-7.368a1.224 1.224 0 0 1-.864.333c-.335 0-.626-.111-.867-.333a1.064 1.064 0 0 1-.361-.808c0-.315.121-.586.361-.81.241-.225.532-.337.867-.337.337 0 .625.112.864.337.238.224.359.495.359.81 0 .316-.121.586-.359.808z"/>
</svg>
