<svg id="レイヤー_1" data-name="レイヤー 1" xmlns="http://www.w3.org/2000/svg" viewBox="0 0 28 28"><defs><style>.cls-1{fill:#232e48;}</style></defs><title>freefifi</title><path class="cls-1" d="M21.7,4.73a10.19,10.19,0,0,0-14.4,0,.77.77,0,0,0,0,1.07.75.75,0,0,0,1.07,0,8.67,8.67,0,0,1,12.26,0,.75.75,0,0,0,1.07,0A.77.77,0,0,0,21.7,4.73Z"/><path class="cls-1" d="M10,7.4A.75.75,0,0,0,11,8.47a4.9,4.9,0,0,1,6.94,0A.75.75,0,0,0,19,7.4,6.41,6.41,0,0,0,10,7.4Z"/><path class="cls-1" d="M12.47,11l2,2,2-2A2.87,2.87,0,0,0,12.47,11Z"/><path class="cls-1" d="M23.11,17.15A.84.84,0,1,0,24,18,.84.84,0,0,0,23.11,17.15Z"/><rect class="cls-1" x="22.35" y="19.13" width="1.52" height="3.98"/><polygon class="cls-1" points="16.75 17.57 16.75 19.1 16.75 23.11 18.21 23.11 18.21 21.42 21.03 21.42 21.03 20.07 18.21 20.07 18.21 19.1 21.43 19.1 21.43 17.57 18.21 17.57 16.75 17.57"/><path class="cls-1" d="M22.73,15H5.55a3.91,3.91,0,0,0-3.91,3.91v3.18A3.91,3.91,0,0,0,5.55,26H22.73a3.91,3.91,0,0,0,3.91-3.91V18.91A3.91,3.91,0,0,0,22.73,15ZM9.17,23.14H7.79l-.62-2.7-.62,2.7H5.17L3.8,17.57H5.41l.5,2.48.6-2.48H7.83l.6,2.48.5-2.48h1.61Zm3.51,0H11.16v-4h1.52Zm-.76-4.29a.84.84,0,1,1,.84-.84A.83.83,0,0,1,11.92,18.82Zm13.86,3.27a3.06,3.06,0,0,1-3.05,3.05H13.11a4.33,4.33,0,0,0,1.67-3.37V19.22a3.36,3.36,0,0,1,3.37-3.36h4.58a3.06,3.06,0,0,1,3.05,3.05Z"/></svg>