<svg xmlns="http://www.w3.org/2000/svg" width="15.22" height="15.26" viewBox="0 0 15.22 15.26">
  <defs>
    <style>
      .cls-1 {
        fill-rule: evenodd;
      }
    </style>
  </defs>
  <path id="info_sp.svg" class="cls-1" d="M5535.64,1737.11a7.63,7.63,0,1,0,7.62,7.63A7.627,7.627,0,0,0,5535.64,1737.11Zm1.59,11.83c-0.39.15-.71,0.27-0.94,0.35a2.531,2.531,0,0,1-.82.12,1.61,1.61,0,0,1-1.1-.34,1.13,1.13,0,0,1-.4-0.89,2.966,2.966,0,0,1,.03-0.42,3.558,3.558,0,0,1,.1-0.49l0.49-1.74c0.04-.17.08-0.33,0.11-0.47a2.1,2.1,0,0,0,.04-0.41,0.617,0.617,0,0,0-.13-0.46,0.789,0.789,0,0,0-.53-0.13,1.306,1.306,0,0,0-.39.05,3.238,3.238,0,0,0-.34.12l0.13-.54c0.32-.13.63-0.24,0.92-0.33a2.536,2.536,0,0,1,.83-0.14,1.61,1.61,0,0,1,1.1.34,1.149,1.149,0,0,1,.38.89c0,0.07-.01.21-0.03,0.4a2.665,2.665,0,0,1-.1.52l-0.49,1.73c-0.03.14-.07,0.3-0.1,0.48a2.668,2.668,0,0,0-.05.4,0.587,0.587,0,0,0,.15.47,0.929,0.929,0,0,0,.54.13,1.605,1.605,0,0,0,.4-0.07,2.48,2.48,0,0,0,.33-0.11Zm-0.09-7.03a1.174,1.174,0,0,1-.82.32,1.2,1.2,0,0,1-.83-0.32,1,1,0,0,1-.34-0.77,1.038,1.038,0,0,1,.34-0.77,1.154,1.154,0,0,1,.83-0.32,1.131,1.131,0,0,1,.82.32A1.042,1.042,0,0,1,5537.14,1741.91Z" transform="translate(-5528.03 -1737.12)"/>
</svg>
