<?xml version="1.0" encoding="utf-8"?>
<!-- Generator: Adobe Illustrator 22.1.0, SVG Export Plug-In . SVG Version: 6.00 Build 0)  -->
<svg version="1.1" id="insta_pc.svg" xmlns="http://www.w3.org/2000/svg" xmlns:xlink="http://www.w3.org/1999/xlink" x="0px"
	 y="0px" viewBox="0 0 21 21" style="enable-background:new 0 0 21 21;" xml:space="preserve">
<style type="text/css">
	.st0{fill:#FFFFFF;stroke:#000000;stroke-width:2;}
</style>
<path d="M16,21H5c-2.8,0-5-2.2-5-5V5c0-2.8,2.2-5,5-5h11c2.8,0,5,2.2,5,5v11C21,18.8,18.8,21,16,21z M5,2C3.3,2,2,3.3,2,5v11
	c0,1.7,1.3,3,3,3h11c1.7,0,3-1.3,3-3V5c0-1.7-1.3-3-3-3H5z"/>
<path id="長方形_635_のコピー_3" d="M15.7,3.3h1c0.6,0,1,0.4,1,1v1c0,0.6-0.4,1-1,1h-1c-0.6,0-1-0.4-1-1v-1
	C14.7,3.7,15.2,3.3,15.7,3.3z"/>
<circle class="st0" cx="10.4" cy="10.7" r="4.5"/>
</svg>
