<?xml version="1.0" encoding="UTF-8" standalone="no"?>
<svg width="16px" height="11px" viewBox="0 0 16 11" version="1.1" xmlns="http://www.w3.org/2000/svg" xmlns:xlink="http://www.w3.org/1999/xlink">
    <!-- Generator: Sketch 45.2 (43514) - http://www.bohemiancoding.com/sketch -->
    <title>KR-flag</title>
    <desc>Created with Sketch.</desc>
    <defs></defs>
    <g id="Page-1" stroke="none" stroke-width="1" fill="none" fill-rule="evenodd">
        <g id="MS-Pepper-Landing-Page-Desktop-EN" transform="translate(-1130.000000, -203.000000)">
            <g id="Lang-Hover" transform="translate(1115.000000, 30.000000)">
                <g id="KR" transform="translate(15.000000, 170.000000)">
                    <g id="KR-flag" transform="translate(0.000000, 3.000000)">
                        <polygon id="Fill-1" fill="#FFFFFF" points="0 10.9406193 15.8213953 10.9406193 15.8213953 5.78947365e-05 0 5.78947365e-05"></polygon>
                        <g id="Group-22" transform="translate(1.860465, 1.291496)">
                            <path d="M8.69659535,4.88205088 C8.91817674,3.97271754 8.06664186,3.2241386 7.36431628,3.2241386 C6.95687442,3.2241386 6.58682791,3.44047193 6.36524651,3.75522632 C6.21659535,3.94454211 5.69901395,4.74889298 5.58757209,4.88880526 C5.36636279,5.09857719 5.0696186,5.24524386 4.73659535,5.24524386 C4.03352558,5.24524386 3.36766512,4.62268246 3.36766512,3.63036667 C3.36766512,3.63036667 3.33026977,4.01440175 3.33026977,4.13964737 C3.33026977,5.78366491 4.55185116,7.02164737 6.06868837,7.00775263 C7.40096744,7.0004193 8.39985116,6.00077018 8.69659535,4.88205088" id="Fill-2" fill="#3B96D2"></path>
                            <path d="M3.36773953,3.63671579 C3.62671628,2.33620702 4.73648372,1.3496807 6.06876279,1.3496807 C7.54894884,1.3496807 8.77034419,2.61564561 8.77034419,4.18285614 C8.77034419,4.42697895 8.73332093,4.6574 8.69666977,4.88878596 L8.69666977,4.88203158 C8.91825116,3.97269825 8.06671628,3.2241193 7.36420465,3.2241193 C6.95694884,3.2241193 6.58690233,3.44045263 6.36513488,3.75520702 C6.21666977,3.94452281 5.69890233,4.74887368 5.58764651,4.88878596 C5.36625116,5.09855789 5.06950698,5.24522456 4.73648372,5.24522456 C4.0336,5.24522456 3.36773953,4.62266316 3.36773953,3.63034737 L3.36773953,3.63671579" id="Fill-4" fill="#E54C3C"></path>
                            <polygon id="Fill-6" fill="#2C3E50" points="1.73992558 0.533345614 0.471646512 1.84890702 0.135460465 1.50018772 1.40373953 0.184433333"></polygon>
                            <polygon id="Fill-8" fill="#2C3E50" points="2.30532093 1.1198386 1.03704186 2.4354 0.700855814 2.0866807 1.96913488 0.770926316"></polygon>
                            <polygon id="Fill-10" fill="#2C3E50" points="10.3606512 0.533345614 11.6287442 1.84890702 11.9653023 1.50018772 10.6968372 0.184433333"></polygon>
                            <polygon id="Fill-12" fill="#2C3E50" points="9.79542326 1.1198386 11.0633302 2.4354 11.3998884 2.0866807 10.1314233 0.770926316"></polygon>
                            <polygon id="Fill-14" fill="#2C3E50" points="10.3602791 7.8242807 11.6287442 6.5087193 11.9649302 6.8574386 10.6968372 8.17319298"></polygon>
                            <polygon id="Fill-16" fill="#2C3E50" points="9.79506977 7.23778772 11.0633488 5.92222632 11.3995349 6.27094561 10.1314419 7.5867"></polygon>
                            <polygon id="Fill-18" fill="#2C3E50" points="1.73973953 7.8242807 0.471460465 6.5087193 0.135274419 6.8574386 1.40355349 8.17319298"></polygon>
                            <polygon id="Fill-20" fill="#2C3E50" points="2.30515349 7.23778772 1.03687442 5.92222632 0.700688372 6.27094561 1.96896744 7.5867"></polygon>
                        </g>
                    </g>
                </g>
            </g>
        </g>
    </g>
</svg>