<?xml version="1.0" encoding="utf-8"?>
<!-- Generator: Adobe Illustrator 22.1.0, SVG Export Plug-In . SVG Version: 6.00 Build 0)  -->
<svg version="1.1" id="map_pin_sp.svg" xmlns="http://www.w3.org/2000/svg" xmlns:xlink="http://www.w3.org/1999/xlink" x="0px"
	 y="0px" viewBox="0 0 30 44" style="enable-background:new 0 0 30 44;" xml:space="preserve">
<style type="text/css">
	.st0{fill:#232E48;}
	.st1{fill:#FFFFFF;}
</style>
<path class="st0" d="M15,0.2C6.7,0.2,0,7.2,0,16.7s14,27,15,27c1.4,0,15-17.5,15-27S23.3,0.2,15,0.2z"/>
<path id="シェイプ_1404" class="st1" d="M15,25l-1.4-1.4l1.4-1.4l1.4,1.4L15,25 M16.4,17.8L15,19.2l-1.4-1.4l-2.9,2.9l1.4,1.4
	l1.4-1.4l1.4,1.4l1.4-1.4l1.4,1.4l1.4-1.4L16.4,17.8 M15,18.5l-5.8-5.8L15,7l5.8,5.8L15,18.5 M19.7,20.3l-2.9-2.9l4.3-4.3L24,16
	L19.7,20.3 M13.2,17.4l-2.9,2.9L6,16l2.9-2.9L13.2,17.4"/>
</svg>
