<svg xmlns="http://www.w3.org/2000/svg" width="10" height="9.969" viewBox="0 0 10 9.969">
  <defs>
    <style>
      .cls-1 {
        fill: #fff;
        fill-rule: evenodd;
      }
    </style>
  </defs>
  <path id="star.svg" class="cls-1" d="M2524.24,728.148l1.27,3.157,3.25,0.293a0.273,0.273,0,0,1,.15.472l-2.47,2.244,0.74,3.339a0.259,0.259,0,0,1-.38.291l-2.8-1.77-2.8,1.77a0.259,0.259,0,0,1-.38-0.291l0.74-3.339-2.47-2.244a0.273,0.273,0,0,1,.14-0.472l3.26-.294,1.27-3.156A0.257,0.257,0,0,1,2524.24,728.148Z" transform="translate(-2519 -728)"/>
</svg>
