<?xml version="1.0" encoding="utf-8"?>
<!-- Generator: Adobe Illustrator 22.1.0, SVG Export Plug-In . SVG Version: 6.00 Build 0)  -->
<svg version="1.1" id="レイヤー_1" xmlns="http://www.w3.org/2000/svg" xmlns:xlink="http://www.w3.org/1999/xlink" x="0px"
	 y="0px" viewBox="0 0 16.4 16.3" style="enable-background:new 0 0 16.4 16.3;" xml:space="preserve">
<style type="text/css">
	.st0{fill:#FFFFFF;}
</style>
<path id="tel_sp.svg" class="st0" d="M16.2,12.8c0,0.3-0.1,0.5-0.2,0.7l-2.3,2.2c-0.1,0.1-0.2,0.2-0.4,0.3c-0.2,0.1-0.3,0.1-0.5,0.2
	c0,0-0.1,0-0.1,0c-0.1,0-0.1,0-0.2,0c-0.3,0-0.7-0.1-1-0.1c-0.6-0.1-1.2-0.3-1.8-0.5c-0.8-0.4-1.6-0.8-2.4-1.3c-1-0.7-2-1.5-2.8-2.4
	c-0.7-0.7-1.4-1.4-2-2.2C2.1,9,1.7,8.3,1.3,7.7C1,7.1,0.8,6.6,0.6,6C0.4,5.6,0.3,5.2,0.3,4.7c0-0.3-0.1-0.6-0.1-0.8
	c0-0.2,0-0.3,0-0.3c0-0.2,0.1-0.3,0.2-0.5c0.1-0.1,0.2-0.3,0.3-0.4l2.3-2.3C3,0.3,3.2,0.2,3.4,0.2c0.1,0,0.3,0,0.4,0.1
	C3.9,0.4,4,0.5,4.1,0.6l1.8,3.4C6,4.3,6.1,4.5,6,4.7c0,0.2-0.1,0.4-0.3,0.5L4.9,6c0,0,0,0.1-0.1,0.1c0,0,0,0.1,0,0.1
	C4.9,6.6,5,6.8,5.1,7.1c0.2,0.3,0.4,0.7,0.6,1C6.1,8.6,6.5,9,6.9,9.4c0.4,0.4,0.9,0.8,1.4,1.2c0.3,0.2,0.6,0.4,1,0.6
	c0.2,0.1,0.4,0.2,0.6,0.2l0.2,0c0,0,0.1,0,0.1,0c0,0,0.1,0,0.1-0.1l1-1c0.2-0.2,0.4-0.3,0.7-0.3c0.2,0,0.3,0,0.5,0.1h0l3.3,1.9
	C16,12.4,16.1,12.6,16.2,12.8z"/>
</svg>
