<svg xmlns="http://www.w3.org/2000/svg" width="12" height="12" viewBox="0 0 12 12">
  <defs>
    <style>
      .cls-1 {
        fill: #fff;
        fill-rule: evenodd;
      }
    </style>
  </defs>
  <path id="tel_pc.svg" class="cls-1" d="M4194.99,1060.47a0.577,0.577,0,0,1-.17.51l-1.69,1.68a1.142,1.142,0,0,1-.3.21,1.271,1.271,0,0,1-.36.12h-0.08a0.812,0.812,0,0,1-.17.01,6.726,6.726,0,0,1-.78-0.08,5.994,5.994,0,0,1-1.32-.41,11.56,11.56,0,0,1-1.77-.97,13.575,13.575,0,0,1-2.11-1.78,14.932,14.932,0,0,1-1.47-1.68,12.2,12.2,0,0,1-.94-1.48,7.719,7.719,0,0,1-.54-1.23,7.429,7.429,0,0,1-.24-0.96,3.135,3.135,0,0,1-.05-0.63c0.01-.15.01-0.23,0.01-0.25a1.271,1.271,0,0,1,.12-0.36,0.884,0.884,0,0,1,.21-0.3l1.69-1.69a0.57,0.57,0,0,1,.41-0.18,0.476,0.476,0,0,1,.29.09,1,1,0,0,1,.22.24l1.36,2.58a0.629,0.629,0,0,1,.06.45,0.741,0.741,0,0,1-.21.4l-0.63.63a0.191,0.191,0,0,0-.04.08,0.507,0.507,0,0,0-.02.09,2.123,2.123,0,0,0,.23.61,5.683,5.683,0,0,0,.47.75,8.113,8.113,0,0,0,.9,1.01,8.4,8.4,0,0,0,1.02.91,5.675,5.675,0,0,0,.74.47,1.648,1.648,0,0,0,.46.19l0.16,0.03c0.01,0,.04-0.01.08-0.02a0.293,0.293,0,0,0,.08-0.04l0.73-.74a0.748,0.748,0,0,1,.53-0.2,0.662,0.662,0,0,1,.34.07h0.01l2.46,1.45A0.639,0.639,0,0,1,4194.99,1060.47Z" transform="translate(-4183 -1051)"/>
</svg>
