<svg xmlns="http://www.w3.org/2000/svg" width="203" height="30" viewBox="0 0 203 30"><path fill="#FFF" fill-rule="evenodd" d="M56.284 13.407V6.903h2.026v16.133h-2.026v-7.745h-7.739v7.745H46.52V6.903h2.026v6.504h7.74zM77.13 14.97c0 4.794-3.816 8.41-8.515 8.41-4.7 0-8.516-3.616-8.516-8.41 0-4.622 3.859-8.41 8.516-8.41s8.515 3.788 8.515 8.41zm-2.026 0c0-3.552-2.673-6.526-6.489-6.526-3.817 0-6.49 2.974-6.49 6.526a6.504 6.504 0 0 0 6.49 6.527 6.504 6.504 0 0 0 6.489-6.527zm7.933 8.068H81.01V8.742h-3.86v-1.84h9.744v1.84h-3.858v14.295zM88.49 6.902h8.732v1.84h-6.706v4.516h6.51v1.84h-6.51v6.098h6.706v1.84H88.49V6.903zm13.258 14.294h4.937v1.84h-6.963V6.903h2.026v14.293zm16.555-8.816h-.043l-1.898 10.657h-2.09l3.318-16.82 5.585 12.711 5.583-12.711 3.32 16.82h-2.092l-1.897-10.657h-.043l-4.871 11-4.872-11zm14.12-5.478h2.327l3.99 6.89 3.988-6.89h2.327l-5.302 9.116v7.019h-2.027v-7.02l-5.304-9.115zm21.255 3.06c-.604-1.006-1.38-1.519-2.609-1.519-1.294 0-2.715.877-2.715 2.29 0 1.261 1.25 1.926 2.263 2.31l1.163.45c2.307.898 4.032 2.16 4.032 4.857 0 2.931-2.286 5.029-5.195 5.029-2.63 0-4.678-1.926-5.024-4.516l2.049-.427c-.023 1.776 1.401 3.06 3.147 3.06 1.745 0 2.997-1.456 2.997-3.146 0-1.733-1.402-2.482-2.803-3.06l-1.122-.471c-1.853-.791-3.533-1.84-3.533-4.087 0-2.61 2.327-4.172 4.785-4.172 1.81 0 3.297.877 4.18 2.439l-1.615.963zm8.73 13.075h-2.026V8.742h-3.858v-1.84h9.743v1.84h-3.859v14.295zm7.33-4.045l-1.852 4.044h-2.179l7.76-16.819 7.76 16.82h-2.177l-1.853-4.045h-7.459zm3.73-8.367l-2.89 6.527h5.779l-2.89-6.527zm6.143-3.723h2.328l3.988 6.89 3.987-6.89h2.329l-5.303 9.116v7.019h-2.026v-7.02l-5.303-9.115zm21.254 3.06c-.603-1.006-1.379-1.519-2.608-1.519-1.294 0-2.715.877-2.715 2.29 0 1.261 1.25 1.926 2.262 2.31l1.165.45c2.305.898 4.031 2.16 4.031 4.857 0 2.931-2.285 5.029-5.196 5.029-2.63 0-4.678-1.926-5.021-4.516l2.046-.427c-.02 1.776 1.401 3.06 3.147 3.06 1.747 0 2.998-1.456 2.998-3.146 0-1.733-1.401-2.482-2.803-3.06l-1.121-.471c-1.853-.791-3.535-1.84-3.535-4.087 0-2.61 2.327-4.172 4.786-4.172 1.81 0 3.298.877 4.182 2.439l-1.618.963zM15.108 30l-2.418-2.398 2.418-2.4 2.417 2.4L15.108 30zm2.417-11.996l4.835 4.8-2.418 2.398-2.417-2.399-2.417 2.4-2.417-2.4-2.417 2.4-2.417-2.4 4.834-4.799 2.417 2.4 2.417-2.4zm-2.41 1.19L5.449 9.598 15.116 0l9.67 9.597-9.67 9.598zm7.856 3l-4.833-4.799 7.25-7.198 4.834 4.8-7.251 7.197zm-10.885-4.792l-4.835 4.8L0 15.005l4.835-4.8 7.251 7.197z"/></svg>