<?xml version="1.0" standalone="no"?>
<!DOCTYPE svg PUBLIC "-//W3C//DTD SVG 1.1//EN" "http://www.w3.org/Graphics/SVG/1.1/DTD/svg11.dtd" >
<svg xmlns="http://www.w3.org/2000/svg">
<metadata>Generated by IcoMoon</metadata>
<defs>
<font id="icomoon" horiz-adv-x="1024">
<font-face units-per-em="1024" ascent="960" descent="-64" />
<missing-glyph horiz-adv-x="1024" />
<glyph unicode="&#x20;" horiz-adv-x="512" d="" />
<glyph unicode="&#xe900;" glyph-name="generation" d="M296.229 426.057c29.257 0 51.2 21.943 51.2 51.2s-21.943 51.2-51.2 51.2c-29.257 0-51.2-21.943-51.2-51.2 0-25.6 21.943-51.2 51.2-51.2zM522.971 287.086v0 0 0 0c21.943 0 36.571 18.286 36.571 36.571s-14.629 36.571-36.571 36.571v0 0 0 0c-18.286 0-36.571-18.286-36.571-36.571s14.629-36.571 36.571-36.571zM746.057 426.057c29.257 0 51.2 21.943 51.2 51.2s-21.943 51.2-51.2 51.2-51.2-21.943-51.2-51.2c0-25.6 21.943-51.2 51.2-51.2zM848.457 170.057v175.543c0 25.6-29.257 54.857-54.857 54.857h-7.314l-36.571-36.571-36.571 36.571c-21.943-3.657-43.886-18.286-54.857-36.571l-43.886-124.343c0-3.657-3.657-3.657-7.314-3.657s-7.314 0-7.314 3.657l-25.6 21.943c-7.314 7.314-18.286 10.971-29.257 10.971h-51.2c-10.971 0-21.943-3.657-29.257-10.971l-25.6-21.943c-3.657-3.657-7.314-3.657-7.314-3.657-3.657 0-7.314 3.657-7.314 3.657l-43.886 124.343c-10.971 25.6-36.571 40.229-62.171 40.229h-69.486c-25.6 0-54.857-29.257-54.857-54.857v-175.543c0-10.971 10.971-21.943 21.943-21.943 7.314 0 0 0 14.629 0l7.314-149.943c7.314-18.286 18.286-29.257 29.257-29.257 7.314 0 14.629 0 25.6 0s21.943 0 25.6 0 25.6 10.971 25.6 25.6l7.314 149.943v106.057c0 0 0 3.657 3.657 3.657 0 0 3.657 0 3.657-3.657l32.914-84.114c3.657-7.314 10.971-14.629 21.943-14.629 7.314 0 18.286 0 25.6 7.314l32.914 25.6h3.657l3.657-3.657v-95.086l7.314-106.057c0-10.971 7.314-18.286 18.286-18.286 3.657 0 10.971 0 18.286 0s14.629 0 18.286 0 18.286 7.314 18.286 18.286l7.314 106.057v95.086c0 0 0 3.657 3.657 3.657h3.657l32.914-25.6c7.314-7.314 14.629-7.314 25.6-7.314 7.314 0 14.629 7.314 21.943 14.629l32.914 84.114 3.657 3.657 3.657-3.657v-40.229l-36.571-109.714c0-3.657 0-3.657 0-7.314s3.657-3.657 7.314-3.657h29.257l7.314-95.086c0-14.629 10.971-25.6 25.6-25.6 7.314 0 14.629 0 25.6 0s21.943 0 25.6 0 25.6 10.971 25.6 25.6l7.314 95.086h32.914c3.657 0 3.657 0 7.314 3.657 0 3.657 3.657 3.657 0 7.314l-14.629 43.886c3.657 3.657 10.971 14.629 10.971 21.943zM303.543 374.857v-95.086h-25.6v95.086h25.6zM691.2 813.714c-7.314 21.943-18.286 29.257-18.286 14.629s-10.971-29.257 14.629-43.886c0 0 7.314-3.657 7.314-14.629 0-14.629 7.314-36.571 25.6-43.886 21.943-7.314-7.314-32.914 0-40.229 10.971-7.314 47.543-32.914 47.543-32.914l40.229 32.914-7.314 36.571c0 0 29.257 10.971 29.257 25.6s0 36.571 0 36.571 21.943 7.314 25.6 18.286-3.657 36.571-10.971 29.257c-7.314-7.314-14.629-10.971-14.629-10.971s-14.629 0-14.629 18.286 10.971 10.971 0 21.943c-3.657 3.657-14.629 18.286-14.629 21.943 3.657 3.657-32.914-25.6-62.171-29.257s-43.886-10.971-43.886-10.971 3.657-14.629 0-18.286c0-10.971-3.657-10.971-3.657-10.971zM914.286 594.286c0 3.657-3.657 51.2-14.629 65.829-7.314 10.971-25.6 14.629-47.543 18.286-3.657 0-7.314 0-10.971 3.657v0l-25.6 10.971c-3.657 3.657-3.657 10.971-7.314 21.943v0 3.657c10.971 3.657 18.286 7.314 25.6 21.943 3.657 10.971 7.314 21.943 7.314 36.571 10.971 3.657 29.257 18.286 25.6 43.886 0 7.314-3.657 14.629-7.314 14.629v7.314c3.657 7.314 7.314 21.943 3.657 40.229-3.657 21.943-25.6 25.6-36.571 29.257-3.657 7.314-18.286 25.6-58.514 32.914-47.543 7.314-95.086-32.914-95.086-32.914s-3.657-3.657 0-3.657l3.657-3.657h3.657l-3.657-3.657c-14.629-18.286-14.629-29.257-10.971-47.543 0-3.657 0-7.314 0-14.629v-3.657c-3.657-3.657-7.314-7.314-7.314-14.629-3.657-25.6 14.629-36.571 25.6-43.886 0-10.971 3.657-25.6 7.314-36.571s14.629-18.286 25.6-21.943v-3.657c0-7.314-3.657-18.286-7.314-21.943l-25.6-10.971c-3.657 0-7.314 0-10.971-3.657-21.943-3.657-40.229-7.314-47.543-18.286-3.657-14.629-7.314-62.171-7.314-65.829s0-7.314 3.657-10.971c18.286-18.286 84.114-29.257 142.629-29.257h3.657c54.857 0 124.343 10.971 142.629 29.257 3.657 3.657 3.657 7.314 3.657 10.971zM687.543 894.171c3.657 7.314 14.629 10.971 14.629 10.971 3.657 0 3.657 3.657 3.657 3.657 0 3.657-3.657 3.657-3.657 3.657h-7.314c14.629 10.971 47.543 29.257 76.8 21.943 21.943-3.657 36.571-10.971 43.886-18.286s10.971-10.971 10.971-10.971l3.657-3.657c0 0 29.257-3.657 29.257-21.943 3.657-14.629 0-29.257-3.657-36.571 0-3.657 0-3.657 0-3.657 0-3.657 0-3.657 0-3.657v0c0 0-3.657 0-7.314-3.657v0l-7.314-14.629-3.657 10.971v25.6c0 3.657 0 3.657-3.657 3.657-7.314 3.657-10.971 7.314-14.629 14.629 0 3.657-3.657 3.657-3.657 7.314l-3.657 3.657c0 0-3.657 0-3.657-3.657-3.657-3.657-14.629-14.629-54.857-25.6-25.6-7.314-47.543-10.971-47.543-10.971-10.971 3.657-10.971 3.657-10.971 0v-18.286c-3.657 3.657-3.657 3.657-7.314 7.314s-7.314 7.314-7.314 10.971 0 10.971 0 14.629c-3.657 14.629-3.657 21.943 7.314 36.571zM698.514 780.8c0 3.657 0 3.657-3.657 3.657-7.314 3.657-25.6 14.629-21.943 32.914 0 3.657 0 7.314 3.657 7.314l3.657-3.657c7.314-3.657 10.971-14.629 10.971-14.629l3.657-3.657c0 0 3.657 0 3.657 3.657l3.657 14.629v10.971c7.314 0 25.6 3.657 43.886 10.971 29.257 7.314 47.543 14.629 54.857 21.943v0c3.657-7.314 7.314-14.629 14.629-18.286v-21.943l7.314-21.943 3.657-3.657c0 0 3.657 0 3.657 3.657l10.971 21.943c0 0 0 0 3.657 0s3.657-7.314 3.657-10.971c3.657-18.286-14.629-29.257-21.943-32.914l-3.657-3.657c-3.657-29.257-7.314-47.543-25.6-51.2-10.971 0-7.314-10.971-7.314-18.286v0c0 0 0-14.629 7.314-21.943l-36.571-29.257-36.571 29.257c7.314 10.971 7.314 25.6 7.314 25.6v0c0 3.657 0 14.629-7.314 18.286-18.286 3.657-21.943 21.943-25.6 51.2zM698.514 674.743l21.943 7.314 36.571-29.257-25.6-21.943c-14.629 10.971-25.6 32.914-32.914 43.886zM764.343 583.314c-3.657 0-7.314 3.657-7.314 7.314s3.657 7.314 7.314 7.314 7.314-3.657 7.314-7.314 0-7.314-7.314-7.314zM764.343 616.229c-3.657 0-7.314 3.657-7.314 7.314s3.657 7.314 7.314 7.314 7.314-3.657 7.314-7.314 0-7.314-7.314-7.314zM800.914 630.857l-25.6 18.286 36.571 29.257 21.943-7.314c-7.314-7.314-21.943-29.257-32.914-40.229zM709.486 879.543v0c32.914 7.314 73.143 25.6 73.143 25.6s0 0 0 3.657c0 0 0 0-3.657 0 3.657 0-36.571-18.286-69.486-29.257 0 3.657 0 0 0 0v0zM702.171 861.257v0c32.914 7.314 73.143 18.286 73.143 18.286s0 0 0 3.657c0 0 0 0-3.657 0 3.657 0-36.571-10.971-69.486-21.943 0 3.657 0 3.657 0 0v0zM749.714 795.429c7.314 3.657 10.971 10.971 10.971 14.629 3.657 0 7.314 0 7.314 0v0c0-7.314 3.657-10.971 10.971-14.629 3.657 0 10.971-3.657 18.286-3.657s14.629 0 18.286 3.657 10.971 18.286 3.657 21.943c-3.657 7.314-29.257 7.314-40.229 3.657-7.314 0-7.314-3.657-7.314-7.314-3.657 0-7.314 0-7.314 0 0 3.657-3.657 3.657-7.314 7.314-10.971 3.657-32.914 3.657-40.229-3.657-3.657-7.314 0-18.286 3.657-21.943s10.971-3.657 18.286-3.657c3.657 0 7.314 0 10.971 3.657zM775.314 813.714c0 0 0 0 7.314 3.657 3.657 0 10.971 0 14.629 0 7.314 0 14.629 0 18.286-3.657s0-14.629-3.657-14.629c-3.657-3.657-21.943-3.657-25.6 0-7.314 3.657-10.971 7.314-10.971 14.629zM716.8 813.714c0 3.657 10.971 3.657 18.286 3.657 3.657 0 10.971 0 14.629 0 7.314 0 7.314-3.657 7.314-3.657 0-7.314-3.657-14.629-7.314-14.629-3.657-3.657-21.943-3.657-25.6 0-7.314 3.657-10.971 14.629-7.314 14.629zM789.943 773.486v0c-3.657-3.657-3.657-3.657-3.657-3.657s10.971-3.657 7.314-21.943c0 0 0-3.657 3.657-3.657v0c0 0 3.657 0 3.657 3.657 3.657 21.943-10.971 25.6-10.971 25.6zM248.686 861.257c3.657-7.314-14.629-29.257-18.286-29.257s-7.314-18.286-3.657-21.943c0-3.657-10.971 14.629-18.286 10.971s-21.943-14.629 0-43.886 14.629-14.629 14.629-32.914 21.943-21.943 21.943-25.6-3.657-25.6-3.657-29.257-14.629-3.657 14.629-29.257c14.629-10.971 58.514-3.657 73.143 10.971 14.629 18.286 3.657 21.943 3.657 29.257s-7.314 14.629 10.971 32.914c18.286 14.629 14.629 32.914 18.286 40.229 0 7.314 21.943 29.257 18.286 36.571-7.314 7.314-21.943 14.629-21.943 3.657s-10.971 14.629-10.971 14.629-7.314 7.314-21.943 7.314c-14.629 0-29.257-3.657-43.886 3.657s-32.914 21.943-32.914 21.943zM281.6 630.857c0-3.657 3.657-7.314 7.314-7.314s3.657 3.657 7.314 7.314c0 0-3.657 3.657-7.314 3.657s-7.314-3.657-7.314-3.657zM288.914 605.257c-3.657 0-7.314-3.657-7.314-7.314s3.657-3.657 7.314-7.314c3.657 0 7.314 3.657 7.314 7.314s-3.657 3.657-7.314 7.314zM431.543 601.6v0c-3.657 10.971-14.629 40.229-29.257 54.857-7.314 7.314-25.6 14.629-40.229 21.943-7.314 3.657-14.629 7.314-18.286 10.971 0 0-3.657 3.657-7.314 14.629 0 7.314-3.657 10.971-3.657 10.971v0c0 0 0 0 3.657 3.657 0 0 0 0 3.657 0v0c7.314-3.657 10.971-3.657 18.286-3.657 3.657 0 7.314 0 10.971 0 10.971 3.657 18.286 7.314 21.943 18.286 10.971 18.286 3.657 36.571-10.971 47.543 3.657 7.314 7.314 14.629 7.314 25.6 0 3.657 0 3.657 0 7.314 3.657 3.657 7.314 10.971 10.971 21.943 3.657 14.629 3.657 25.6 3.657 32.914-3.657 10.971-10.971 21.943-21.943 29.257-3.657 0-3.657 3.657-7.314 7.314-7.314 10.971-18.286 29.257-54.857 32.914-10.971 0-18.286 3.657-29.257 7.314-10.971 0-21.943 3.657-40.229 0-29.257-10.971-36.571-21.943-40.229-36.571-3.657-7.314-3.657-10.971-10.971-18.286-25.6-29.257-21.943-47.543-3.657-69.486 0-3.657-3.657-7.314-3.657-10.971 0-21.943 10.971-32.914 18.286-36.571v0c3.657-32.914 14.629-43.886 29.257-54.857 0 0 0 0 3.657 0 3.657-3.657 3.657-3.657 3.657-3.657v0c0 0 0-3.657-3.657-10.971-3.657-10.971-7.314-14.629-7.314-14.629-7.314-3.657-14.629-7.314-18.286-10.971-18.286-7.314-32.914-14.629-40.229-21.943-14.629-14.629-25.6-47.543-29.257-54.857v0c0-7.314 0-14.629 7.314-21.943v0c10.971-7.314 29.257-14.629 47.543-18.286 21.943-3.657 47.543-7.314 73.143-7.314 0 0 10.971 0 14.629 0h3.657c3.657 0 14.629 0 14.629 0 25.6 0 51.2 3.657 73.143 7.314 14.629 3.657 36.571 7.314 47.543 18.286v0c3.657 7.314 3.657 14.629 3.657 21.943zM380.343 740.571c-3.657-7.314-10.971-10.971-14.629-14.629-3.657 0-10.971 0-14.629 0 7.314 7.314 14.629 21.943 18.286 43.886v0l3.657 3.657c10.971-3.657 14.629-18.286 7.314-32.914zM208.457 886.857c3.657 3.657 7.314 10.971 10.971 18.286 3.657 10.971 7.314 21.943 32.914 29.257 14.629 3.657 25.6 0 36.571-3.657 7.314-3.657 18.286-3.657 29.257-7.314 32.914 0 40.229-14.629 43.886-25.6 3.657-3.657 7.314-7.314 10.971-10.971 18.286-10.971 25.6-25.6 14.629-43.886-3.657-10.971-7.314-18.286-10.971-21.943-3.657 0-7.314 0-14.629 0h-3.657v3.657c0 10.971 0 14.629-3.657 14.629h-3.657c-40.229-3.657-65.829 7.314-76.8 14.629-14.629 7.314-18.286 18.286-18.286 18.286 0 3.657-3.657 3.657-3.657 3.657-3.657 0-3.657-3.657-3.657-3.657s-3.657-25.6-18.286-29.257c-7.314 0-10.971-7.314-10.971-18.286v0c-7.314 3.657-14.629 3.657-18.286 3.657-14.629 18.286-14.629 29.257 7.314 58.514zM307.2 568.686c-3.657 0-10.971 0-14.629 0v0 0h-7.314c-3.657 0-10.971 0-14.629 0l-21.943 87.771c10.971-7.314 25.6-7.314 36.571-7.314 14.629 0 25.6 3.657 36.571 7.314l-14.629-87.771zM321.829 711.314c0-3.657 0-7.314 3.657-10.971 3.657-10.971 3.657-14.629 7.314-18.286l-3.657-10.971c-25.6-18.286-58.514-18.286-84.114 0v10.971c3.657 3.657 3.657 7.314 7.314 18.286 0 3.657 3.657 10.971 3.657 10.971 0 3.657 0 10.971-7.314 14.629 0 0 0 0-3.657 0-10.971 14.629-21.943 18.286-25.6 51.2 0 0 0 0 0 3.657l-3.657 3.657c-3.657 3.657-14.629 10.971-10.971 25.6 0 0 0 0 0 3.657s3.657 3.657 7.314 3.657c0-3.657 3.657-7.314 7.314-10.971 0-3.657 3.657-3.657 3.657-3.657 3.657 0 3.657 3.657 3.657 3.657 0 7.314 0 18.286 3.657 21.943 10.971 3.657 18.286 14.629 21.943 25.6 10.971-14.629 36.571-32.914 95.086-29.257 0-3.657 0-3.657 0-7.314s0-7.314 0-10.971 0-7.314 7.314-10.971v0c0 0 3.657 0 7.314 3.657 3.657 10.971 3.657 14.629 7.314 14.629s3.657 0 3.657-3.657v0c0-14.629-7.314-21.943-10.971-25.6l-3.657-3.657v-3.657c-3.657-32.914-14.629-36.571-25.6-47.543 0 0 0 0-3.657 0-7.314-7.314-7.314-14.629-7.314-18.286zM292.571 875.886c14.629-7.314 36.571-18.286 65.829-18.286v0 0 3.657c-54.857 0-87.771 32.914-91.429 32.914 0 0 0 0-3.657 0 0 0 0 0 0-3.657 3.657 0 10.971-7.314 29.257-14.629zM343.771 883.2v0c3.657 0 3.657 0 0 0 3.657 3.657 3.657 3.657 0 0-54.857 10.971-73.143 36.571-73.143 36.571s0 0-3.657 0c0 0 0 0 0-3.657 0 0 21.943-25.6 76.8-32.914z" />
<glyph unicode="&#xe901;" glyph-name="activity" d="M109.714 195.657l226.743 14.629 193.829 62.171 234.057 25.6 164.571 58.514v-237.714h-819.2zM391.314 685.714c25.6 0 43.886 21.943 43.886 43.886 3.657 25.6-18.286 47.543-43.886 47.543s-43.886-21.943-43.886-43.886c0-25.6 18.286-47.543 43.886-47.543zM288.914 495.543c18.286 0 36.571 14.629 40.229 36.571l10.971 113.371c3.657 21.943-14.629 40.229-36.571 43.886h-29.257c0 0-3.657 0-3.657 0-18.286 0-36.571-14.629-40.229-36.571l-10.971-113.371c0-10.971 3.657-21.943 7.314-29.257 7.314-7.314 14.629-14.629 25.6-14.629h36.571c-3.657 0 0 0 0 0zM256 532.114c0 0 0 3.657 0 3.657l10.971 113.371c0 3.657 3.657 7.314 7.314 7.314 0 0 0 0 0 0l29.257-3.657c3.657 0 7.314-3.657 7.314-7.314l-10.971-113.371c0-3.657-3.657-7.314-7.314-7.314l-29.257 3.657c-7.314 0-7.314 3.657-7.314 3.657zM596.114 305.371c0 0 0 0 0 0l-51.2 230.4c7.314 3.657 14.629 7.314 18.286 18.286 3.657 14.629-3.657 29.257-18.286 32.914-3.657 0-7.314 3.657-10.971 3.657l-3.657 18.286c0 3.657 0 3.657-3.657 3.657 0 0-3.657 0-3.657 0s0 0-3.657 0l-7.314-3.657c-3.657 0-7.314-3.657-7.314-10.971v-3.657c-14.629 3.657-25.6 7.314-29.257 10.971-7.314 7.314-54.857 54.857-58.514 54.857-7.314 7.314-14.629 10.971-21.943 10.971-21.943 3.657-43.886-14.629-47.543-36.571 0 0-3.657-21.943-7.314-58.514 0-7.314-7.314-91.429-7.314-102.4 3.657-65.829-7.314-109.714-14.629-120.686-3.657-10.971-47.543-87.771-54.857-95.086-7.314-10.971-7.314-29.257 7.314-36.571 3.657-3.657 10.971-3.657 14.629-3.657 7.314 0 14.629 3.657 21.943 10.971 7.314 10.971 54.857 95.086 62.171 106.057 7.314 14.629 14.629 51.2 18.286 102.4 0 0 0 0 0 0 14.629-14.629 29.257-32.914 32.914-36.571 7.314-14.629 21.943-91.429 21.943-106.057s10.971-25.6 25.6-25.6c14.629 0 25.6 14.629 25.6 29.257s-18.286 109.714-29.257 131.657c-7.314 10.971-32.914 40.229-51.2 58.514 0 14.629 3.657 73.143 7.314 87.771 0 3.657 0 10.971 0 14.629 10.971-7.314 18.286-14.629 18.286-18.286 10.971-7.314 47.543-18.286 73.143-25.6l51.2-237.714c0-7.314 7.314-10.971 10.971-10.971 0 0 0 0 3.657 0 0 0 3.657 0 3.657 0 14.629-3.657 14.629 0 14.629 7.314z" />
<glyph unicode="&#xe902;" glyph-name="airconditioner" d="M892.343 886.857h-749.714c-36.571 0-69.486-32.914-69.486-69.486v-453.486h892.343v453.486c0 36.571-32.914 69.486-73.143 69.486zM914.286 415.086h-87.771v58.514h-614.4v-58.514h-87.771v120.686h789.943v-120.686zM914.286 583.314h-789.943v234.057c0 10.971 7.314 18.286 18.286 18.286h749.714c10.971 0 18.286-7.314 18.286-18.286v-234.057h3.657zM457.143 682.057v-36.571h124.343v36.571zM618.057 221.257c10.971 0 21.943 0 32.914 0 0 0 0 0 0 0s0 0 0 0c-18.286 14.629-36.571 29.257-54.857 43.886-58.514-3.657-91.429-3.657-149.943 0-14.629-14.629-32.914-25.6-47.543-36.571-3.657-3.657-3.657-3.657-7.314-7.314 0 0 0 0 0 0s0 0 0 0c73.143-3.657 149.943-3.657 226.743 0zM724.114 115.2c14.629 0 32.914 3.657 47.543 3.657 0 0 0 0 0 0s0 0 0 0c-25.6 18.286-51.2 32.914-73.143 51.2-58.514-3.657-120.686-7.314-179.2-7.314s-120.686 3.657-179.2 7.314c-18.286-14.629-36.571-25.6-54.857-36.571-7.314-3.657-10.971-7.314-18.286-10.971 0 0 0 0 0 0s0 0 0 0c153.6-14.629 303.543-18.286 457.143-7.314zM961.829 20.114c-32.914 18.286-62.171 36.571-95.086 54.857-117.029-14.629-230.4-21.943-347.429-21.943-113.371 0-230.4 7.314-347.429 21.943-32.914-18.286-62.171-36.571-95.086-54.857-7.314-3.657-3.657-14.629 3.657-14.629 296.229-43.886 581.486-43.886 877.714 0 7.314 0 7.314 10.971 3.657 14.629z" />
<glyph unicode="&#xe903;" glyph-name="airpurifier" d="M753.371 532.114c-69.486 21.943-146.286 29.257-219.429 29.257s-149.943-10.971-219.429-29.257c-7.314 0-10.971-7.314-10.971-14.629v-449.829c0-7.314 7.314-14.629 14.629-14.629h40.229v-18.286c0-7.314 3.657-10.971 10.971-10.971h51.2c7.314 0 10.971 3.657 10.971 10.971v18.286h201.143v-18.286c0-7.314 3.657-10.971 10.971-10.971h51.2c7.314 0 10.971 3.657 10.971 10.971v18.286h40.229c7.314 0 14.629 7.314 14.629 14.629v449.829c3.657 7.314 0 10.971-7.314 14.629zM727.771 89.6h-387.657v409.6c62.171 14.629 128 25.6 193.829 25.6s131.657-7.314 193.829-25.6v-409.6zM570.514 480.914h-73.143c-7.314 0-10.971-3.657-10.971-10.971v-256c0-7.314 3.657-10.971 10.971-10.971h73.143c7.314 0 10.971 3.657 10.971 10.971v256c0 7.314-7.314 10.971-10.971 10.971zM533.943 327.314c-10.971 0-18.286 7.314-18.286 18.286s7.314 18.286 18.286 18.286c10.971 0 18.286-7.314 18.286-18.286 0-7.314-7.314-18.286-18.286-18.286zM533.943 400.457c-10.971 0-18.286 7.314-18.286 18.286s7.314 18.286 18.286 18.286c10.971 0 18.286-7.314 18.286-18.286s-7.314-18.286-18.286-18.286zM409.6 700.343c0-14.629-10.971-25.6-25.6-25.6s-25.6 10.971-25.6 25.6c0 14.629 10.971 25.6 25.6 25.6 14.629-3.657 25.6-14.629 25.6-25.6zM387.657 857.6c0-18.286-14.629-29.257-29.257-29.257-18.286 0-29.257 14.629-29.257 29.257-3.657 14.629 10.971 29.257 29.257 29.257 14.629 0 29.257-14.629 29.257-29.257zM519.314 649.143c0-10.971-10.971-21.943-21.943-21.943s-21.943 10.971-21.943 21.943c0 10.971 10.971 18.286 21.943 18.286s21.943-7.314 21.943-18.286zM709.486 674.743c0-14.629-10.971-25.6-25.6-25.6s-25.6 10.971-25.6 25.6 10.971 25.6 25.6 25.6c14.629 0 25.6-10.971 25.6-25.6zM504.686 773.486c0-14.629-10.971-25.6-25.6-25.6s-25.6 10.971-25.6 25.6c0 14.629 10.971 25.6 25.6 25.6 10.971 3.657 25.6-10.971 25.6-25.6zM318.171 773.486c0-14.629-10.971-25.6-25.6-25.6s-25.6 10.971-25.6 25.6c0 14.629 10.971 25.6 25.6 25.6 10.971 3.657 25.6-10.971 25.6-25.6zM629.029 846.629c0-18.286-14.629-29.257-29.257-29.257-18.286 0-29.257 14.629-29.257 29.257 0 18.286 14.629 29.257 29.257 29.257s29.257-14.629 29.257-29.257zM614.4 722.286c0-14.629-10.971-25.6-25.6-25.6s-25.6 10.971-25.6 25.6c0 14.629 10.971 25.6 25.6 25.6s25.6-10.971 25.6-25.6zM804.571 802.743c0-18.286-14.629-29.257-29.257-29.257-18.286 0-29.257 14.629-29.257 29.257 0 18.286 14.629 29.257 29.257 29.257 14.629 3.657 29.257-10.971 29.257-29.257z" />
<glyph unicode="&#xe904;" glyph-name="alarmclock" d="M632.686 298.057c-7.314 7.314-36.571 29.257-69.486 47.543 0 0 0 0 0 3.657 0 10.971-3.657 21.943-14.629 29.257 7.314 36.571 18.286 76.8 18.286 84.114 0 14.629-18.286 65.829-25.6 80.457l-7.314 29.257-14.629-32.914c-7.314-14.629-25.6-65.829-25.6-80.457 0-10.971 7.314-47.543 14.629-84.114-7.314-7.314-14.629-18.286-14.629-29.257 0-18.286 14.629-36.571 36.571-36.571 0 0 3.657 0 3.657 0 18.286-29.257 40.229-62.171 43.886-69.486 10.971-10.971 58.514-32.914 73.143-40.229l32.914-14.629-14.629 32.914c-3.657 18.286-25.6 65.829-36.571 80.457zM153.6 554.057l3.657-7.314c3.657 3.657 3.657 7.314 7.314 10.971 7.314 10.971 10.971 18.286 18.286 29.257 58.514 91.429 153.6 153.6 263.314 175.543 10.971 3.657 21.943 3.657 32.914 3.657 3.657 0 7.314 0 10.971 0 0 0 0 0 3.657 0v0c0 0 0 0 0 0l-7.314 10.971c-32.914 36.571-80.457 62.171-131.657 65.829-3.657 0-7.314 0-14.629 0-40.229 0-76.8-10.971-109.714-29.257-69.486-43.886-109.714-124.343-91.429-212.114 3.657-14.629 7.314-32.914 14.629-47.543zM833.829 806.4c-32.914 21.943-69.486 32.914-109.714 32.914-3.657 0-7.314 0-14.629 0-47.543-3.657-95.086-25.6-131.657-62.171l-7.314-7.314c0 0 0 0 0 0v0c3.657 0 7.314 0 14.629 0 10.971 0 21.943-3.657 32.914-7.314 109.714-21.943 201.143-87.771 263.314-179.2 7.314-10.971 10.971-18.286 18.286-29.257 3.657-3.657 3.657-7.314 7.314-10.971l3.657 7.314c7.314 14.629 10.971 29.257 14.629 47.543 14.629 80.457-21.943 160.914-91.429 208.457zM859.429 546.743c0 3.657 0 3.657 0 0-3.657 7.314-7.314 10.971-10.971 14.629-54.857 84.114-142.629 142.629-241.371 164.571-10.971 3.657-21.943 3.657-29.257 3.657-14.629 3.657-32.914 3.657-47.543 3.657s-32.914 0-47.543-3.657c-10.971 0-21.943-3.657-29.257-3.657-102.4-18.286-186.514-76.8-245.029-160.914-3.657-3.657-3.657-7.314-7.314-10.971 0 0 0-3.657-3.657-3.657-3.657-3.657-3.657-7.314-7.314-10.971-32.914-54.857-51.2-120.686-54.857-193.829 0-76.8 21.943-149.943 58.514-212.114 3.657-3.657 3.657-7.314 7.314-10.971-10.971-3.657-18.286-10.971-29.257-18.286-3.657-3.657-7.314-7.314-7.314-7.314-7.314-7.314-18.286-25.6-18.286-47.543 0-47.543 36.571-87.771 87.771-87.771 32.914 0 62.171 18.286 76.8 47.543 0 3.657 3.657 7.314 3.657 10.971 0 0 0 0 0 0 3.657-3.657 7.314-3.657 10.971-7.314 14.629-7.314 29.257-14.629 43.886-21.943 3.657 0 7.314-3.657 10.971-3.657s7.314-3.657 10.971-3.657c3.657 0 7.314-3.657 10.971-3.657s7.314-3.657 10.971-3.657c32.914-10.971 69.486-14.629 106.057-14.629s73.143 3.657 106.057 14.629c10.971 3.657 21.943 7.314 36.571 10.971 3.657 0 7.314 3.657 10.971 3.657 14.629 7.314 29.257 14.629 43.886 21.943 3.657 3.657 7.314 3.657 10.971 7.314v0c0-3.657 0-3.657 3.657-7.314 14.629-29.257 43.886-47.543 76.8-47.543 47.543 0 87.771 36.571 87.771 87.771 0 21.943-7.314 40.229-18.286 54.857-3.657 3.657-3.657 7.314-7.314 10.971-7.314 7.314-14.629 10.971-21.943 14.629 0 0 0 0 0 0 40.229 62.171 65.829 135.314 65.829 215.771 0 69.486-18.286 135.314-47.543 193.829 0-3.657-3.657 0-7.314 3.657zM855.771 345.6c0-76.8-29.257-149.943-73.143-204.8-32.914-40.229-76.8-73.143-124.343-95.086-3.657-3.657-10.971-3.657-14.629-7.314 0 0 0 0 0 0-25.6-7.314-51.2-14.629-80.457-18.286 0 0 0 0 0 0-10.971 0-21.943 0-32.914 0-3.657 0-7.314 0-10.971 0s-7.314 0-10.971 0-14.629 0-25.6 3.657c-3.657 0-7.314 0-7.314 0-7.314 0-14.629 3.657-25.6 3.657-3.657 0-3.657 0-7.314 3.657-7.314 3.657-14.629 3.657-21.943 7.314-3.657 0-7.314 3.657-10.971 3.657s-7.314 3.657-10.971 3.657c-47.543 21.943-91.429 54.857-124.343 95.086-43.886 54.857-69.486 128-69.486 204.8 0 51.2 14.629 102.4 36.571 146.286 3.657 7.314 7.314 18.286 14.629 25.6 51.2 80.457 131.657 135.314 230.4 149.943 10.971 0 18.286 3.657 29.257 3.657 7.314 0 14.629 0 21.943 0s14.629 0 21.943 0c10.971 0 18.286-3.657 29.257-3.657 95.086-14.629 179.2-73.143 226.743-153.6 3.657-7.314 10.971-14.629 14.629-25.6 10.971-40.229 25.6-91.429 25.6-142.629zM574.171 627.2c-14.629 3.657-29.257 3.657-43.886 3.657s-29.257 0-43.886-3.657c-80.457-10.971-153.6-58.514-197.486-128-29.257-43.886-43.886-95.086-43.886-149.943 0-76.8 29.257-146.286 80.457-201.143 18.286-18.286 40.229-36.571 62.171-47.543 40.229-25.6 87.771-36.571 138.971-36.571 47.543 0 95.086 10.971 138.971 32.914 21.943 10.971 43.886 29.257 62.171 47.543 54.857 51.2 84.114 124.343 84.114 197.486 0 51.2-14.629 106.057-40.229 149.943-43.886 73.143-117.029 120.686-197.486 135.314zM775.314 345.6c0-128-102.4-234.057-226.743-245.029 0 0 0 0 0 0-7.314 0-18.286 0-25.6 0-138.971 0-248.686 113.371-245.029 252.343 0 54.857 21.943 109.714 54.857 153.6 32.914 40.229 76.8 69.486 128 84.114 3.657 0 7.314 3.657 14.629 3.657 0 0 3.657 0 3.657 0 14.629 3.657 32.914 3.657 51.2 3.657 21.943 0 43.886-3.657 65.829-10.971 51.2-14.629 95.086-43.886 128-87.771 36.571-43.886 54.857-98.743 51.2-153.6zM479.086 842.971h36.571v-76.8h40.229v76.8h36.571c14.629 0 29.257 10.971 29.257 29.257v10.971c0 14.629-10.971 29.257-29.257 29.257h-109.714c-14.629 0-29.257-10.971-29.257-29.257v-10.971c-3.657-18.286 10.971-29.257 25.6-29.257z" />
<glyph unicode="&#xe905;" glyph-name="arw" d="M783.059 682.918l-42.165-48.188 156.612-156.612h-891.482v-60.235h891.482l-156.612-156.612 42.165-48.188 234.918 234.918z" />
<glyph unicode="&#xe906;" glyph-name="babycot" d="M219.429 777.143c0 40.229-32.914 73.143-73.143 73.143s-73.143-32.914-73.143-73.143c0-40.229 32.914-73.143 73.143-73.143s73.143 32.914 73.143 73.143zM877.714 850.286c-40.229 0-73.143-32.914-73.143-73.143s32.914-73.143 73.143-73.143c40.229 0 73.143 32.914 73.143 73.143s-32.914 73.143-73.143 73.143zM877.714 682.057c-14.629 0-29.257 3.657-40.229 7.314v-95.086h-650.971v95.086c-10.971-7.314-25.6-7.314-40.229-7.314s-29.257 3.657-40.229 18.286v-585.143c0-21.943 10.971-29.257 21.943-29.257h40.229c10.971 0 21.943 10.971 21.943 21.943v47.543h650.971v-51.2c0-10.971 10.971-21.943 21.943-21.943h40.229c10.971 0 21.943 10.971 21.943 29.257v585.143c-21.943-14.629-32.914-14.629-47.543-14.629zM256 265.143h-69.486v91.429h69.486v-91.429zM256 396.8h-69.486v138.971h69.486v-138.971zM373.029 265.143h-76.8v91.429h76.8v-91.429zM373.029 396.8h-76.8v138.971h76.8v-138.971zM493.714 265.143h-76.8v91.429h76.8v-91.429zM493.714 396.8h-76.8v138.971h76.8v-138.971zM610.743 265.143h-76.8v91.429h76.8v-91.429zM610.743 396.8h-76.8v138.971h76.8v-138.971zM727.771 265.143h-76.8v91.429h76.8v-91.429zM727.771 396.8h-76.8v138.971h76.8v-138.971zM837.486 265.143h-65.829v91.429h65.829v-91.429zM837.486 396.8h-65.829v138.971h65.829v-138.971z" />
<glyph unicode="&#xe907;" glyph-name="babysitterservice" d="M870.4 448c-29.257 32.914-69.486 54.857-109.714 54.857v-153.6h153.6c0 32.914-18.286 69.486-43.886 98.743zM702.171 195.657c0-22.218-18.011-40.229-40.229-40.229s-40.229 18.011-40.229 40.229c0 22.218 18.011 40.229 40.229 40.229s40.229-18.011 40.229-40.229zM870.4 195.657c0-22.218-18.011-40.229-40.229-40.229s-40.229 18.011-40.229 40.229c0 22.218 18.011 40.229 40.229 40.229s40.229-18.011 40.229-40.229zM720.457 396.8c0-26.257-21.286-47.543-47.543-47.543s-47.543 21.286-47.543 47.543c0 26.257 21.286 47.543 47.543 47.543s47.543-21.286 47.543-47.543zM274.286 371.2c-3.657 3.657-7.314 7.314-10.971 10.971-10.971 7.314-18.286 14.629-29.257 25.6l-10.971-54.857-91.429-142.629c-10.971-14.629-7.314-32.914 7.314-43.886 7.314-3.657 14.629-7.314 21.943-7.314v0c10.971 0 18.286 3.657 25.6 10.971 0 0 113.371 146.286 113.371 146.286l10.971 32.914-36.571 21.943zM610.743 455.314c0 36.571-21.943 58.514-43.886 69.486 0-7.314 0-14.629-3.657-25.6 0-3.657-3.657-7.314-7.314-10.971 7.314-7.314 18.286-18.286 18.286-32.914v-128c3.657-36.571 14.629-73.143 32.914-106.057 10.971 21.943 32.914 36.571 54.857 36.571 29.257 0 54.857-21.943 58.514-51.2h47.543c3.657 29.257 29.257 51.2 58.514 51.2 21.943 0 43.886-14.629 54.857-32.914 14.629 29.257 25.6 62.171 29.257 98.743h-303.543v131.657zM530.286 543.086l-80.457 29.257-65.829 80.457c-14.629 14.629-25.6 25.6-43.886 29.257-3.657 0-7.314 0-10.971 0-29.257 0-54.857-21.943-58.514-51.2l-29.257-157.257c-7.314-43.886 14.629-58.514 36.571-76.8 3.657-3.657 7.314-7.314 14.629-10.971l87.771-62.171 32.914-142.629c3.657-14.629 18.286-25.6 32.914-25.6 0 0 3.657 0 3.657 0 18.286 3.657 32.914 21.943 29.257 40.229l-25.6 157.257c0 7.314-7.314 14.629-10.971 21.943l-91.429 76.8 25.6 98.743 25.6-29.257c3.657-3.657 7.314-7.314 14.629-7.314l95.086-21.943c3.657 0 3.657 0 7.314 0 0 0 0 0 0 0 10.971 0 21.943 7.314 25.6 18.286 7.314 10.971 0 29.257-14.629 32.914zM394.971 758.857c0-30.297-24.56-54.857-54.857-54.857s-54.857 24.56-54.857 54.857c0 30.297 24.56 54.857 54.857 54.857s54.857-24.56 54.857-54.857z" />
<glyph unicode="&#xe908;" glyph-name="babysittingamenityset" d="M427.886 265.143c0-29.257-14.629-58.514-36.571-80.457-25.6-25.6-54.857-36.571-87.771-36.571s-62.171 10.971-87.771 36.571c-25.6 25.6-36.571 54.857-36.571 87.771s10.971 62.171 36.571 87.771c21.943 21.943 51.2 32.914 80.457 36.571 0 25.6 7.314 47.543 21.943 69.486-3.657 0-10.971 0-14.629 0-51.2 0-98.743-18.286-135.314-54.857s-58.514-87.771-58.514-135.314c0-51.2 18.286-98.743 58.514-135.314 36.571-36.571 87.771-58.514 135.314-58.514 51.2 0 98.743 18.286 135.314 58.514 36.571 36.571 58.514 87.771 58.514 135.314 0 3.657 0 10.971 0 14.629-21.943-18.286-47.543-25.6-69.486-25.6zM486.4 338.286l-117.029 117.029c-32.914-32.914-32.914-84.114 0-117.029 32.914-29.257 84.114-29.257 117.029 0zM336.457 674.743c-10.971 10.971-29.257 10.971-40.229 0l-21.943-21.943c-10.971-10.971-10.971-29.257 0-40.229l376.686-376.686c10.971-10.971 29.257-10.971 40.229 0l21.943 21.943c10.971 10.971 10.971 29.257 0 40.229l-376.686 376.686zM826.514 795.429c-69.486 69.486-179.2 69.486-248.686 0s-36.571-171.886-91.429-219.429l120.686-120.686c47.543 54.857 153.6 21.943 219.429 91.429 69.486 69.486 69.486 179.2 0 248.686zM596.114 740.571c3.657 7.314 10.971 14.629 14.629 18.286 47.543 47.543 128 47.543 179.2 0 7.314-3.657 10.971-10.971 14.629-18.286h-208.457z" />
<glyph unicode="&#xe909;" glyph-name="bathroomamenities" d="M319.633 570.199c10.507-17.251 12.032-35.494 3.407-40.748s-24.135 4.472-34.642 21.723c-10.507 17.251-12.032 35.494-3.407 40.748s24.135-4.472 34.642-21.723zM212.165 749.991c10.507-17.251 12.032-35.494 3.407-40.748s-24.135 4.472-34.642 21.723c-10.507 17.251-12.032 35.494-3.407 40.748s24.135-4.472 34.642-21.723zM196.061 729.998l9.371 5.707 108.439-178.043-9.371-5.707-108.439 178.043zM373.458 604.396c10.507-17.251 12.032-35.494 3.407-40.748s-24.135 4.472-34.642 21.723c-10.507 17.251-12.032 35.494-3.407 40.748s24.135-4.472 34.642-21.723zM264.769 779.163c10.507-17.251 12.032-35.494 3.407-40.748s-24.135 4.472-34.642 21.723c-10.507 17.251-12.032 35.494-3.407 40.748s24.135-4.472 34.642-21.723zM246.762 762.293l9.371 5.707 108.439-178.043-9.371-5.707-108.439 178.043zM426.058 633.568c10.507-17.251 12.032-35.494 3.407-40.748s-24.135 4.472-34.642 21.723c-10.507 17.251-12.032 35.494-3.407 40.748s24.135-4.472 34.642-21.723zM315.466 811.458c10.507-17.251 12.032-35.494 3.407-40.748s-24.135 4.472-34.642 21.723c-10.507 17.251-12.032 35.494-3.407 40.748s24.135-4.472 34.642-21.723zM297.46 794.588l9.371 5.707 108.439-178.043-9.371-5.707-108.439 178.043zM476.759 665.863c10.507-17.251 12.032-35.494 3.407-40.748s-24.135 4.472-34.642 21.723c-10.507 17.251-12.032 35.494-3.407 40.748s24.135-4.472 34.642-21.723zM369.291 845.656c10.507-17.251 12.032-35.494 3.407-40.748s-24.135 4.472-34.642 21.723c-10.507 17.251-12.032 35.494-3.407 40.748s24.135-4.472 34.642-21.723zM353.183 825.662l9.371 5.707 108.439-178.043-9.371-5.707-108.439 178.043zM544.914 821.029c0-3.657 0-3.657 0 0 0-3.657 0-3.657 0 0 0-3.657 0-7.314 0-10.971 0 0 0 0 0 0s0 0 0-3.657c0 0 0-3.657 0-3.657v0c0 0 0 0 0 0l47.543 47.543 7.314-7.314-43.886-47.543c0 0 3.657-3.657 3.657-3.657s0 0 0 0v0c0 0 0 0 0 0l47.543 47.543 7.314-7.314-43.886-47.543c0 0 0 0 3.657-3.657l43.886 43.886 7.314-7.314-43.886-47.543 3.657-3.657 43.886 47.543 7.314-7.314-43.886-47.543 3.657-3.657 47.543 47.543 7.314-7.314-43.886-47.543 3.657-7.314 47.543 47.543 7.314-7.314-43.886-47.543v-3.657l47.543 47.543 7.314-7.314-43.886-47.543 3.657-3.657 47.543 47.543 7.314-7.314-43.886-47.543v-7.314l47.543 47.543 7.314-7.314-43.886-47.543v-3.657l47.543 47.543 7.314-7.314-43.886-47.543 3.657-3.657 47.543 47.543 7.314-7.314-43.886-47.543v-7.314l47.543 47.543 7.314-7.314-43.886-47.543 3.657-3.657 43.886 47.543 7.314-7.314-43.886-47.543 3.657-3.657 47.543 47.543 7.314-7.314-43.886-47.543 3.657-7.314c0 0 40.229 25.6 58.514 7.314 14.629-14.629 43.886-80.457 69.486-102.4 18.286-18.286 58.514-10.971 62.171 21.943 3.657 43.886-117.029 120.686-117.029 135.314-3.657 18.286-138.971 186.514-182.857 186.514-25.6 3.657-65.829-51.2-69.486-58.514zM870.4 554.057c-3.657 3.657-3.657 14.629 0 18.286s14.629 3.657 18.286 0c3.657-3.657 3.657-14.629 0-18.286-7.314-3.657-14.629-3.657-18.286 0zM299.886 360.229h-18.286v-29.257h21.943c40.229 0 73.143-32.914 73.143-73.143v-201.143c-7.314-7.314-51.2-18.286-124.343-18.286s-117.029 10.971-124.343 18.286v201.143c0 40.229 32.914 69.486 73.143 73.143h18.286v29.257h-21.943c-58.514 0-102.4-43.886-102.4-98.743v-204.8c0-40.229 117.029-43.886 153.6-43.886s153.6 3.657 153.6 43.886v204.8c0 51.2-43.886 95.086-102.4 98.743zM197.486 210.286c-10.971 0-18.286 3.657-25.6 10.971-7.314 3.657-14.629 7.314-25.6 7.314 0 0 0 0 0 0v0c0 0 0 0 0 0v-160.914c14.629-3.657 47.543-10.971 106.057-10.971 54.857 0 91.429 7.314 106.057 10.971v160.914c-14.629 0-21.943-3.657-25.6-10.971-7.314-3.657-10.971-10.971-25.6-10.971-7.314 0-14.629 3.657-18.286 3.657 0 0 0 0-3.657 0v0c0 0 0 0 0 0v-65.829l-10.971-3.657-29.257-10.971-18.286-7.314-7.314 3.657v87.771c0 0 0 0 0 0v0c-7.314 0-14.629-3.657-21.943-3.657zM109.714 407.771l25.6 25.6h47.543v-43.886h51.2v-237.714l29.257 10.971v226.743h43.886v80.457c0 14.629-10.971 25.6-25.6 25.6h-73.143c-14.629 0-25.6-10.971-25.6-25.6v-10.971h-54.857l-32.914-32.914c-3.657-3.657-3.657-10.971 0-18.286 3.657-3.657 3.657-3.657 7.314-3.657s7.314 0 7.314 3.657zM965.486 393.143l-32.914 25.6-3.657-3.657-58.514 51.2-98.743-117.029 58.514-51.2-10.971-14.629 14.629-14.629c7.314-7.314 0-21.943-10.971-36.571-7.314-7.314-18.286-14.629-25.6-14.629s-14.629-3.657-18.286-10.971l-135.314-149.943c-7.314-10.971-7.314-21.943 3.657-29.257s29.257-18.286 47.543 3.657l171.886 208.457 98.743 117.029c10.971 10.971 10.971 29.257 0 36.571zM837.486 312.686l-43.886 36.571 10.971 10.971 21.943-14.629 3.657 3.657-18.286 18.286 7.314 10.971 21.943-14.629 3.657 3.657-18.286 18.286 7.314 10.971 21.943-14.629 3.657 3.657-18.286 18.286 7.314 10.971 25.6-14.629 3.657 3.657-18.286 18.286 10.971 10.971 43.886-36.571-76.8-84.114zM687.543 451.657l7.314 21.943-164.571 43.886-14.629 3.657-43.886-263.314 128-32.914 87.771 226.743zM508.343 283.429l29.257 186.514 3.657 18.286 113.371-29.257-73.143-193.829-73.143 18.286zM713.143 528.457c3.657 14.629-3.657 25.6-14.629 29.257l-142.629 36.571c-14.629 3.657-25.6-3.657-29.257-18.286l-3.657-25.6 182.857-47.543 7.314 25.6zM592.457 202.971l-124.343 32.914-7.314-21.943c-7.314-29.257 10.971-54.857 36.571-62.171l25.6-7.314c29.257-7.314 54.857 10.971 62.171 36.571l7.314 21.943z" />
<glyph unicode="&#xe90a;" glyph-name="bathtowel" d="M109.714 758.857c0 10.971-7.314 18.286-18.286 18.286s-18.286-7.314-18.286-18.286c0-62.171 43.886-117.029 102.4-131.657v36.571c-36.571 14.629-65.829 51.2-65.829 95.086zM201.143 455.314v0h435.2l-3.657 164.571v36.571l-3.657 91.429v7.314h-394.971c-14.629 3.657-25.6-7.314-25.6-21.943l-3.657-73.143v-36.571l-3.657-160.914v-7.314zM197.486 345.6v0h442.514l-3.657 84.114h-438.857v-84.114zM640 305.371v14.629h-442.514v-14.629l-3.657-168.229c0-18.286 18.286-25.6 32.914-18.286l29.257 18.286c7.314 3.657 14.629 3.657 21.943 0l51.2-36.571c7.314-3.657 14.629-3.657 21.943 0l51.2 36.571c7.314 3.657 14.629 3.657 21.943 0l51.2-36.571c7.314-3.657 14.629-3.657 21.943 0l51.2 36.571c7.314 3.657 14.629 3.657 21.943 0l32.914-21.943c14.629-10.971 32.914 0 32.914 18.286l-3.657 76.8 7.314 95.086zM881.371 751.543c-58.514 3.657-109.714-36.571-117.029-95.086h-62.171l-18.286 40.229-14.629 36.571 3.657-76.8v-36.571l7.314-314.514 102.4 36.571c25.6 10.971 40.229 40.229 29.257 65.829l-65.829 153.6-25.6 62.171h47.543c7.314-54.857 54.857-95.086 109.714-95.086 62.171 0 113.371 51.2 113.371 117.029-3.657 54.857-51.2 102.4-109.714 106.057zM874.057 565.029c-36.571 0-65.829 25.6-73.143 54.857 0 7.314-3.657 10.971-3.657 18.286s0 14.629 3.657 18.286c7.314 32.914 36.571 54.857 73.143 54.857 40.229 3.657 76.8-29.257 76.8-73.143 0-40.229-36.571-73.143-76.8-73.143zM874.057 693.029c-21.943 0-43.886-14.629-51.2-36.571-3.657-7.314-3.657-10.971-3.657-18.286s0-14.629 3.657-18.286c7.314-21.943 25.6-36.571 51.2-36.571 29.257 0 54.857 25.6 54.857 54.857s-25.6 54.857-54.857 54.857z" />
<glyph unicode="&#xe90b;" glyph-name="bedguard" d="M804.571 82.286v29.257c0 3.657 3.657 464.457 0 530.286-3.657 51.2-43.886 58.514-47.543 58.514-14.629 0-479.086 36.571-563.2 40.229-25.6 0-47.543-3.657-54.857-14.629-10.971-7.314-10.971-18.286-10.971-21.943v0 0-493.714l186.514 84.114c7.314 3.657 18.286 0 21.943-7.314s0-18.286-7.314-21.943l-230.4-106.057v544.914c0 3.657 0 25.6 18.286 43.886s43.886 25.6 80.457 21.943c84.114-7.314 559.543-40.229 563.2-40.229v0c25.6-3.657 73.143-21.943 76.8-87.771 3.657-58.514 0-402.286 0-504.686l149.943 91.429c7.314 3.657 18.286 3.657 21.943-3.657s3.657-18.286-3.657-21.943l-201.143-120.686zM822.857 338.286c-3.657 0-3.657 0 0 0l-709.486 62.171c-7.314 0-14.629 7.314-14.629 18.286 0 7.314 7.314 14.629 18.286 14.629l705.829-62.171c7.314 0 14.629-7.314 14.629-18.286-3.657-10.971-7.314-14.629-14.629-14.629zM314.514 382.171c-7.314 0-14.629 7.314-14.629 14.629-3.657 3.657-7.314 274.286-7.314 299.886 0 14.629 0 21.943-32.914 25.6-7.314 0-29.257 0-32.914-21.943v-296.229c0-7.314-7.314-14.629-14.629-14.629s-14.629 7.314-14.629 14.629v299.886c0 21.943 21.943 51.2 65.829 47.543 51.2-3.657 58.514-29.257 58.514-54.857s7.314-288.914 7.314-299.886c0-7.314-7.314-14.629-14.629-14.629 0 0 0 0 0 0zM508.343 367.543c-7.314 0-14.629 7.314-14.629 14.629 0 3.657-3.657 274.286-7.314 299.886 0 14.629 0 21.943-32.914 25.6-7.314 0-29.257 0-32.914-21.943v-296.229c0-7.314-7.314-14.629-14.629-14.629s-14.629 7.314-14.629 14.629v299.886c3.657 21.943 21.943 54.857 65.829 47.543 51.2-3.657 58.514-29.257 58.514-54.857s7.314-288.914 7.314-299.886c3.657-7.314-3.657-14.629-14.629-14.629 0 0 0 0 0 0zM705.829 352.914c-7.314 0-14.629 7.314-14.629 14.629 0 3.657-3.657 274.286-7.314 299.886 0 14.629 0 21.943-32.914 25.6-7.314 0-29.257 0-32.914-21.943v-296.229c0-7.314-7.314-14.629-14.629-14.629s-14.629 7.314-14.629 14.629v296.229c3.657 21.943 21.943 54.857 65.829 47.543 51.2-3.657 58.514-29.257 58.514-54.857s7.314-288.914 7.314-299.886c3.657-3.657-3.657-10.971-14.629-10.971 0 0 0 0 0 0z" />
<glyph unicode="&#xe90c;" glyph-name="bicycles" d="M775.314 521.143c-18.286 0-36.571-3.657-51.2-7.314l-36.571 87.771h-307.2l25.6 76.8c7.314 21.943 25.6 36.571 51.2 36.571h65.829v47.543h-65.829c-40.229 0-76.8-25.6-91.429-65.829l-58.514-179.2c-10.971 3.657-21.943 3.657-36.571 3.657-106.057 0-193.829-87.771-193.829-193.829s87.771-193.829 193.829-193.829c106.057 0 193.829 87.771 193.829 193.829 0 80.457-47.543 146.286-113.371 175.543l18.286 54.857h288.914l25.6-62.171c-62.171-32.914-102.4-98.743-102.4-171.886 0-106.057 87.771-193.829 193.829-193.829s193.829 87.771 193.829 193.829c0 113.371-84.114 197.486-193.829 197.486zM365.714 426.057c25.6-25.6 40.229-58.514 40.229-98.743 0-36.571-14.629-73.143-40.229-98.743-21.943-21.943-58.514-36.571-95.086-36.571s-73.143 14.629-98.743 40.229c-25.6 25.6-40.229 58.514-40.229 98.743 0 36.571 14.629 73.143 40.229 98.743s58.514 40.229 98.743 40.229c7.314 0 14.629 0 21.943-3.657l-40.229-128 40.229-18.286 40.229 128c14.629-3.657 25.6-14.629 32.914-21.943zM874.057 232.229c-25.6-25.6-58.514-40.229-98.743-40.229-36.571 0-73.143 14.629-98.743 40.229s-40.229 58.514-40.229 98.743c0 36.571 14.629 73.143 40.229 98.743 7.314 7.314 18.286 14.629 25.6 21.943l51.2-124.343 40.229 14.629-51.2 124.343c10.971 3.657 18.286 3.657 29.257 3.657 36.571 0 73.143-14.629 98.743-40.229s40.229-58.514 40.229-98.743c3.657-40.229-10.971-76.8-36.571-98.743zM757.029 630.857l14.629 51.2h-153.6l18.286-51.2z" />
<glyph unicode="&#xe90d;" glyph-name="bodysoap" d="M365.714 762.514c0 0 3.657 0 3.657 0 40.229 10.971 76.8 14.629 102.4 14.629 0 0 0 0 0 0 3.657 0 10.971 0 14.629 0v-73.143h-54.857v-87.771c0 0 0 0 3.657 0h160.914v91.429h-54.857v65.829c29.257-3.657 43.886-10.971 43.886-10.971 7.314-3.657 18.286 0 21.943 10.971 3.657 7.314 0 18.286-10.971 21.943 3.657 3.657-40.229 18.286-120.686 18.286 0 0 0 0 0 0-40.229 0-87.771-10.971-113.371-18.286-7.314 0-14.629-10.971-10.971-18.286 0-7.314 7.314-14.629 14.629-14.629zM599.771 590.629h-160.914c-84.114 0-146.286-69.486-138.971-153.6l21.943-270.629c0-69.486 54.857-120.686 124.343-120.686h146.286c69.486 3.657 124.343 54.857 124.343 120.686l21.943 270.629c7.314 80.457-58.514 153.6-138.971 153.6zM647.314 330.971c0-80.457-58.514-146.286-128-146.286s-128 65.829-128 146.286c0 80.457 58.514 146.286 128 146.286s128-65.829 128-146.286z" />
<glyph unicode="&#xe90e;" glyph-name="bodysponge" d="M69.486 155.429c32.914-36.571 0-36.571 32.914-73.143s80.457 0 160.914-32.914c10.971 0 18.286-3.657 25.6-3.657l29.257 14.629c47.543 25.6 65.829 7.314 91.429-18.286 10.971-10.971 21.943-18.286 29.257-14.629 25.6 10.971 36.571 21.943 102.4 21.943s65.829 0 135.314-36.571 65.829-36.571 98.743 0 18.286 91.429 51.2 91.429 135.314 109.714 65.829 146.286c-65.829 36.571-18.286 51.2-18.286 87.771 0 40.229-29.257 76.8-65.829 76.8-32.914 0 32.914 73.143 32.914 109.714s-32.914 73.143-65.829 73.143-98.743 0-98.743 36.571-65.829 73.143-98.743 36.571c-32.914-36.571-168.229-36.571-201.143-36.571-36.571-3.657-106.057 69.486-138.971 32.914s-98.743-73.143-98.743-109.714 0-146.286-32.914-146.286-32.914-36.571-32.914-73.143-69.486-182.857-3.657-182.857v0z" />
<glyph unicode="&#xe90f;" glyph-name="box" d="M950.857 320h-735.086v420.571h735.086v-420.571zM318.171 426.057h526.629v212.114h-526.629v-212.114zM811.886 257.829h-661.943v270.629h-106.057v-373.029h768v102.4z" />
<glyph unicode="&#xe910;" glyph-name="calender" d="M256 743.822c0 0 0 0 0 0 39.822 0 73.956 28.444 73.956 68.267 0 0 0 0 0 0v79.644c-5.689 34.133-34.133 68.267-73.956 68.267s-73.956-34.133-73.956-68.267v-73.956c0-39.822 34.133-73.956 73.956-73.956zM1024 834.844h-147.911v-34.133c0-62.578-51.2-108.089-108.089-108.089-62.578 0-108.089 51.2-108.089 108.089v34.133h-295.822v-34.133c0-62.578-51.2-108.089-108.089-108.089-62.578 0-108.089 51.2-108.089 108.089v34.133l-147.911 5.689v-904.533h1024v898.844zM910.222 49.778h-796.444v512h796.444v-512zM768 743.822c0 0 0 0 0 0 39.822 0 73.956 28.444 73.956 68.267 0 0 0 0 0 0v79.644c0 39.822-34.133 73.956-73.956 73.956s-73.956-34.133-73.956-73.956v-73.956c0-39.822 34.133-73.956 73.956-73.956zM568.889 448h113.778v-56.889h-113.778v56.889zM739.556 448h113.778v-56.889h-113.778v56.889zM341.333 448h113.778v-56.889h-113.778v56.889zM170.667 448h113.778v-56.889h-113.778v56.889zM568.889 334.222h113.778v-56.889h-113.778v56.889zM739.556 334.222h113.778v-56.889h-113.778v56.889zM341.333 334.222h113.778v-56.889h-113.778v56.889zM170.667 334.222h113.778v-56.889h-113.778v56.889zM568.889 220.444h113.778v-56.889h-113.778v56.889zM739.556 220.444h113.778v-56.889h-113.778v56.889zM341.333 220.444h113.778v-56.889h-113.778v56.889zM170.667 220.444h113.778v-56.889h-113.778v56.889z" />
<glyph unicode="&#xe911;" glyph-name="cellphonecharger" d="M530.286 623.543l-54.857-3.657h-18.286l21.943 91.429c3.657 10.971-14.629 18.286-18.286 7.314l-73.143-142.629c-3.657-3.657 0-10.971 7.314-7.314l47.543 7.314 14.629 3.657h7.314l-29.257-91.429c-3.657-10.971 10.971-18.286 18.286-7.314l84.114 142.629c0-3.657-3.657 3.657-7.314 0zM607.086 850.286h-288.914c-18.286 0-32.914-7.314-43.886-18.286s-18.286-25.6-18.286-43.886v-482.743c0-32.914 29.257-62.171 62.171-62.171h285.257c32.914 0 62.171 29.257 62.171 62.171v482.743c3.657 32.914-25.6 62.171-58.514 62.171zM486.4 309.029c-3.657-7.314-14.629-10.971-21.943-10.971s-18.286 3.657-21.943 10.971c-3.657 3.657-7.314 10.971-7.314 18.286 0 14.629 14.629 29.257 29.257 29.257s29.257-14.629 29.257-29.257c-3.657-7.314-3.657-14.629-7.314-18.286zM607.086 396.8h-288.914v391.314h288.914v-391.314zM629.029 53.029c-73.143 0-135.314 54.857-149.943 124.343 18.286 7.314 32.914 25.6 32.914 43.886 0 0 0 0 0 0v0c0 0 0 0 0 0h-98.743c0-25.6 18.286-43.886 40.229-47.543 3.657-32.914 18.286-62.171 40.229-84.114 0 0 0 0 0 0 3.657-3.657 7.314-7.314 10.971-10.971 0 0 0 0 0 0 32.914-32.914 76.8-51.2 128-51.2 98.743 0 179.2 80.457 179.2 179.2v168.229h14.629l18.286 51.2v102.4h-10.971v43.886c0 7.314-3.657 10.971-10.971 10.971h-51.2c-7.314 0-10.971-3.657-10.971-10.971v-43.886h-10.971v-102.4l18.286-51.2h14.629v-168.229c0-87.771-69.486-153.6-153.6-153.6zM768 524.8v43.886c0 0 0 3.657 3.657 3.657h51.2c0 0 3.657 0 3.657-3.657v-43.886h-58.514zM771.657 543.086v0 0h7.314v14.629h-7.314zM789.943 557.714h-7.314v-14.629h7.314zM800.914 557.714h7.314v-14.629h-7.314v14.629zM811.886 557.714h7.314v-14.629h-7.314v14.629zM797.257 557.714h-3.657v-14.629h3.657z" />
<glyph unicode="&#xe912;" glyph-name="checked" d="M409.6 160.305l-326.705 326.705 68.267 68.267 258.438-258.438 453.486 453.486 68.267-68.267z" />
<glyph unicode="&#xe913;" glyph-name="cleaningservice" d="M950.857 389.486v135.314c0 18.286-3.657 36.571-10.971 51.2-10.971 25.6-25.6 47.543-47.543 65.829-3.657 3.657-7.314 7.314-14.629 10.971v0c0 0 0 0 0 0v-515.657c0-36.571-29.257-69.486-69.486-69.486h-614.4c0 0 0 0 0 0v0c7.314-40.229 43.886-69.486 84.114-69.486h588.8c47.543 0 87.771 40.229 87.771 87.771l-3.657 303.543zM497.371 115.2h252.343c47.543 0 87.771 40.229 87.771 87.771v438.857c0 18.286-3.657 36.571-10.971 51.2-25.6 65.829-98.743 106.057-149.943 124.343 0 0-3.657 3.657-3.657 3.657-10.971 14.629-21.943 29.257-40.229 43.886-7.314 7.314-14.629 10.971-21.943 18.286l-7.314 3.657c-14.629 14.629-32.914 25.6-54.857 29.257-10.971 3.657-47.543 7.314-95.086 7.314s-80.457-3.657-98.743-7.314c-18.286-3.657-36.571-14.629-51.2-29.257l-3.657-3.657c-7.314-3.657-14.629-10.971-21.943-14.629-18.286-14.629-32.914-29.257-40.229-43.886 0 0-3.657-3.657-3.657-3.657-65.829-25.6-160.914-84.114-160.914-179.2v-438.857c0-47.543 40.229-87.771 87.771-87.771h336.457zM643.657 630.857v0c10.971 36.571 18.286 73.143 21.943 102.4 0 3.657 0 3.657 0 7.314s0 7.314 0 10.971c40.229-18.286 98.743-58.514 98.743-106.057v-51.2c0-102.4 0-325.486 0-391.314 0-7.314-7.314-14.629-14.629-14.629h-230.4v7.314l-7.314 43.886-14.629 146.286-7.314 76.8h14.629l10.971 29.257v3.657l10.971 29.257v3.657c3.657-3.657 10.971-7.314 14.629-7.314 7.314-3.657 10.971-7.314 18.286-10.971 10.971-3.657 14.629-7.314 14.629-10.971l14.629-10.971 3.657-3.657v3.657l14.629 43.886c18.286 36.571 25.6 65.829 36.571 98.743zM588.8 762.514c3.657 7.314 7.314 18.286 7.314 25.6 0 3.657 0 3.657 0 7.314 0 7.314 0 10.971 0 14.629 14.629-10.971 21.943-21.943 21.943-32.914 0-3.657 0-3.657 0-7.314s0-7.314 0-10.971c0-3.657 0-10.971 0-14.629-3.657-47.543-18.286-106.057-36.571-164.571-3.657-10.971-7.314-21.943-10.971-29.257-7.314 3.657-21.943 10.971-32.914 18.286-14.629 10.971-32.914 18.286-47.543 29.257 0 0-3.657 3.657-3.657 3.657s0 3.657-3.657 3.657c21.943 29.257 62.171 87.771 91.429 146.286 10.971 0 14.629 3.657 14.629 10.971zM343.771 828.343c0 3.657 3.657 7.314 7.314 7.314 0 0 0 0 0 0 7.314 7.314 21.943 7.314 25.6 10.971 3.657 0 7.314 0 10.971 0 3.657 3.657 10.971 3.657 14.629 3.657 7.314 0 14.629 0 21.943 0 3.657 0 10.971 0 18.286 0 3.657 0 7.314 0 10.971 0s7.314 0 10.971 0 10.971 0 18.286 0c7.314 0 14.629 0 21.943 0s14.629 0 18.286-3.657c3.657 0 7.314 0 7.314 0 3.657 0 14.629-3.657 25.6-10.971 0 0 0 0 0 0 3.657-3.657 3.657-3.657 7.314-10.971 0-3.657 3.657-7.314 3.657-10.971 0-10.971 0-25.6-7.314-40.229-3.657-10.971-7.314-18.286-14.629-29.257-21.943-40.229-47.543-84.114-69.486-109.714-7.314-10.971-14.629-21.943-18.286-25.6 0 0 0 0 0 0-3.657 3.657-14.629 18.286-25.6 36.571 0 0 0 0 0 0-10.971 14.629-18.286 29.257-29.257 47.543s-21.943 36.571-32.914 54.857c-7.314 7.314-14.629 18.286-18.286 29.257-7.314 18.286-10.971 36.571-7.314 51.2zM281.6 769.829c0 3.657 0 3.657 0 7.314 0 10.971 10.971 21.943 21.943 32.914 0-3.657 0-10.971 0-14.629s0-3.657 0-7.314c7.314-10.971 10.971-18.286 14.629-25.6 7.314-14.629 14.629-29.257 21.943-47.543 14.629-29.257 32.914-54.857 47.543-76.8 10.971-14.629 18.286-29.257 25.6-36.571 0 0 0 0 0 0-3.657 0-3.657-3.657-7.314-3.657-3.657-3.657-7.314-3.657-10.971-7.314-10.971-7.314-21.943-14.629-32.914-21.943 0 0 0 0 0 0-7.314-3.657-14.629-10.971-21.943-14.629l-10.971-7.314c-7.314 25.6-14.629 47.543-21.943 73.143s-14.629 47.543-18.286 73.143c-3.657 21.943-7.314 47.543-7.314 65.829 0 3.657 0 7.314 0 10.971zM160.914 184.686c-7.314 0-14.629 7.314-14.629 14.629 0 84.114 0 409.6 0 442.514 0 47.543 58.514 87.771 98.743 106.057 0 0 0 0 0 0 0-21.943 7.314-51.2 10.971-76.8s10.971-51.2 18.286-76.8c3.657-18.286 10.971-36.571 18.286-54.857l10.971-36.571 3.657-7.314 21.943 10.971c0 0 21.943 10.971 43.886 25.6 0 0 3.657 0 3.657 3.657 0 0 0 0 0 0l29.257-69.486h14.629l-7.314-73.143-21.943-201.143h-230.4z" />
<glyph unicode="&#xe914;" glyph-name="close" d="M1024 23.771l-424.229 424.229 424.229 424.229-87.771 87.771-424.229-424.229-424.229 424.229-87.771-87.771 424.229-424.229-424.229-424.229 87.771-87.771 424.229 424.229 424.229-424.229z" />
<glyph unicode="&#xe915;" glyph-name="clothesiron" d="M109.714 290.743v0h826.514l-73.143 84.114h-680.229l-43.886-51.2-29.257-32.914zM109.714 235.886v-3.657h826.514v32.914h-826.514zM186.514 202.971h-47.543v-193.829h47.543l21.943 51.2v142.629h-21.943zM859.429 202.971h-21.943v-142.629l21.943-51.2h51.2v193.829h-51.2zM665.6 769.829c18.286 10.971 40.229 18.286 62.171 18.286l-3.657 18.286c-3.657 7.314-10.971 14.629-18.286 10.971l-32.914-3.657c-7.314 0-14.629-10.971-10.971-18.286l3.657-25.6zM972.8 612.571c-3.657 51.2-3.657 87.771-10.971 102.4-3.657 10.971-10.971 18.286-25.6 25.6-25.6 7.314-76.8 25.6-164.571 40.229-98.743 18.286-182.857-73.143-223.086-128l387.657-102.4c7.314 7.314 18.286 18.286 25.6 21.943 10.971 10.971 10.971 29.257 10.971 40.229zM896 630.857l-212.114 54.857c36.571 36.571 73.143 51.2 109.714 43.886 29.257-3.657 29.257-3.657 51.2-10.971 10.971-3.657 21.943-7.314 29.257-7.314 14.629-3.657 21.943-10.971 25.6-25.6 3.657-10.971 3.657-32.914-3.657-54.857zM526.629 616.229l398.629-102.4 7.314 29.257-391.314 98.743c-7.314-10.971-14.629-18.286-14.629-25.6zM768.16 674.971l5.563 21.225 60.138-15.76-5.563-21.225-60.138 15.76z" />
<glyph unicode="&#xe916;" glyph-name="coffeemachine" d="M874.057 137.143l-95.086 80.457c-3.657 3.657-3.657 7.314-3.657 10.971v274.286c0 7.314-7.314 10.971-10.971 10.971h-157.257c3.657 3.657 3.657 7.314 7.314 10.971 3.657 7.314 7.314 14.629 7.314 18.286h204.8c21.943 0 40.229 18.286 40.229 40.229v263.314c0 21.943-18.286 40.229-40.229 40.229h-625.371c-21.943 0-40.229-18.286-40.229-40.229v-263.314c0-21.943 18.286-40.229 40.229-40.229h204.8c0-7.314 3.657-14.629 7.314-21.943 0-3.657 3.657-3.657 3.657-7.314 0 0 0-3.657 3.657-3.657h-157.257c-7.314 0-10.971-7.314-10.971-10.971v-270.629c0-3.657 0-7.314-3.657-10.971l-95.086-80.457c-7.314-3.657-7.314-7.314-7.314-10.971v-69.486c0-3.657 7.314-10.971 10.971-10.971h705.829c7.314 0 10.971 7.314 10.971 10.971v69.486c3.657 3.657 3.657 7.314 0 10.971zM336.457 674.743v0h-84.114v58.514h84.114v-58.514zM775.314 674.743v0h-87.771v58.514h87.771v-58.514zM548.571 407.771h-18.286v65.829h18.286v-65.829zM497.371 407.771h-21.943v65.829h18.286v-65.829h3.657zM512 795.429c14.629 0 29.257-3.657 43.886-14.629 0 0 3.657 0 3.657-3.657l-95.086-95.086-18.286-14.629c-10.971 14.629-14.629 29.257-14.629 47.543 0 43.886 36.571 80.457 80.457 80.457zM457.143 572.343h106.057c10.971 0 18.286-14.629 14.629-29.257v0c-7.314-10.971-18.286-21.943-29.257-29.257s-25.6-10.971-40.229-10.971c-14.629 0-25.6 3.657-40.229 10.971-10.971 7.314-21.943 18.286-29.257 29.257 0 0 0 0 0 0 0 14.629 7.314 29.257 18.286 29.257zM512 634.514c-14.629 0-29.257 3.657-43.886 14.629 0 0-3.657 0-3.657 3.657l113.371 113.371c10.971-14.629 14.629-29.257 14.629-47.543 0-47.543-36.571-84.114-80.457-84.114zM621.714 246.857c3.657 7.314 7.314 18.286 7.314 25.6v3.657c14.629 3.657 21.943 7.314 25.6 14.629 3.657 3.657 3.657 7.314 3.657 14.629l3.657 18.286v3.657h-25.6v3.657l3.657 21.943h25.6c7.314 0 14.629-3.657 18.286-10.971 10.971-3.657 10.971-10.971 10.971-18.286l-3.657-21.943c0-10.971-3.657-18.286-10.971-25.6-10.971-18.286-29.257-21.943-51.2-29.257 0 0 0 0-7.314 0 3.657 0 3.657 0 0 0zM384 371.2c0 0 3.657 3.657 3.657 3.657h234.057c3.657 0 3.657 0 3.657-3.657 0 0 0-3.657 0-3.657l-3.657-14.629-14.629-76.8c-3.657-14.629-10.971-29.257-18.286-40.229-14.629-18.286-40.229-29.257-65.829-29.257h-36.571c-40.229 0-76.8 29.257-84.114 69.486l-18.286 91.429c0 0 0 3.657 0 3.657zM786.286 115.2h-548.571v18.286h548.571v-18.286z" />
<glyph unicode="&#xe917;" glyph-name="coffeeservice" d="M800.914 696.686h-25.6l-40.229 128c-3.657 7.314-7.314 10.971-14.629 10.971h-190.171v-47.543h-32.914v47.543h-182.857c-7.314 0-10.971-3.657-14.629-10.971l-40.229-128h-25.6c-7.314 0-14.629-3.657-14.629-14.629v-131.657c0-7.314 7.314-14.629 14.629-14.629h47.543c0-3.657 0-3.657 0-7.314l7.314-80.457c0 0 0 0-3.657-3.657-7.314-7.314-10.971-18.286-10.971-29.257l18.286-204.8c0-10.971 7.314-18.286 14.629-25.6l3.657-25.6 7.314-113.371c0-18.286 21.943-36.571 43.886-36.571h310.857c21.943 0 43.886 18.286 43.886 40.229l7.314 113.371 3.657 25.6c7.314 7.314 10.971 14.629 14.629 25.6l21.943 208.457c0 10.971-3.657 21.943-10.971 29.257 0 0 0 0-3.657 3.657l3.657 25.6 3.657 54.857c0 3.657 0 3.657 0 7.314h47.543c7.314 0 14.629 7.314 14.629 14.629v124.343c-3.657 10.971-7.314 14.629-18.286 14.629zM687.543 177.371v-21.943l-7.314-102.4c0 0 0 0-3.657 0h-314.514c0 0-3.657 0-3.657 0l-7.314 102.4v21.943h336.457zM731.429 696.686h-431.543l29.257 95.086h128v-10.971c0-18.286 14.629-36.571 36.571-36.571h43.886c18.286 0 36.571 14.629 36.571 36.571v10.971h128l21.943-73.143 7.314-21.943zM775.314 656.457v-73.143h-512v73.143h512zM709.486 462.629h-384l-7.314 73.143c0 0 0 0 0 0s0 0 0 0h391.314c0 0 0 0 0 0s0 0 0 0v-73.143z" />
<glyph unicode="&#xe918;" glyph-name="conditioner" d="M691.2 129.829c-14.629 65.829-21.943 124.343-21.943 212.114 0 80.457 7.314 131.657 18.286 197.486 7.314 36.571-18.286 69.486-54.857 76.8-18.286 3.657-36.571 3.657-54.857 7.314-21.943 0-47.543 3.657-69.486 3.657s-43.886 0-69.486-3.657c-18.286 0-36.571-3.657-54.857-7.314-36.571-3.657-62.171-40.229-54.857-76.8 10.971-65.829 18.286-117.029 18.286-197.486 0-87.771-7.314-146.286-21.943-212.114-7.314-36.571 18.286-69.486 54.857-76.8 36.571-3.657 84.114-7.314 124.343-7.314s87.771 3.657 124.343 7.314c43.886 7.314 69.486 40.229 62.171 76.8zM420.571 184.686c-3.657 0-3.657 0-7.314 3.657 0 0 0 3.657 0 7.314 7.314 51.2 10.971 98.743 10.971 157.257 0 80.457-7.314 131.657-14.629 186.514 0 3.657 0 3.657 0 3.657s3.657 3.657 3.657 3.657c7.314 0 14.629 0 25.6 3.657 21.943 0 43.886 3.657 62.171 3.657s40.229 0 62.171-3.657c7.314 0 14.629 0 21.943 0 3.657 0 3.657 0 3.657-3.657 0 0 0-3.657 0-7.314-25.6-73.143-109.714-256-164.571-347.429 0-7.314-3.657-7.314-3.657-7.314zM577.829 652.8v69.486h-135.314v-69.486zM376.686 795.429c18.286 0 29.257 3.657 40.229 7.314 14.629 3.657 29.257 3.657 47.543 7.314l7.314-62.171h76.8l3.657 51.2v3.657c10.971 0 21.943-3.657 36.571-3.657 7.314 0 10.971 3.657 10.971 10.971v14.629c0 7.314-3.657 10.971-10.971 10.971-25.6 0-36.571 3.657-51.2 7.314-10.971 3.657-29.257 7.314-58.514 7.314s-51.2-3.657-69.486-7.314c-14.629-3.657-32.914-7.314-54.857-7.314 0 0 0 0-3.657 0v0c0 0 0 0 0 0l25.6-40.229z" />
<glyph unicode="&#xe919;" glyph-name="conveniencestore" d="M969.143 524.8h-914.286v168.229h917.943v-168.229zM106.057 579.657h811.886v62.171h-811.886v-62.171zM281.6 181.029h-193.829v387.657h193.829v-387.657zM124.343 217.6h124.343v318.171h-124.343v-318.171zM943.543 181.029h-193.829v387.657h193.829v-387.657zM786.286 217.6h124.343v318.171h-124.343v-318.171zM786.286 437.029h-537.6v142.629h537.6v-142.629zM281.6 473.6h468.114v69.486h-468.114v-69.486zM54.857 192h917.943v-36.571h-917.943v36.571zM493.714 455.314h36.571v-281.6h-36.571v281.6zM405.943 813.714h201.143v-106.057h-201.143v106.057zM486.4 773.486h36.571v-106.057h-36.571v106.057zM106.057 268.8h157.257v-80.457h-157.257v80.457zM768 268.8h157.257v-80.457h-157.257v80.457z" />
<glyph unicode="&#xe91a;" glyph-name="cookware" d="M866.743 802.743c-43.886 43.886-160.914 160.914-274.286 106.057-91.429-43.886-135.314-124.343-128-226.743 3.657-47.543 7.314-87.771 7.314-117.029 0-14.629-3.657-25.6-14.629-36.571-43.886-43.886-153.6-153.6-182.857-182.857-18.286-18.286-51.2-47.543-80.457-76.8s-58.514-58.514-76.8-76.8c-76.8-76.8-29.257-138.971-14.629-153.6 18.286-18.286 76.8-65.829 153.6 14.629 18.286 18.286 47.543 47.543 76.8 76.8s58.514 58.514 76.8 80.457c29.257 29.257 128 128 186.514 186.514 10.971 10.971 21.943 14.629 36.571 14.629 25.6-3.657 65.829-3.657 117.029-7.314 102.4-7.314 182.857 36.571 226.743 128 51.2 109.714-65.829 226.743-109.714 270.629zM921.6 660.114c3.657-3.657 3.657-7.314 3.657-10.971 0 0 0-3.657 3.657-3.657 0-3.657 3.657-7.314 3.657-10.971s0-3.657 0-7.314 3.657-7.314 3.657-7.314c0 0 0-3.657 0-3.657 0-3.657 0-7.314 0-10.971 0 0 0-3.657 0-3.657 0-18.286 0-36.571-7.314-51.2-32.914-73.143-95.086-109.714-179.2-102.4-47.543 3.657-87.771 7.314-113.371 7.314-25.6 3.657-54.857-7.314-73.143-25.6-51.2-51.2-157.257-157.257-186.514-186.514-40.229-40.229-117.029-117.029-153.6-157.257-36.571-36.571-65.829-36.571-87.771-14.629 0 0-3.657 3.657-3.657 3.657s0 0 0 0c-3.657 3.657-3.657 7.314-7.314 10.971 0 0 0 0 0 0-10.971 21.943-7.314 43.886 25.6 76.8 36.571 36.571 117.029 113.371 157.257 153.6 29.257 29.257 135.314 131.657 186.514 186.514 18.286 18.286 29.257 47.543 25.6 73.143s-3.657 65.829-7.314 113.371c-7.314 84.114 29.257 146.286 102.4 179.2s153.6-29.257 219.429-98.743c32.914-32.914 65.829-69.486 87.771-109.714 0 0 0 0 0 0zM647.314 810.057c-14.629-3.657-29.257-14.629-43.886-29.257-47.543-47.543-36.571-212.114-25.6-256l3.657-7.314 7.314-3.657c43.886-14.629 208.457-21.943 256 25.6 14.629 14.629 25.6 29.257 29.257 43.886 7.314 18.286 3.657 40.229-10.971 54.857l-157.257 157.257c-18.286 14.629-40.229 21.943-58.514 14.629zM596.114 660.114c7.314-7.314 18.286-18.286 29.257-29.257 29.257-29.257 65.829-65.829 91.429-91.429l3.657-3.657c-7.314 0-18.286 0-25.6 0l-102.4 102.4c3.657 3.657 3.657 14.629 3.657 21.943zM731.429 682.057l-109.714-7.314c-14.629 0-21.943 10.971-21.943 25.6 3.657 21.943 10.971 51.2 21.943 62.171s25.6 21.943 36.571 25.6c7.314 3.657 18.286 0 25.6-7.314l62.171-62.171c10.971-14.629 3.657-36.571-14.629-36.571zM204.8 170.057c-7.314-7.314-7.314-21.943 0-29.257s21.943-7.314 29.257 0c7.314 7.314 7.314 21.943 0 29.257-10.971 7.314-21.943 7.314-29.257 0z" />
<glyph unicode="&#xe91b;" glyph-name="cookwareinkitchen" d="M650.971 217.6c7.314 0 14.629 0 21.943 3.657 3.657 0 7.314 0 10.971 3.657 3.657 0 7.314 0 10.971 3.657 7.314 0 10.971 3.657 18.286 3.657 3.657 0 7.314 3.657 10.971 3.657 7.314 3.657 10.971 3.657 18.286 7.314 3.657 0 7.314 3.657 10.971 3.657 3.657 3.657 10.971 3.657 14.629 7.314s10.971 3.657 14.629 7.314c3.657 3.657 7.314 3.657 10.971 7.314 7.314 3.657 10.971 7.314 18.286 10.971 3.657 3.657 3.657 3.657 7.314 7.314 7.314 3.657 10.971 10.971 18.286 14.629 3.657 3.657 3.657 3.657 7.314 7.314s7.314 3.657 7.314 7.314c131.657 131.657 131.657 343.771 0 475.429-3.657 3.657-3.657 3.657-7.314 7.314s-7.314 7.314-10.971 7.314c-3.657 3.657-10.971 7.314-14.629 10.971s-7.314 7.314-10.971 7.314c-3.657 3.657-10.971 7.314-14.629 10.971s-10.971 7.314-14.629 7.314c-3.657 3.657-10.971 7.314-14.629 7.314-7.314 3.657-10.971 3.657-18.286 7.314-3.657 0-7.314 3.657-10.971 3.657-7.314 3.657-10.971 3.657-18.286 7.314-3.657 0-7.314 3.657-14.629 3.657-3.657 0-10.971 3.657-14.629 3.657-7.314 0-10.971 3.657-18.286 3.657-3.657 0-7.314 0-10.971 3.657-7.314 0-14.629 0-21.943 3.657-3.657 0-7.314 0-10.971 0-7.314 0-14.629 0-21.943 0-3.657 0-7.314 0-10.971 0-7.314 0-14.629 0-21.943-3.657-3.657 0-7.314 0-10.971-3.657-7.314 0-10.971-3.657-18.286-3.657-3.657 0-10.971-3.657-14.629-3.657s-7.314-3.657-14.629-3.657c-7.314-3.657-10.971-3.657-18.286-7.314-3.657 0-7.314-3.657-10.971-3.657-7.314-3.657-10.971-3.657-18.286-7.314-3.657-3.657-10.971-3.657-14.629-7.314s-10.971-7.314-14.629-7.314c-3.657-3.657-10.971-7.314-14.629-10.971s-7.314-7.314-10.971-7.314c-3.657-3.657-7.314-7.314-14.629-10.971-3.657-3.657-7.314-7.314-10.971-7.314-3.657-3.657-3.657-3.657-7.314-7.314-36.571-36.571-58.514-76.8-76.8-117.029-29.257-80.457-29.257-171.886 3.657-252.343 10.971-29.257 29.257-54.857 47.543-80.457 0 0 0 0 0 0l-36.571-36.571-21.943 21.943-204.8-208.457c-21.943-21.943-21.943-54.857 0-76.8l14.629-14.629c21.943-21.943 54.857-21.943 76.8 0l204.8 204.8-18.286 21.943 40.229 40.229c0 0 0 0 0 0 47.543-36.571 98.743-62.171 153.6-69.486 0 0 0 0 0 0 7.314 0 18.286-3.657 25.6-3.657 0 0 0 0 3.657 0 7.314 0 18.286 0 25.6 0 0 0 0 0 0 0s0 0 0 0 3.657 0 3.657 0c7.314 0 18.286 0 25.6 0 3.657-3.657 3.657-3.657 7.314-3.657zM786.286 382.171c-47.543-47.543-109.714-69.486-171.886-69.486s-124.343 21.943-171.886 69.486c-95.086 95.086-95.086 248.686 0 340.114 47.543 47.543 109.714 69.486 171.886 69.486s124.343-21.943 171.886-69.486c95.086-95.086 95.086-248.686 0-340.114zM168.229 74.971c-7.314-7.314-21.943-7.314-29.257 0s-7.314 21.943 0 29.257c7.314 7.314 21.943 7.314 29.257 0 10.971-7.314 10.971-21.943 0-29.257zM614.4 762.514c-54.857 0-109.714-21.943-146.286-62.171-40.229-40.229-62.171-91.429-62.171-149.943 0-54.857 21.943-109.714 62.171-149.943s91.429-62.171 146.286-62.171c54.857 0 109.714 21.943 149.943 62.171s62.171 91.429 62.171 149.943c0 54.857-21.943 109.714-62.171 149.943s-91.429 62.171-149.943 62.171z" />
<glyph unicode="&#xe91c;" glyph-name="Cottonswab" d="M292.571 118.857c0-60.594-24.56-109.714-54.857-109.714s-54.857 49.121-54.857 109.714c0 60.594 24.56 109.714 54.857 109.714s54.857-49.121 54.857-109.714zM292.571 740.571c0-60.594-24.56-109.714-54.857-109.714s-54.857 49.121-54.857 109.714c0 60.594 24.56 109.714 54.857 109.714s54.857-49.121 54.857-109.714zM475.429 118.857c0-60.594-24.56-109.714-54.857-109.714s-54.857 49.121-54.857 109.714c0 60.594 24.56 109.714 54.857 109.714s54.857-49.121 54.857-109.714zM475.429 740.571c0-60.594-24.56-109.714-54.857-109.714s-54.857 49.121-54.857 109.714c0 60.594 24.56 109.714 54.857 109.714s54.857-49.121 54.857-109.714zM658.286 118.857c0-60.594-24.56-109.714-54.857-109.714s-54.857 49.121-54.857 109.714c0 60.594 24.56 109.714 54.857 109.714s54.857-49.121 54.857-109.714zM658.286 740.571c0-60.594-24.56-109.714-54.857-109.714s-54.857 49.121-54.857 109.714c0 60.594 24.56 109.714 54.857 109.714s54.857-49.121 54.857-109.714zM841.143 118.857c0-60.594-24.56-109.714-54.857-109.714s-54.857 49.121-54.857 109.714c0 60.594 24.56 109.714 54.857 109.714s54.857-49.121 54.857-109.714zM841.143 740.571c0-60.594-24.56-109.714-54.857-109.714s-54.857 49.121-54.857 109.714c0 60.594 24.56 109.714 54.857 109.714s54.857-49.121 54.857-109.714z" />
<glyph unicode="&#xe91d;" glyph-name="coupleorientedroom" d="M329.143 543.086c36.571 0 65.829 29.257 65.829 65.829s-29.257 65.829-65.829 65.829c-36.571 0-65.829-29.257-65.829-65.829s29.257-65.829 65.829-65.829zM650.971 608.914c0-36.571 29.257-65.829 65.829-65.829s65.829 29.257 65.829 65.829c0 36.571-29.257 65.829-65.829 65.829s-65.829-29.257-65.829-65.829zM833.829 228.571c3.657 3.657 7.314 10.971 7.314 18.286v208.457c0 29.257-29.257 62.171-58.514 62.171h-102.4c-36.571 0-54.857-21.943-69.486-51.2l-84.114-135.314-84.114 135.314c-18.286 29.257-36.571 51.2-73.143 51.2h-106.057c-32.914 0-58.514-32.914-58.514-62.171v-208.457c0-14.629 14.629-29.257 29.257-29.257 7.314 0 0 0 21.943 0l10.971-179.2c0-14.629 14.629-29.257 29.257-29.257 7.314 0 21.943 0 32.914 0 14.629 0 25.6 0 32.914 0 18.286 0 29.257 14.629 29.257 29.257l10.971 179.2 3.657 168.229 95.086-120.686c3.657-3.657 7.314-10.971 18.286-10.971s14.629 3.657 21.943 10.971l95.086 120.686 3.657-95.086c-14.629-14.629-73.143-87.771-80.457-160.914h95.086l14.629-91.429c0-10.971 10.971-21.943 21.943-21.943 3.657 0 14.629 0 25.6 0s18.286 0 25.6 0c10.971 0 21.943 10.971 21.943 21.943l14.629 91.429h91.429c-3.657 32.914-18.286 69.486-36.571 98.743zM522.971 630.857c3.657 0 3.657 0 0 0 3.657-3.657 3.657-3.657 3.657-3.657s0 0 0 0v0c0 0 3.657 0 3.657 3.657 0 0 0 0 0 3.657 58.514 54.857 142.629 91.429 142.629 164.571 0 58.514-32.914 91.429-76.8 87.771-43.886 0-65.829-32.914-73.143-62.171-3.657 29.257-25.6 62.171-73.143 62.171-40.229 0-76.8-29.257-76.8-87.771 7.314-76.8 91.429-109.714 149.943-168.229z" />
<glyph unicode="&#xe91e;" glyph-name="courierservice" d="M939.886 378.514h-512v285.257c0 7.314-7.314 14.629-14.629 14.629h-219.429c-18.286 0-36.571-10.971-43.886-29.257l-76.8-193.829v-197.486c0-14.629 10.971-29.257 29.257-29.257h73.143c3.657 14.629 10.971 29.257 18.286 40.229 3.657 7.314 10.971 14.629 18.286 18.286 18.286 14.629 40.229 21.943 62.171 21.943 25.6 0 47.543-7.314 62.171-21.943 7.314-3.657 14.629-10.971 18.286-18.286 7.314-10.971 14.629-25.6 18.286-40.229h252.343c0 3.657 0 3.657 0 7.314 0 0 0 3.657 0 3.657 0 3.657 3.657 7.314 3.657 10.971 0 0 0 3.657 3.657 3.657 3.657 3.657 3.657 7.314 7.314 10.971 0 0 3.657 3.657 3.657 3.657 3.657 3.657 3.657 7.314 7.314 7.314 0 0 3.657 3.657 3.657 3.657 3.657 3.657 3.657 3.657 7.314 7.314 3.657 0 3.657 3.657 7.314 3.657s7.314 3.657 7.314 3.657c3.657 0 3.657 3.657 7.314 3.657s7.314 3.657 10.971 3.657c3.657 0 3.657 0 7.314 0s7.314 0 10.971 3.657c0 0 3.657 0 3.657 0 3.657 0 3.657 0 7.314 0 43.886 0 80.457-29.257 95.086-65.829v-14.629h80.457l32.914 29.257 47.543 43.886v73.143h-40.229zM138.971 458.971l62.171 157.257h117.029v-157.257h-179.2zM731.429 276.114c-29.257 0-54.857-18.286-62.171-47.543-3.657-7.314-3.657-14.629-3.657-21.943 0-36.571 29.257-65.829 65.829-65.829s65.829 29.257 65.829 65.829c0 7.314 0 14.629-3.657 21.943-7.314 29.257-32.914 47.543-62.171 47.543zM299.886 272.457c-7.314 3.657-14.629 3.657-25.6 3.657-7.314 0-18.286 0-25.6-3.657-14.629-7.314-29.257-21.943-36.571-40.229-3.657-7.314-3.657-14.629-3.657-21.943 0-36.571 29.257-65.829 65.829-65.829s65.829 29.257 65.829 65.829c0 7.314 0 14.629-3.657 21.943-3.657 18.286-18.286 32.914-36.571 40.229zM512 437.029h149.943c7.314 0 14.629 7.314 14.629 14.629v120.686c0 7.314-7.314 14.629-14.629 14.629h-149.943c-7.314 0-14.629-7.314-14.629-14.629v-124.343c3.657-7.314 7.314-10.971 14.629-10.971zM735.086 568.686v-120.686c0-7.314 7.314-14.629 14.629-14.629h149.943c7.314 0 14.629 7.314 14.629 14.629v120.686c0 7.314-7.314 14.629-14.629 14.629h-149.943c-7.314 0-14.629-7.314-14.629-14.629zM632.686 630.857h149.943c7.314 0 14.629 7.314 14.629 14.629v117.029c0 7.314-7.314 14.629-14.629 14.629h-149.943c-7.314 0-14.629-7.314-14.629-14.629v-120.686c0-7.314 7.314-10.971 14.629-10.971z" />
<glyph unicode="&#xe91f;" glyph-name="day-plan" d="M724.114 506.514c-3.657 21.943-10.971 40.229-18.286 58.514 0 0 0 0 0 0-3.657 3.657-3.657 10.971-7.314 14.629 0 0 0 3.657-3.657 3.657-3.657 3.657-3.657 7.314-7.314 10.971 0 3.657-3.657 3.657-3.657 7.314-3.657 3.657-3.657 7.314-7.314 10.971s-3.657 3.657-7.314 7.314-3.657 7.314-7.314 7.314-7.314 7.314-10.971 10.971c-3.657 3.657-3.657 3.657-7.314 7.314s-10.971 7.314-14.629 10.971c0 0 0 0-3.657 0-7.314 3.657-10.971 7.314-18.286 10.971-3.657 0-3.657 3.657-7.314 3.657-3.657 3.657-7.314 3.657-10.971 7.314-3.657 0-7.314 3.657-10.971 3.657s-7.314 3.657-7.314 3.657c-3.657 0-7.314 3.657-14.629 3.657-3.657 0-3.657 0-7.314 0s-10.971 3.657-14.629 3.657c0 0-3.657 0-3.657 0-7.314 0-10.971 3.657-18.286 3.657 0 0 0 0 0 0-18.286 0-40.229 0-58.514-3.657-124.343-18.286-212.114-138.971-190.171-266.971 3.657-21.943 10.971-40.229 18.286-58.514 0 0 0 0 0 0 3.657-3.657 3.657-10.971 7.314-14.629 0 0 0-3.657 3.657-3.657 3.657-3.657 3.657-7.314 7.314-10.971 0-3.657 3.657-3.657 3.657-7.314 3.657-3.657 3.657-7.314 7.314-10.971s3.657-3.657 7.314-7.314 3.657-7.314 7.314-7.314 7.314-7.314 10.971-10.971c3.657-3.657 3.657-3.657 7.314-7.314s10.971-7.314 14.629-10.971c0 0 0 0 3.657-3.657 7.314-3.657 10.971-7.314 18.286-10.971 3.657 0 3.657-3.657 7.314-3.657 3.657-3.657 7.314-3.657 10.971-7.314 3.657 0 7.314-3.657 10.971-3.657s3.657-3.657 7.314-3.657c3.657 0 10.971-3.657 14.629-3.657s3.657 0 7.314 0 10.971-3.657 18.286-3.657c0 0 3.657 0 3.657 0 7.314 0 10.971-3.657 18.286-3.657 0 0 0 0 0 0 18.286 0 40.229 0 58.514 3.657 120.686 21.943 208.457 142.629 186.514 270.629zM914.286 502.857l-62.171-10.971c-14.629 0-25.6-10.971-25.6-25.6s10.971-25.6 25.6-25.6l62.171-10.971c18.286 0 36.571 14.629 36.571 36.571 0 18.286-14.629 36.571-36.571 36.571zM135.314 491.886l-62.171 10.971c-18.286 0-36.571-14.629-36.571-36.571 0-18.286 14.629-36.571 36.571-36.571l62.171 10.971c14.629 0 25.6 10.971 25.6 25.6-3.657 14.629-14.629 25.6-25.6 25.6zM768 788.114l-36.571-51.2c-10.971-10.971-10.971-25.6 0-32.914 10.971-10.971 25.6-10.971 32.914 0l51.2 36.571c14.629 14.629 14.629 36.571 0 51.2-10.971 10.971-32.914 10.971-47.543-3.657zM223.086 228.571l-51.2-36.571c-14.629-14.629-14.629-36.571 0-51.2s36.571-14.629 51.2 0l36.571 51.2c10.971 10.971 10.971 25.6 0 32.914-10.971 14.629-29.257 14.629-36.571 3.657zM493.714 802.743c14.629 0 25.6 10.971 25.6 25.6l10.971 58.514c0 18.286-14.629 36.571-36.571 36.571-18.286 0-36.571-14.629-36.571-36.571l10.971-62.171c0-10.971 10.971-21.943 25.6-21.943zM493.714 129.829c-14.629 0-25.6-10.971-25.6-25.6l-10.971-58.514c0-18.286 14.629-36.571 36.571-36.571 18.286 0 36.571 14.629 36.571 36.571l-10.971 62.171c0 10.971-10.971 21.943-25.6 21.943zM223.086 704c7.314-10.971 25.6-10.971 32.914 0 10.971 10.971 10.971 25.6 0 32.914l-36.571 51.2c-14.629 14.629-36.571 14.629-51.2 0-10.971-10.971-10.971-32.914 3.657-47.543l51.2-36.571zM764.343 228.571c-10.971 10.971-25.6 10.971-32.914 0-10.971-10.971-10.971-25.6 0-32.914l36.571-51.2c14.629-14.629 36.571-14.629 51.2 0s14.629 36.571 0 51.2l-54.857 32.914z" />
<glyph unicode="&#xe920;" glyph-name="desk" d="M73.143 649.143v0h877.714l-76.8 91.429h-724.114l-47.543-54.857-29.257-36.571zM73.143 590.629v0 0 0h877.714v32.914h-877.714zM157.257 557.714h-54.857v-398.629h54.857v3.657l21.943 54.857v340.114h-21.943zM866.743 557.714h-21.943v-340.114l21.943-54.857v-3.657h54.857v398.629h-54.857zM519.314 557.714v0 0-146.286h281.6v146.286h-281.6zM643.657 473.6v21.943h36.571v-21.943h-36.571zM519.314 378.514v0 0-146.286h281.6v146.286h-281.6zM643.657 294.4v21.943h36.571v-21.943h-36.571z" />
<glyph unicode="&#xe921;" glyph-name="desklamp" d="M903.314 747.886l-241.371 58.514-43.886 69.486c-7.314 10.971-18.286 10.971-29.257 7.314l-62.171-40.229c-10.971-7.314-14.629-21.943-7.314-29.257l14.629-18.286-186.514-128c-3.657 3.657-10.971 3.657-18.286 3.657-25.6 0-43.886-21.943-43.886-43.886 0-18.286 10.971-32.914 25.6-40.229v-358.4h-10.971v-106.057c-7.314 0-18.286-3.657-29.257-3.657-7.314 0-14.629-7.314-14.629-18.286v-69.486c0-7.314 7.314-14.629 14.629-18.286 106.057-14.629 182.857-14.629 292.571 0 7.314 0 14.629 7.314 14.629 18.286v69.486c0 7.314-7.314 14.629-14.629 18.286-73.143 10.971-131.657 14.629-197.486 10.971 0 0 0 0 0 0v98.743h-21.943v354.743c18.286 7.314 29.257 21.943 29.257 43.886 0 3.657 0 10.971-3.657 14.629l179.2 124.343h3.657l14.629-21.943-40.229-245.029c0-10.971 7.314-18.286 18.286-14.629 62.171 32.914 128 69.486 190.171 113.371 0 0 0 0 0 0s0 0 0 0c65.829 43.886 124.343 87.771 179.2 131.657 3.657 3.657 0 18.286-10.971 18.286z" />
<glyph unicode="&#xe922;" glyph-name="doublebed" d="M266.971 667.429v54.857c0 21.943 18.286 43.886 43.886 43.886h135.314c21.943 0 43.886-18.286 43.886-43.886v-54.857c0-7.314-3.657-14.629-3.657-18.286h40.229c-3.657 7.314-3.657 10.971-3.657 18.286v54.857c0 21.943 18.286 43.886 43.886 43.886h128c21.943 0 43.886-18.286 43.886-43.886v-54.857c0-7.314-3.657-14.629-3.657-18.286h91.429v146.286c0 29.257-25.6 54.857-54.857 54.857h-537.6c-32.914 0-54.857-25.6-54.857-54.857v-146.286h91.429c-3.657 3.657-3.657 10.971-3.657 18.286zM826.514 623.543h-647.314l-113.371-292.571h874.057zM58.514 309.029v-95.086c0-32.914 25.6-58.514 58.514-58.514h771.657c32.914 0 58.514 25.6 58.514 58.514v95.086h-888.686zM179.2 45.714h106.057l7.314 80.457h-124.343zM720.457 45.714h102.4l10.971 80.457h-124.343z" />
<glyph unicode="&#xe923;" glyph-name="doublebed-small" d="M128 53.029l18.286 21.943c14.629-14.629 32.914-21.943 51.2-21.943 21.943 0 36.571 10.971 36.571 25.6 0 18.286-10.971 21.943-29.257 29.257l-32.914 10.971c-18.286 7.314-36.571 21.943-36.571 47.543 0 29.257 25.6 51.2 62.171 51.2 21.943 0 43.886-10.971 58.514-21.943l-14.629-18.286c-14.629 10.971-29.257 14.629-43.886 14.629-18.286 0-32.914-10.971-32.914-25.6s14.629-21.943 29.257-29.257l25.6-7.314c21.943-10.971 36.571-21.943 36.571-51.2s-25.6-54.857-65.829-54.857c-21.943 0-47.543 10.971-62.171 29.257zM292.571 213.943h36.571l32.914-95.086c3.657-10.971 7.314-25.6 10.971-36.571v0c3.657 10.971 7.314 25.6 10.971 36.571l32.914 95.086h32.914v-186.514h-29.257v91.429c0 18.286 3.657 40.229 3.657 58.514v0l-14.629-43.886-25.6-87.771h-18.286l-32.914 87.771-14.629 43.886c0-18.286 3.657-40.229 3.657-58.514v-91.429h-29.257v186.514zM592.457 82.286h-65.829l-14.629-54.857h-29.257l62.171 186.514h32.914l62.171-186.514h-32.914l-14.629 54.857zM585.143 104.229l-7.314 25.6c-7.314 21.943-10.971 40.229-18.286 62.171v0c-3.657-21.943-10.971-40.229-18.286-62.171l-7.314-25.6h51.2zM665.6 213.943h29.257v-160.914h80.457v-25.6h-109.714v186.514zM804.571 213.943h29.257v-160.914h80.457v-25.6h-109.714v186.514zM307.2 773.486v43.886c0 18.286 14.629 32.914 32.914 32.914h109.714c18.286 0 32.914-14.629 32.914-32.914v-43.886c0-7.314 0-10.971-3.657-14.629h32.914c-3.657 3.657-3.657 10.971-3.657 14.629v43.886c0 18.286 14.629 32.914 32.914 32.914h109.714c18.286 0 32.914-14.629 32.914-32.914v-43.886c0-7.314 0-10.971-3.657-14.629h87.771v120.686c0 25.6-21.943 43.886-47.543 43.886h-438.857c-25.6 0-43.886-18.286-43.886-43.886v-120.686h76.8c-3.657 3.657-7.314 10.971-7.314 14.629zM768 736.914h-530.286l-95.086-241.371h716.8zM138.971 480.914v-76.8c0-25.6 21.943-47.543 47.543-47.543h632.686c25.6 0 47.543 21.943 47.543 47.543v76.8h-727.771zM237.714 265.143h87.771l7.314 65.829h-102.4zM680.229 265.143h84.114l10.971 65.829h-102.4z" />
<glyph unicode="&#xe924;" glyph-name="download" d="M921.6 371.2v-256h-819.2v256h-102.4v-358.4h1024v358.4zM512 268.8l256 358.4h-153.6v256h-204.8v-256h-153.6z" />
<glyph unicode="&#xe925;" glyph-name="DVDplayer" d="M95.086 385.829h117.029v-47.543h-117.029v47.543zM808.229 385.829h117.029v-47.543h-117.029v47.543zM128 524.8h394.971v-54.857h-394.971v54.857zM58.514 594.286v-193.829h899.657v193.829h-899.657zM541.257 455.314h-427.886v84.114h427.886v-84.114zM870.4 448h-226.743v102.4h226.743v-102.4z" />
<glyph unicode="&#xe926;" glyph-name="electrickettle" d="M742.4 243.2c0 0 0 0 0 0s0 0 0 0c-32.914-51.2-73.143-84.114-117.029-102.4 0 0 0 0 0 0-3.657 0-3.657-3.657-7.314-3.657 0 0 0 0-3.657 0s-7.314-3.657-10.971-3.657c0 0 0 0 0 0-58.514-18.286-113.371-18.286-149.943-18.286-98.743 0-215.771 32.914-277.943 106.057-3.657 3.657-7.314 10.971-10.971 14.629 0 0 0 0 0 0s0 0 0 0c-10.971-18.286-14.629-32.914-14.629-54.857 0-95.086 135.314-171.886 307.2-171.886 168.229 0 307.2 76.8 307.2 171.886 0 18.286-7.314 36.571-18.286 54.857 0 3.657 0 7.314-3.657 7.314zM914.286 755.2c-25.6 40.229-120.686 69.486-226.743 69.486-18.286 0-36.571 0-54.857-3.657-62.171 18.286-98.743 29.257-175.543 29.257s-146.286-25.6-164.571-29.257c-47.543-3.657-160.914-3.657-182.857-54.857 0 0 29.257-149.943 84.114-182.857-14.629-36.571-54.857-223.086-10.971-310.857 0-7.314 3.657-7.314 3.657-10.971 47.543-84.114 175.543-117.029 266.971-117.029 18.286 0 40.229 0 58.514 3.657 0 0 3.657 0 3.657 0 3.657 0 7.314 0 14.629 0 0 0 3.657 0 3.657 0 3.657 0 10.971 0 14.629 3.657 0 0 0 0 0 0 62.171 10.971 128 40.229 168.229 117.029 3.657 7.314 10.971 18.286 14.629 29.257 87.771 21.943 219.429 29.257 223.086 146.286 7.314 117.029-10.971 263.314-40.229 310.857zM738.743 473.6l-21.943 153.6c-3.657 21.943 14.629 40.229 32.914 40.229l62.171 3.657c18.286 0 36.571-14.629 36.571-32.914l14.629-149.943c3.657-18.286-10.971-36.571-32.914-40.229l-54.857-7.314c-14.629 0-32.914 14.629-36.571 32.914zM394.971 349.257v0 201.143c0 29.257 25.6 54.857 54.857 54.857s54.857-25.6 54.857-54.857v-201.143c0-29.257-25.6-54.857-54.857-54.857-32.914 0-54.857 25.6-54.857 54.857zM138.971 758.857v0 0c25.6 25.6 113.371 29.257 138.971 32.914h14.629c7.314 0 14.629 3.657 25.6 7.314 29.257 7.314 80.457 21.943 131.657 21.943 69.486 0 106.057-7.314 164.571-29.257l7.314-3.657h7.314c-76.8-29.257-182.857-47.543-299.886-47.543-65.829 0-131.657 7.314-190.171 18.286v0 0zM413.257 480.914h65.829v-10.971h-65.829v10.971zM482.743 400.457h-69.486v-10.971h69.486z" />
<glyph unicode="&#xe927;" glyph-name="facebook" d="M512 960v0c-282.713 0-512-229.287-512-512s229.287-512 512-512v0c282.713 0 512 229.287 512 512s-229.287 512-512 512zM638.887 597.148v0c0-4.452-4.452-8.904-8.904-8.904h-42.296c-28.939 0-33.391-11.13-33.391-33.391v-46.748h71.235c0 0 0 0 0 0 4.452 0 8.904-4.452 8.904-8.904v-80.139c0 0 0 0 0 0 0-4.452-4.452-8.904-8.904-8.904h-71.235v-200.348c0 0 0 0 0 0 0-4.452-4.452-8.904-8.904-8.904h-80.139c0 0 0 0 0 0-4.452 0-8.904 4.452-8.904 8.904v200.348h-62.33c0 0 0 0 0 0-4.452 0-8.904 4.452-8.904 8.904v80.139c0 0 0 0 0 0 0 4.452 4.452 8.904 8.904 8.904h62.33v55.652c0 71.235 44.522 117.983 113.53 117.983h62.33c0 0 0 0 0 0 4.452 0 8.904-4.452 8.904-8.904v-75.687z" />
<glyph unicode="&#xe928;" glyph-name="facetowel" d="M899.657 477.257c-7.314 10.971-14.629 14.629-21.943 21.943l-325.486 186.514c0 10.971 0 21.943 0 32.914 0 0 3.657 0 3.657 0 36.571 10.971 62.171 43.886 62.171 87.771 0 51.2-40.229 91.429-91.429 91.429-43.886 0-80.457-29.257-87.771-69.486-3.657-10.971 3.657-25.6 18.286-29.257 10.971-3.657 25.6 3.657 29.257 18.286 3.657 18.286 21.943 32.914 43.886 32.914 25.6 0 43.886-18.286 43.886-43.886 0-18.286-14.629-36.571-29.257-40.229-3.657 0-10.971-3.657-18.286-7.314-3.657-3.657-7.314-7.314-10.971-10.971s-7.314-10.971-7.314-18.286c0-7.314 0-25.6 0-36.571l-325.486-193.829c-7.314-3.657-14.629-10.971-21.943-18.286-7.314-10.971-14.629-21.943-14.629-40.229 0-3.657 0-10.971 0-14.629 3.657-18.286 14.629-29.257 25.6-36.571s21.943-10.971 32.914-10.971h80.457v-362.057h402.286v54.857h80.457v307.2h84.114c10.971 0 21.943 3.657 32.914 10.971s21.943 21.943 25.6 36.571c0 3.657 0 7.314 0 14.629 3.657 14.629-3.657 25.6-10.971 36.571zM724.114 115.2h-32.914v263.314h32.914v-263.314zM724.114 422.4h-43.886c-14.629 0-21.943-10.971-21.943-21.943v-336.457h-321.829v365.714c0 10.971 10.971 21.943 21.943 21.943h354.743c7.314 0 10.971-3.657 10.971-10.971v-18.286zM866.743 437.029c0-7.314-3.657-7.314-7.314-10.971-3.657 0-7.314-3.657-7.314-3.657h-84.114v18.286c0 32.914-25.6 58.514-58.514 58.514h-351.086c-36.571 0-69.486-29.257-69.486-69.486v-7.314h-80.457c0 0-3.657 0-7.314 3.657-3.657 0-3.657 3.657-7.314 10.971v3.657c0 3.657 0 7.314 3.657 10.971s7.314 7.314 7.314 7.314l325.486 186.514 325.486-186.514c0 0 3.657-3.657 7.314-7.314 3.657-7.314 3.657-10.971 3.657-14.629v0z" />
<glyph unicode="&#xe929;" glyph-name="familyorientedroom" d="M171.886 729.6c43.886 0 76.8 36.571 76.8 76.8 3.657 43.886-32.914 80.457-76.8 80.457-40.229 0-76.8-36.571-76.8-76.8 0-43.886 36.571-80.457 76.8-80.457zM504.686 524.8v0c0 0 0 0 0 0 3.657 0 3.657 0 0 0v0c29.257 0 54.857 25.6 54.857 54.857s-21.943 54.857-51.2 54.857v0c0 0 0 0 0 0s0 0 0 0v0c-29.257 0-51.2-25.6-51.2-54.857-3.657-29.257 18.286-54.857 47.543-54.857zM841.143 729.6c43.886 0 76.8 36.571 76.8 76.8 0 43.886-36.571 80.457-76.8 80.457-43.886 0-76.8-36.571-76.8-76.8-3.657-43.886 32.914-80.457 76.8-80.457zM987.429 352.914v263.314c0 36.571-40.229 80.457-80.457 80.457h-10.971l-54.857-54.857-51.2 51.2c-32.914-3.657-62.171-25.6-80.457-54.857l-62.171-182.857c-3.657-3.657-7.314-7.314-10.971-7.314s-10.971 0-14.629 3.657l-36.571 29.257c-10.971 10.971-25.6 18.286-43.886 18.286h-73.143c-14.629 0-32.914-7.314-43.886-18.286l-36.571-32.914c-3.657-3.657-7.314-3.657-14.629-3.657-3.657 0-7.314 3.657-10.971 7.314l-62.171 182.857c-18.286 36.571-54.857 58.514-95.086 58.514h-98.743c-36.571 0-80.457-40.229-80.457-80.457v-263.314c0-18.286 14.629-32.914 32.914-32.914 10.971 0 0 0 25.6 0l14.629-223.086c0-18.286 14.629-36.571 36.571-36.571 7.314 0 25.6 0 40.229 0s32.914 0 40.229 0c18.286 0 36.571 14.629 36.571 36.571l14.629 223.086v160.914c0 3.657 0 3.657 3.657 3.657s3.657 0 7.314-3.657l51.2-124.343c0-7.314 10.971-14.629 21.943-14.629 14.629-3.657 25.6 0 36.571 10.971l47.543 36.571c0 0 3.657 3.657 7.314 0 3.657 0 3.657-3.657 3.657-3.657v-138.971l7.314-153.6c0-14.629 10.971-25.6 25.6-25.6 7.314 0 18.286 0 29.257 0s21.943 0 29.257 0c14.629 0 25.6 10.971 25.6 25.6l7.314 153.6v138.971c0 3.657 0 3.657 3.657 3.657s3.657 0 7.314 0l47.543-36.571c10.971-7.314 21.943-14.629 36.571-10.971s25.6 10.971 29.257 21.943l51.2 124.343c0 3.657 3.657 3.657 7.314 3.657s3.657-3.657 3.657-3.657v-62.171l-51.2-164.571c0-3.657 0-7.314 0-10.971 3.657-3.657 7.314-3.657 10.971-3.657h43.886l7.314-142.629c0-18.286 14.629-36.571 36.571-36.571 7.314 0 25.6 0 40.229 0s32.914 0 40.229 0c18.286 0 36.571 14.629 36.571 36.571l7.314 142.629h51.2c3.657 0 7.314 3.657 10.971 3.657 3.657 3.657 3.657 7.314 0 10.971l-21.943 65.829c7.314 3.657 18.286 14.629 18.286 29.257zM186.514 656.457v-138.971h-40.229v138.971h40.229z" />
<glyph unicode="&#xe92a;" glyph-name="fax" d="M669.257 762.514l120.686 21.943c32.914 7.314 58.514 36.571 58.514 69.486 0 3.657 0 7.314 0 10.971 0 0 0 0 0 0v0c0 0 0 0 0 0l-153.6-25.6-87.771-18.286 62.171-58.514zM804.571 239.543v65.829h-234.057l-21.943-25.6h-109.714l-21.943 25.6h-234.057v-91.429h621.714l109.714 18.286c0 14.629-10.971 25.6-25.6 21.943l-73.143-10.971-10.971-3.657zM888.686 122.514l-73.143-10.971h-10.971v65.829h-234.057l-21.943-25.6h-109.714l-21.943 25.6h-234.057v-95.086h621.714l109.714 18.286c0 14.629-10.971 25.6-25.6 21.943zM347.429 572.343h-164.571v-241.371h621.714v128h-215.771c-3.657 0-3.657 0-7.314 0l-160.914-40.229c-3.657 0-3.657 0-7.314 0h-69.486c-10.971 0-18.286 7.314-18.286 18.286v80.457c0 10.971 7.314 18.286 18.286 18.286h460.8v43.886h-457.143zM296.229 49.371v0h-65.829v-32.914c0-10.971 7.314-18.286 18.286-18.286h25.6c10.971 0 18.286 7.314 18.286 18.286v32.914h3.657zM691.2 49.371v-32.914c0-10.971 7.314-18.286 18.286-18.286h25.6c10.971 0 18.286 7.314 18.286 18.286v32.914h-62.171zM804.571 634.514c0 21.943-18.286 36.571-36.571 36.571h-87.771l-80.457 76.8-62.171 58.514-25.6 29.257h-299.886c-14.629 0-29.257-14.629-29.257-29.257v-208.457h621.714v36.571zM438.857 788.114l-135.314-142.629h-73.143v142.629h208.457z" />
<glyph unicode="&#xe92b;" glyph-name="fb" d="M863.086 400.457l21.943 171.886h-157.257v109.714c0 43.886 3.657 69.486 65.829 69.486h98.743v175.543h-131.657c-157.257 0-226.743-84.114-226.743-226.743v-124.343h-135.314v-171.886h135.314v-431.543h193.829v427.886h135.314z" />
<glyph unicode="&#xe92c;" glyph-name="fitness" d="M230.4 254.171v-3.657h73.143v376.686h-73.143zM106.057 298.057v0 0h98.743v285.257h-98.743zM36.571 451.657v-18.286c0-21.943 18.286-40.229 40.229-40.229v102.4c-21.943-3.657-40.229-21.943-40.229-43.886zM720.457 254.171v-3.657h73.143v376.686h-73.143zM819.2 298.057v0 0h98.743v285.257h-98.743zM947.2 491.886c0 0 0 0 0 0v0c0 0 0 0 0 0l-3.657-102.4c21.943 0 40.229 18.286 40.229 40.229v18.286c3.657 25.6-14.629 43.886-36.571 43.886zM347.429 389.486v0 0h332.8v102.4h-332.8v-102.4zM486.4 462.629h149.943c3.657 0 10.971-3.657 10.971-10.971v-29.257c0-3.657-3.657-3.657-3.657-3.657l-157.257 36.571c-3.657 0-3.657 7.314 0 7.314z" />
<glyph unicode="&#xe92d;" d="M0 789.333h1024v-682.667h-1024v682.667z" />
<glyph unicode="&#xe92e;" d="M276.48 625.493h-75.093l-20.48 68.267-23.893-68.267h-71.68l58.027-47.787-20.48-68.267 58.027 40.96 58.027-40.96-20.48 68.267 58.027 47.787zM450.56 533.333h-23.893l-6.827 23.893-10.24-23.893h-23.893l20.48-13.653-6.827-23.893 20.48 13.653 17.067-13.653-6.827 23.893 20.48 13.653zM443.733 645.973l-20.48-10.24-17.067 20.48 3.413-23.893-23.893-10.24 23.893-6.827 3.413-23.893 13.653 20.48 20.48-3.413-13.653 17.067 10.24 20.48zM365.227 724.48l-17.067-17.067-20.48 6.827 10.24-20.48-13.653-17.067 23.893 6.827 13.653-20.48v23.893l23.893 3.413-23.893 10.24 3.413 23.893zM385.707 454.827l-23.893 6.827v23.893l-13.653-17.067-23.893 6.827 13.653-20.48-13.653-17.067 23.893 6.827 10.24-20.48 3.413 23.893 23.893 6.827z" />
<glyph unicode="&#xe92f;" d="M0 789.333h1024v-682.667h-1024v682.667z" />
<glyph unicode="&#xe930;" d="M0 789.333h1024v-51.2h-1024v51.2zM0 683.52h1024v-51.2h-1024v51.2zM0 577.707h1024v-51.2h-1024v51.2zM0 475.307h1024v-51.2h-1024v51.2zM0 369.493h1024v-51.2h-1024v51.2zM0 263.68h1024v-51.2h-1024v51.2zM0 157.867h1024v-51.2h-1024v51.2z" />
<glyph unicode="&#xe931;" d="M0 789.333h409.6v-368.64h-409.6v368.64z" />
<glyph unicode="&#xe932;" d="M51.2 758.613h-13.653l-3.413 17.067-3.413-17.067h-13.653l10.24-6.827-3.413-17.067 10.24 10.24 10.24-10.24-3.413 13.653 10.24 10.24zM119.467 758.613h-13.653l-3.413 17.067-3.413-17.067h-13.653l10.24-6.827-3.413-17.067 10.24 10.24 10.24-10.24-3.413 13.653 10.24 10.24zM187.733 758.613h-13.653l-3.413 17.067-3.413-17.067h-13.653l10.24-6.827-3.413-17.067 10.24 10.24 10.24-10.24-3.413 13.653 10.24 10.24zM256 758.613h-13.653l-3.413 17.067-3.413-17.067h-13.653l10.24-6.827-3.413-17.067 10.24 10.24 10.24-10.24-3.413 13.653 10.24 10.24zM324.267 758.613h-13.653l-3.413 17.067-3.413-17.067h-13.653l10.24-6.827-3.413-17.067 10.24 10.24 10.24-10.24-3.413 13.653 10.24 10.24zM392.533 758.613h-13.653l-3.413 17.067-3.413-17.067h-13.653l10.24-6.827-3.413-17.067 10.24 10.24 10.24-10.24-3.413 13.653 10.24 10.24zM85.333 721.067h-13.653l-3.413 17.067-3.413-17.067h-13.653l10.24-6.827-3.413-17.067 10.24 10.24 10.24-10.24-3.413 17.067 10.24 6.827zM153.6 721.067h-13.653l-3.413 17.067-3.413-17.067h-13.653l10.24-6.827-3.413-17.067 10.24 10.24 10.24-10.24-3.413 17.067 10.24 6.827zM221.867 721.067h-13.653l-3.413 17.067-3.413-17.067h-13.653l10.24-6.827-3.413-17.067 10.24 10.24 10.24-10.24-3.413 17.067 10.24 6.827zM290.133 721.067h-13.653l-3.413 17.067-3.413-17.067h-13.653l10.24-6.827-3.413-17.067 10.24 10.24 10.24-10.24-3.413 17.067 10.24 6.827zM358.4 721.067h-13.653l-3.413 17.067-3.413-17.067h-13.653l10.24-6.827-3.413-17.067 10.24 10.24 10.24-10.24-3.413 17.067 10.24 6.827zM51.2 686.933h-13.653l-3.413 13.653-3.413-13.653h-13.653l10.24-10.24-3.413-13.653 10.24 6.827 10.24-6.827-3.413 13.653 10.24 10.24zM119.467 686.933h-13.653l-3.413 13.653-3.413-13.653h-13.653l10.24-10.24-3.413-13.653 10.24 6.827 10.24-6.827-3.413 13.653 10.24 10.24zM187.733 686.933h-13.653l-3.413 13.653-3.413-13.653h-13.653l10.24-10.24-3.413-13.653 10.24 6.827 10.24-6.827-3.413 13.653 10.24 10.24zM256 686.933h-13.653l-3.413 13.653-3.413-13.653h-13.653l10.24-10.24-3.413-13.653 10.24 6.827 10.24-6.827-3.413 13.653 10.24 10.24zM324.267 686.933h-13.653l-3.413 13.653-3.413-13.653h-13.653l10.24-10.24-3.413-13.653 10.24 6.827 10.24-6.827-3.413 13.653 10.24 10.24zM392.533 686.933h-13.653l-3.413 13.653-3.413-13.653h-13.653l10.24-10.24-3.413-13.653 10.24 6.827 10.24-6.827-3.413 13.653 10.24 10.24zM85.333 649.387h-13.653l-3.413 13.653-3.413-13.653h-13.653l10.24-10.24-3.413-13.653 10.24 6.827 10.24-6.827-3.413 13.653 10.24 10.24zM153.6 649.387h-13.653l-3.413 13.653-3.413-13.653h-13.653l10.24-10.24-3.413-13.653 10.24 6.827 10.24-6.827-3.413 13.653 10.24 10.24zM221.867 649.387h-13.653l-3.413 13.653-3.413-13.653h-13.653l10.24-10.24-3.413-13.653 10.24 6.827 10.24-6.827-3.413 13.653 10.24 10.24zM290.133 649.387h-13.653l-3.413 13.653-3.413-13.653h-13.653l10.24-10.24-3.413-13.653 10.24 6.827 10.24-6.827-3.413 13.653 10.24 10.24zM358.4 649.387h-13.653l-3.413 13.653-3.413-13.653h-13.653l10.24-10.24-3.413-13.653 10.24 6.827 10.24-6.827-3.413 13.653 10.24 10.24zM51.2 611.84h-13.653l-3.413 13.653-3.413-13.653h-13.653l10.24-10.24-3.413-13.653 10.24 10.24 10.24-10.24-3.413 13.653 10.24 10.24zM119.467 611.84h-13.653l-3.413 13.653-3.413-13.653h-13.653l10.24-10.24-3.413-13.653 10.24 10.24 10.24-10.24-3.413 13.653 10.24 10.24zM187.733 611.84h-13.653l-3.413 13.653-3.413-13.653h-13.653l10.24-10.24-3.413-13.653 10.24 10.24 10.24-10.24-3.413 13.653 10.24 10.24zM256 611.84h-13.653l-3.413 13.653-3.413-13.653h-13.653l10.24-10.24-3.413-13.653 10.24 10.24 10.24-10.24-3.413 13.653 10.24 10.24zM324.267 611.84h-13.653l-3.413 13.653-3.413-13.653h-13.653l10.24-10.24-3.413-13.653 10.24 10.24 10.24-10.24-3.413 13.653 10.24 10.24zM392.533 611.84h-13.653l-3.413 13.653-3.413-13.653h-13.653l10.24-10.24-3.413-13.653 10.24 10.24 10.24-10.24-3.413 13.653 10.24 10.24zM85.333 574.293h-13.653l-3.413 13.653-3.413-13.653h-13.653l10.24-10.24-3.413-13.653 10.24 10.24 10.24-10.24-3.413 13.653 10.24 10.24zM153.6 574.293h-13.653l-3.413 13.653-3.413-13.653h-13.653l10.24-10.24-3.413-13.653 10.24 10.24 10.24-10.24-3.413 13.653 10.24 10.24zM221.867 574.293h-13.653l-3.413 13.653-3.413-13.653h-13.653l10.24-10.24-3.413-13.653 10.24 10.24 10.24-10.24-3.413 13.653 10.24 10.24zM290.133 574.293h-13.653l-3.413 13.653-3.413-13.653h-13.653l10.24-10.24-3.413-13.653 10.24 10.24 10.24-10.24-3.413 13.653 10.24 10.24zM358.4 574.293h-13.653l-3.413 13.653-3.413-13.653h-13.653l10.24-10.24-3.413-13.653 10.24 10.24 10.24-10.24-3.413 13.653 10.24 10.24zM51.2 536.747h-13.653l-3.413 17.067-3.413-17.067h-13.653l10.24-6.827-3.413-17.067 10.24 10.24 10.24-10.24-3.413 17.067 10.24 6.827zM119.467 536.747h-13.653l-3.413 17.067-3.413-17.067h-13.653l10.24-6.827-3.413-17.067 10.24 10.24 10.24-10.24-3.413 17.067 10.24 6.827zM187.733 536.747h-13.653l-3.413 17.067-3.413-17.067h-13.653l10.24-6.827-3.413-17.067 10.24 10.24 10.24-10.24-3.413 17.067 10.24 6.827zM256 536.747h-13.653l-3.413 17.067-3.413-17.067h-13.653l10.24-6.827-3.413-17.067 10.24 10.24 10.24-10.24-3.413 17.067 10.24 6.827zM324.267 536.747h-13.653l-3.413 17.067-3.413-17.067h-13.653l10.24-6.827-3.413-17.067 10.24 10.24 10.24-10.24-3.413 17.067 10.24 6.827zM392.533 536.747h-13.653l-3.413 17.067-3.413-17.067h-13.653l10.24-6.827-3.413-17.067 10.24 10.24 10.24-10.24-3.413 17.067 10.24 6.827zM85.333 499.2h-13.653l-3.413 17.067-3.413-17.067h-13.653l10.24-6.827-3.413-17.067 10.24 10.24 10.24-10.24-3.413 17.067 10.24 6.827zM153.6 499.2h-13.653l-3.413 17.067-3.413-17.067h-13.653l10.24-6.827-3.413-17.067 10.24 10.24 10.24-10.24-3.413 17.067 10.24 6.827zM221.867 499.2h-13.653l-3.413 17.067-3.413-17.067h-13.653l10.24-6.827-3.413-17.067 10.24 10.24 10.24-10.24-3.413 17.067 10.24 6.827zM290.133 499.2h-13.653l-3.413 17.067-3.413-17.067h-13.653l10.24-6.827-3.413-17.067 10.24 10.24 10.24-10.24-3.413 17.067 10.24 6.827zM358.4 499.2h-13.653l-3.413 17.067-3.413-17.067h-13.653l10.24-6.827-3.413-17.067 10.24 10.24 10.24-10.24-3.413 17.067 10.24 6.827zM51.2 465.067h-13.653l-3.413 13.653-3.413-13.653h-13.653l10.24-10.24-3.413-13.653 10.24 6.827 10.24-6.827-3.413 13.653 10.24 10.24zM119.467 465.067h-13.653l-3.413 13.653-3.413-13.653h-13.653l10.24-10.24-3.413-13.653 10.24 6.827 10.24-6.827-3.413 13.653 10.24 10.24zM187.733 465.067h-13.653l-3.413 13.653-3.413-13.653h-13.653l10.24-10.24-3.413-13.653 10.24 6.827 10.24-6.827-3.413 13.653 10.24 10.24zM256 465.067h-13.653l-3.413 13.653-3.413-13.653h-13.653l10.24-10.24-3.413-13.653 10.24 6.827 10.24-6.827-3.413 13.653 10.24 10.24zM324.267 465.067h-13.653l-3.413 13.653-3.413-13.653h-13.653l10.24-10.24-3.413-13.653 10.24 6.827 10.24-6.827-3.413 13.653 10.24 10.24zM392.533 465.067h-13.653l-3.413 13.653-3.413-13.653h-13.653l10.24-10.24-3.413-13.653 10.24 6.827 10.24-6.827-3.413 13.653 10.24 10.24z" />
<glyph unicode="&#xe933;" d="M0 789.333h1024v-682.667h-1024v682.667z" />
<glyph unicode="&#xe934;" d="M720.213 448c0-112.64-92.16-204.8-208.213-204.8s-208.213 92.16-208.213 204.8 92.16 204.8 208.213 204.8 208.213-92.16 208.213-204.8z" />
<glyph unicode="&#xe935;" d="M0 783.448h1024v-670.897h-1024v670.897z" />
<glyph unicode="&#xe936;" d="M677.959 455.062c0-88.276-60.028-144.772-151.834-144.772s-180.083 56.497-180.083 144.772 74.152 162.428 165.959 162.428 165.959-70.621 165.959-162.428z" />
<glyph unicode="&#xe937;" d="M377.821 550.4c-24.717-38.841-17.655-91.807 21.186-116.524s91.807-14.124 116.524 24.717 77.683 49.434 116.524 24.717 49.434-77.683 24.717-116.524c-52.966-77.683-155.366-98.869-233.048-45.903-81.214 49.434-98.869 151.834-45.903 229.517z" />
<glyph unicode="&#xe938;" d="M685.021 656.331l21.186 14.124 45.903-63.559-24.717-14.124-42.372 63.559zM681.49 239.669l42.372 63.559 24.717-14.124-42.372-67.090-24.717 17.655zM730.924 313.821l42.372 63.559 24.717-14.124-42.372-63.559-24.717 14.124zM769.766 289.103l42.372 63.559 24.717-14.124-42.372-63.559-24.717 14.124zM204.8 557.462l95.338 141.241 24.717-14.124-95.338-141.241-24.717 14.124zM734.455 582.179l24.717 14.124 42.372-63.559-24.717-14.124-42.372 63.559zM716.8 681.048l24.717 14.124 95.338-141.241-24.717-14.124-95.338 141.241zM805.076 628.083l24.717 14.124 42.372-63.559-24.717-14.124-42.372 63.559zM752.11 705.766l24.717 14.124 42.372-63.559-24.717-14.124-42.372 63.559zM208.331 338.538l24.717 14.124 38.841-63.559-24.717-14.124-38.841 63.559zM752.11 193.766l42.372 63.559 24.717-14.124-42.372-63.559-24.717 14.124zM720.331 214.952l42.372 63.559 24.717-14.124-45.903-63.559-21.186 14.124zM801.545 267.917l42.372 63.559 24.717-14.124-42.372-63.559-24.717 14.124zM257.766 264.386l24.717 14.124 42.372-63.559-24.717-14.124-42.372 63.559zM240.11 532.745l95.338 141.241 24.717-14.124-95.338-141.241-24.717 14.124zM169.49 317.352l24.717 14.124 95.338-141.241-24.717-14.124-95.338 141.241zM169.49 578.648l95.338 141.241 24.717-14.124-95.338-141.241-24.717 14.124zM240.11 363.255l24.717 14.124 95.338-141.241-24.717-14.124-95.338 141.241z" />
<glyph unicode="&#xe939;" glyph-name="freeshuttlebus" d="M928.914 674.743h-54.857v69.486c0 62.171-47.543 117.029-109.714 128-84.114 10.971-171.886 18.286-256 18.286s-171.886-7.314-256-18.286c-62.171-7.314-109.714-62.171-109.714-128v-69.486h-58.514c-10.971 0-21.943-10.971-21.943-21.943v-179.2c0-10.971 10.971-21.943 21.943-21.943h54.857v-252.343h-18.286c-3.657 0-10.971-7.314-10.971-10.971v-84.114c0-7.314 3.657-10.971 10.971-10.971h65.829v-54.857c0-21.943 18.286-40.229 40.229-40.229h51.2c21.943 0 40.229 18.286 40.229 40.229v54.857h65.829v-14.629c0-14.629 10.971-29.257 29.257-29.257h175.543c14.629 0 29.257 10.971 29.257 29.257v14.629h65.829v-54.857c0-21.943 18.286-40.229 40.229-40.229h51.2c21.943 0 40.229 18.286 40.229 40.229v54.857h65.829c7.314 0 10.971 3.657 10.971 10.971v84.114c0 7.314-3.657 10.971-10.971 10.971h-14.629v252.343h54.857c10.971 0 21.943 10.971 21.943 21.943v179.2c7.314 10.971-3.657 21.943-14.629 21.943zM768 235.886c0 0-3.657 0 0 0 0-7.314 0-10.971-3.657-10.971 0 0 0-3.657 0-3.657 0-3.657-3.657-3.657-3.657-7.314 0 0 0-3.657-3.657-3.657 0-3.657-3.657-3.657-7.314-7.314 0 0 0 0-3.657-3.657 0 0-3.657-3.657-3.657-3.657-3.657-3.657-7.314-3.657-10.971-3.657-7.314-3.657-14.629-3.657-21.943-3.657s-14.629 0-21.943 3.657c-3.657 0-7.314 3.657-10.971 3.657 0 0-3.657 0-3.657 3.657 0 0 0 0-3.657 3.657s-3.657 3.657-7.314 7.314c0 0 0 3.657-3.657 3.657 0 3.657-3.657 3.657-3.657 7.314 0 0 0 3.657 0 3.657 0 3.657 0 7.314-3.657 7.314 0 0 0 3.657 0 3.657s0 3.657 0 3.657c0 29.257 21.943 51.2 51.2 51.2s51.2-21.943 51.2-51.2c14.629 0 14.629 0 14.629-3.657zM351.086 232.229c0-3.657 0-7.314-3.657-7.314 0 0 0-3.657 0-3.657 0-3.657-3.657-3.657-3.657-7.314 0 0 0-3.657-3.657-3.657 0-3.657-3.657-3.657-7.314-7.314 0 0 0 0-3.657-3.657 0 0-3.657-3.657-3.657-3.657-3.657-3.657-7.314-3.657-10.971-3.657-7.314-3.657-14.629-3.657-21.943-3.657s-14.629 0-21.943 3.657c-3.657 0-7.314 3.657-10.971 3.657 0 0-3.657 3.657-3.657 3.657s-3.657 0-3.657 3.657-3.657 3.657-7.314 7.314c0 0 0 3.657-3.657 3.657 0 3.657-3.657 3.657-3.657 7.314 0 0 0 3.657 0 3.657 0 3.657 0 3.657-3.657 7.314 0 0 0 3.657 0 3.657s0 3.657 0 3.657c0 29.257 21.943 51.2 51.2 51.2s51.2-21.943 51.2-51.2c14.629 0 14.629 0 14.629-7.314 0 3.657 0 3.657 0 0zM800.914 385.829h-277.943v277.943h277.943v-277.943zM680.229 740.571h-347.429v69.486c58.514 3.657 117.029 7.314 171.886 7.314 58.514 0 117.029-3.657 171.886-7.314v-69.486zM577.829 93.257h-142.629v47.543h142.629v-47.543zM493.714 389.486v0h-277.943v274.286h277.943v-274.286zM270.629 480.914l131.657 131.657c7.314 7.314 3.657 21.943-7.314 21.943h-131.657c-7.314 0-14.629-7.314-14.629-14.629v-131.657c0-10.971 14.629-14.629 21.943-7.314z" />
<glyph unicode="&#xe93a;" d="M965.486 437.029c0 32.914-3.657 65.829-7.314 98.743h-449.829v-182.857h256c-10.971-58.514-43.886-109.714-95.086-142.629v-120.686h153.6c91.429 84.114 142.629 204.8 142.629 347.429v0 0z" />
<glyph unicode="&#xe93b;" d="M508.343-23.771c128 0 234.057 43.886 314.514 113.371l-153.6 120.686c-43.886-29.257-95.086-43.886-160.914-43.886-124.343 0-226.743 84.114-266.971 193.829h-153.6v-124.343c76.8-153.6 237.714-259.657 420.571-259.657v0 0z" />
<glyph unicode="&#xe93c;" d="M245.029 360.229c-10.971 29.257-14.629 58.514-14.629 91.429s3.657 62.171 14.629 91.429v120.686h-157.257c-32.914-65.829-51.2-138.971-51.2-215.771s18.286-149.943 51.2-212.114l157.257 124.343z" />
<glyph unicode="&#xe93d;" d="M508.343 733.257c69.486 0 131.657-25.6 182.857-69.486l135.314 135.314c-80.457 76.8-190.171 124.343-318.171 124.343-182.857 0-343.771-106.057-420.571-259.657l157.257-124.343c36.571 113.371 142.629 193.829 263.314 193.829v0 0z" />
<glyph unicode="&#xe93e;" glyph-name="grouporientedroom" d="M303.543 345.6c0 0 0 3.657 0 3.657v10.971c0 7.314 0 10.971 3.657 18.286 0 0 29.257 40.229 43.886 87.771-14.629 32.914-29.257 73.143-29.257 113.371 0 10.971 0 18.286 0 29.257-21.943 21.943-47.543 32.914-80.457 32.914-62.171 0-113.371-51.2-113.371-131.657 0-62.171 51.2-131.657 51.2-131.657 3.657-3.657 3.657-10.971 3.657-18.286v-10.971c0-14.629-7.314-29.257-21.943-36.571l-84.114-32.914c-18.286-7.314-32.914-25.6-36.571-47.543v-18.286c0-10.971 3.657-18.286 7.314-25.6 7.314-7.314 14.629-10.971 25.6-10.971h135.314l7.314 69.486v3.657c7.314 36.571 32.914 69.486 65.829 84.114l21.943 10.971zM950.857 232.229c-3.657 21.943-18.286 36.571-36.571 47.543l-84.114 32.914c-14.629 7.314-21.943 18.286-21.943 36.571v10.971c0 7.314 0 10.971 3.657 18.286 0 0 51.2 69.486 51.2 131.657 0 80.457-51.2 131.657-113.371 131.657-29.257 0-58.514-10.971-76.8-32.914 0-7.314 0-18.286 0-29.257 0-40.229-14.629-80.457-29.257-113.371 14.629-47.543 43.886-87.771 43.886-87.771 3.657-3.657 3.657-10.971 3.657-18.286v-10.971c0 0 0-3.657 0-3.657l21.943-7.314c36.571-14.629 62.171-47.543 65.829-84.114v-3.657l7.314-69.486h135.314c10.971 0 18.286 3.657 25.6 10.971s10.971 14.629 7.314 25.6l-3.657 14.629zM694.857 301.714l-98.743 40.229c-18.286 7.314-25.6 25.6-25.6 43.886v14.629c0 7.314 0 14.629 3.657 21.943 0 0 62.171 84.114 62.171 160.914 0 95.086-62.171 157.257-138.971 157.257s-138.971-62.171-138.971-157.257c0-76.8 62.171-160.914 62.171-160.914 3.657-7.314 3.657-14.629 3.657-21.943v-14.629c0-18.286-10.971-36.571-25.6-43.886l-102.4-40.229c-21.943-10.971-40.229-32.914-43.886-58.514l-3.657-65.829h497.371l-3.657 65.829c-7.314 25.6-25.6 47.543-47.543 58.514z" />
<glyph unicode="&#xe93f;" glyph-name="gym" d="M230.4 254.171v-3.657h73.143v376.686h-73.143zM106.057 298.057v0 0h98.743v285.257h-98.743zM36.571 451.657v-18.286c0-21.943 18.286-40.229 40.229-40.229v102.4c-21.943-3.657-40.229-21.943-40.229-43.886zM720.457 254.171v-3.657h73.143v376.686h-73.143zM819.2 298.057v0 0h98.743v285.257h-98.743zM947.2 491.886c0 0 0 0 0 0v0c0 0 0 0 0 0l-3.657-102.4c21.943 0 40.229 18.286 40.229 40.229v18.286c3.657 25.6-14.629 43.886-36.571 43.886zM347.429 389.486v0 0h332.8v102.4h-332.8v-102.4zM486.4 462.629h149.943c3.657 0 10.971-3.657 10.971-10.971v-29.257c0-3.657-3.657-3.657-3.657-3.657l-157.257 36.571c-3.657 0-3.657 7.314 0 7.314z" />
<glyph unicode="&#xe940;" glyph-name="hairbrush" d="M742.4 268.8c-43.886 43.886-91.429 76.8-131.657 102.4-47.543 36.571-91.429 40.229-135.314 87.771-51.2 54.857-146.286 43.886-230.4 124.343-98.743 102.4-113.371 252.343-153.6 212.114s10.971-157.257 113.371-259.657c73.143-73.143 160.914-76.8 208.457-128l102.4-84.114c25.6-43.886 73.143-98.743 131.657-157.257 109.714-102.4 219.429-160.914 245.029-131.657 29.257 29.257-40.229 131.657-149.943 234.057v0zM438.857 510.171l54.857 54.857c7.314 7.314 7.314 21.943 0 29.257s-21.943 7.314-29.257 0l-54.857-54.857c-7.314-7.314-7.314-21.943 0-29.257s21.943-7.314 29.257 0v0zM362.057 539.429l54.857 54.857c7.314 7.314 7.314 21.943 0 29.257s-21.943 7.314-29.257 0l-54.857-54.857c-7.314-7.314-7.314-21.943 0-29.257s21.943-7.314 29.257 0v0zM299.886 590.629l54.857 54.857c7.314 7.314 7.314 21.943 0 29.257s-21.943 7.314-29.257 0l-54.857-54.857c-7.314-7.314-7.314-21.943 0-29.257s18.286-7.314 29.257 0v0zM296.229 736.914c-7.314 7.314-21.943 7.314-29.257 0l-54.857-54.857c-7.314-7.314-7.314-21.943 0-29.257s21.943-7.314 29.257 0l54.857 54.857c7.314 7.314 7.314 21.943 0 29.257v0zM175.543 722.286c7.314-7.314 21.943-7.314 29.257 0l54.857 54.857c7.314 7.314 7.314 21.943 0 29.257s-21.943 7.314-29.257 0l-54.857-54.857c-10.971-7.314-10.971-21.943 0-29.257v0zM157.257 795.429l58.514 54.857c7.314 7.314 7.314 21.943 0 29.257s-21.943 7.314-29.257 0l-58.514-54.857c-7.314-7.314-7.314-21.943 0-29.257 10.971-7.314 21.943-7.314 29.257 0v0zM442.514 619.886c7.314-7.314 21.943-7.314 29.257 0l21.943 21.943c7.314 7.314 7.314 21.943 0 29.257s-21.943 7.314-29.257 0l-21.943-21.943c-7.314-10.971-7.314-21.943 0-29.257v0zM391.314 663.771c7.314-7.314 21.943-7.314 29.257 0l36.571 36.571c7.314 7.314 7.314 21.943 0 29.257s-21.943 7.314-29.257 0l-36.571-36.571c-7.314-7.314-7.314-21.943 0-29.257v0zM336.457 718.629c7.314-7.314 21.943-7.314 29.257 0l40.229 40.229c7.314 7.314 7.314 21.943 0 29.257s-21.943 7.314-29.257 0l-40.229-40.229c-7.314-7.314-7.314-18.286 0-29.257v0zM296.229 784.457c7.314-7.314 21.943-7.314 29.257 0l21.943 21.943c7.314 7.314 7.314 21.943 0 29.257s-21.943 7.314-29.257 0l-21.943-21.943c-10.971-7.314-10.971-21.943 0-29.257v0zM270.629 832l14.629 14.629c7.314 7.314 7.314 21.943 0 29.257-7.314 10.971-18.286 10.971-29.257 0l-14.629-14.629c-7.314-7.314-7.314-21.943 0-29.257s21.943-7.314 29.257 0v0z" />
</font>
</defs>
</svg>
