<?xml version="1.0" encoding="UTF-8"?>
<svg width="325px" height="121px" viewBox="0 0 325 121" version="1.1" xmlns="http://www.w3.org/2000/svg" xmlns:xlink="http://www.w3.org/1999/xlink">
    <!-- Generator: Sketch 50.2 (55047) - http://www.bohemiancoding.com/sketch -->
    <title>Group</title>
    <desc>Created with Sketch.</desc>
    <defs>
        <polygon id="path-1" points="0.0003 0.093 190.708611 0.093 190.708611 8.124 0.0003 8.124"></polygon>
    </defs>
    <g id="Page-1" stroke="none" stroke-width="1" fill="none" fill-rule="evenodd">
        <g id="Artboard" transform="translate(-516.000000, -208.000000)">
            <g id="Group" transform="translate(516.000000, 208.000000)">
                <path d="M63.5996448,107.732176 C64.6662793,110.949074 65.3334252,113.361497 65.3334252,114.835031 C65.3334252,116.175154 63.4658161,116.97963 60.6644025,117.247454 L56.7943569,117.649691 C55.8605524,118.319753 55.9933823,120.464352 57.0610155,121 C60.9310611,120.86659 66.0015698,120.597762 72.4053717,120.597762 C78.4116824,120.597762 83.0817039,120.732176 88.5517012,121 C89.2188471,120.464352 89.4865044,118.319753 88.5517012,117.649691 L84.9493129,117.247454 C79.2116583,116.577392 77.4768792,114.567207 73.6078323,103.041744 L55.3262364,49.1649691 C53.3247987,43.2678241 51.1895322,37.1028549 49.4547531,31.2057099 C49.1880945,30.2678241 48.2542899,30 47.4533153,30 C45.9861935,31.7423611 43.7170984,34.154784 40.5151975,35.0926698 C40.9146861,37.2372685 40.1147102,39.7831019 38.2461024,44.6079475 L24.6355267,80.7942901 C19.0317007,95.8044753 15.2954838,104.515278 12.8935587,110.680247 C11.0249509,115.505093 8.08970863,116.97963 4.88680898,117.247454 L0.483446164,117.649691 C-0.317528428,118.319753 -0.0498710826,120.464352 0.750104788,121 C4.35349173,120.86659 9.15734184,120.597762 13.5607047,120.597762 C19.8316766,120.732176 23.9683807,120.732176 27.437939,121 C28.6394009,120.464352 28.6394009,118.319753 27.7045976,117.649691 L23.3012348,117.247454 C20.0993339,116.97963 19.4311893,116.175154 19.4311893,114.567207 C19.4311893,113.09267 20.3659925,109.474537 22.3674303,103.443981 L27.0374517,89.3716821 C27.9712563,86.5570216 28.7722309,86.154784 32.1079605,86.154784 L52.2571654,86.154784 C56.260041,86.154784 56.7943569,86.5570216 57.7281615,89.5050926 L63.5996448,107.732176 Z M39.7142229,54.2576389 C41.1823434,50.2372685 42.5166353,47.0203704 42.9171226,46.3503086 L43.1837812,46.3503086 C43.9847558,47.9582562 45.1852189,51.577392 46.2528522,54.7942901 L53.4586273,76.6395062 C54.6590905,80.2576389 54.3914331,80.7942901 50.5223863,80.7942901 L34.1093982,80.7942901 C30.3731813,80.7942901 30.2403514,80.6598765 31.3079846,77.577392 L39.7142229,54.2576389 Z M179.688028,105.587577 C179.688028,115.237269 179.555198,116.577392 174.618518,117.247454 L171.815107,117.649691 C170.882302,118.319753 171.14896,120.597762 172.082765,121 C175.817983,120.732176 179.821857,120.597762 184.625707,120.597762 C189.295729,120.597762 193.164775,120.732176 197.169648,121 C198.103453,120.597762 198.369113,118.319753 197.436307,117.649691 L194.633895,117.247454 C189.830045,116.577392 189.563386,115.237269 189.563386,105.587577 L189.563386,81.4643519 C189.563386,75.9694444 189.830045,69.5366512 190.096703,64.845216 C189.962875,64.3095679 189.429557,64.0417438 188.762411,64.0417438 C185.69334,66.051929 178.088077,69.5366512 175.018007,70.6079475 C174.350861,71.0101852 174.350861,72.4847222 174.885177,73.0203704 L176.08564,73.8248457 C179.688028,76.2372685 179.688028,76.9073302 179.688028,82.1344136 L179.688028,105.587577 Z M184.091391,36.9694444 C180.089514,36.9694444 176.886615,39.7831019 176.886615,44.2057099 C176.886615,47.8248457 179.555198,50.9073302 183.691903,50.9073302 C187.427121,50.9073302 190.763849,48.7627315 190.763849,43.9378858 C190.763849,40.1853395 188.095265,36.9694444 184.091391,36.9694444 Z M294.04363,105.587577 C294.04363,115.237269 293.908803,116.443981 288.973122,117.247454 L286.437368,117.649691 C285.502565,118.319753 285.770222,120.597762 286.705025,121 C290.173585,120.732176 294.177459,120.597762 298.981309,120.597762 C303.650332,120.597762 307.520377,120.732176 313.792348,121 C314.726153,120.597762 314.99381,118.319753 314.059007,117.649691 L309.255157,117.247454 C304.184648,116.845216 303.917989,115.237269 303.917989,105.587577 L303.917989,87.3604938 C303.917989,82.8044753 304.317478,78.9175154 305.65177,77.0417438 C306.720402,75.5672068 308.321352,74.3604938 310.456618,74.3604938 C312.324228,74.3604938 314.326664,75.1649691 316.328102,76.5050926 C317.260908,77.0417438 317.929052,77.4429784 319.263344,77.4429784 C321.39861,77.4429784 325,75.7016204 325,71.2780093 C325,68.0621142 322.331416,65.9175154 318.996685,65.9175154 C314.059007,65.9175154 308.988498,70.0722994 304.317478,73.9592593 C304.051818,73.8248457 303.917989,73.422608 303.917989,72.7525463 L303.917989,64.9796296 C303.917989,64.4429784 303.517502,64.1751543 302.850356,64.0417438 C299.514626,66.051929 292.44268,69.5366512 289.37261,70.6079475 C288.706463,71.0101852 288.706463,72.4847222 289.23978,73.0203704 L290.441242,73.8248457 C294.04363,76.2372685 294.04363,76.9073302 294.04363,82.1344136 L294.04363,105.587577 Z" id="Fill-1" fill="#FFFFFF"></path>
                <g id="Group-5">
                    <mask id="mask-2" fill="white">
                        <use xlink:href="#path-1"></use>
                    </mask>
                    <g id="Clip-4"></g>
                    <path d="M4.1183,1.208 C4.1183,0.831 4.1073,0.82 4.4493,0.82 L5.2603,0.82 C5.8883,0.82 6.3223,0.911 6.5843,1.105 C6.7563,1.232 6.8353,1.653 6.8703,1.939 C6.9273,2.007 7.1203,2.007 7.1653,1.916 C7.1313,1.573 7.2113,0.65 7.3363,0.182 C7.3133,0.137 7.1883,0.125 7.1313,0.148 C6.9613,0.445 6.8583,0.468 6.2423,0.468 L1.6203,0.468 C1.0953,0.468 0.7193,0.479 0.6503,0.114 C0.6163,0.08 0.4683,0.091 0.4333,0.114 C0.3533,0.57 0.1823,1.299 0.0003,1.813 C0.0453,1.904 0.2053,1.961 0.2963,1.894 C0.4223,1.607 0.5363,1.356 0.8103,1.105 C1.0953,0.843 1.7233,0.82 2.2143,0.82 L2.8413,0.82 C3.1843,0.82 3.1843,0.831 3.1843,1.186 L3.1843,6.286 C3.1843,7.484 3.1273,7.656 2.4763,7.713 L2.0653,7.747 C1.9743,7.804 1.9973,8 2.0653,8.034 C2.7963,8.011 3.1953,7.998 3.6513,7.998 C4.1073,7.998 4.4953,8.011 5.1463,8.034 C5.2143,8 5.2373,7.793 5.1683,7.747 L4.8033,7.713 C4.1413,7.656 4.1183,7.484 4.1183,6.286 L4.1183,1.208 Z M25.2543,4.312 C25.8023,4.312 25.8253,4.335 25.8253,4.677 L25.8253,6.286 C25.8253,7.484 25.8253,7.599 25.1293,7.713 L24.9123,7.747 C24.8433,7.816 24.8663,8 24.9353,8.034 C25.4373,8.011 25.8483,7.998 26.3153,7.998 C26.7593,7.998 27.1473,8.011 27.6953,8.034 C27.7643,8 27.7873,7.793 27.7183,7.747 L27.4443,7.713 C26.7823,7.633 26.7593,7.484 26.7593,6.286 L26.7593,2.179 C26.7593,0.98 26.7823,0.809 27.4443,0.74 L27.6843,0.717 C27.7523,0.672 27.7293,0.468 27.6613,0.433 C27.1473,0.456 26.7593,0.466 26.3153,0.466 C25.8483,0.466 25.4603,0.456 24.9353,0.433 C24.8663,0.468 24.8433,0.672 24.9123,0.717 L25.1293,0.74 C25.8023,0.809 25.8253,0.98 25.8253,2.179 L25.8253,3.492 C25.8253,3.846 25.8023,3.857 25.2543,3.857 L21.9893,3.857 C21.4413,3.857 21.4193,3.846 21.4193,3.492 L21.4193,2.179 C21.4193,0.98 21.4413,0.809 22.1033,0.74 L22.3203,0.717 C22.3893,0.672 22.3663,0.468 22.2983,0.433 C21.8073,0.456 21.4193,0.466 20.9743,0.466 C20.4843,0.466 20.0963,0.445 19.5373,0.433 C19.4693,0.468 19.4463,0.672 19.5143,0.717 L19.8113,0.74 C20.4043,0.786 20.4843,0.98 20.4843,2.179 L20.4843,6.286 C20.4843,7.484 20.4613,7.599 19.8223,7.713 L19.6283,7.747 C19.5603,7.816 19.5833,8 19.6513,8.034 C20.0963,8.023 20.4843,7.998 20.9743,7.998 C21.4193,7.998 21.8073,8.011 22.4233,8.034 C22.4923,8 22.5143,7.793 22.4463,7.747 L22.1153,7.713 C21.4763,7.645 21.4193,7.484 21.4193,6.286 L21.4193,4.677 C21.4193,4.335 21.4413,4.312 21.9893,4.312 L25.2543,4.312 Z M41.2543,6.287 C41.2543,7.484 41.1973,7.656 40.5473,7.713 L40.1703,7.747 C40.1023,7.816 40.1243,7.998 40.1933,8.033 C40.8663,8.01 41.2543,7.998 41.7443,7.998 L42.7713,7.998 C43.7863,7.998 44.8023,8.01 45.8293,8.033 C45.9773,7.726 46.2633,6.847 46.3433,6.447 C46.2973,6.344 46.1373,6.311 46.0573,6.367 C45.7613,6.961 45.4523,7.361 45.2473,7.475 C44.9963,7.6 44.6653,7.646 43.7863,7.646 C42.7823,7.646 42.5423,7.52 42.4053,7.383 C42.2233,7.189 42.1893,6.801 42.1893,6.196 L42.1893,4.586 C42.1893,4.289 42.2233,4.278 42.5653,4.278 L43.2273,4.278 C43.6723,4.278 43.9463,4.289 44.1063,4.335 C44.3343,4.392 44.4143,4.563 44.4603,4.77 L44.5623,5.214 C44.6193,5.283 44.8133,5.283 44.8593,5.203 C44.8593,4.952 44.8153,4.519 44.8153,4.107 C44.8153,3.674 44.8593,3.229 44.8593,2.955 C44.8133,2.875 44.6193,2.875 44.5623,2.944 L44.4713,3.412 C44.4143,3.697 44.3343,3.766 44.1973,3.812 C44.0603,3.857 43.7063,3.88 43.2273,3.88 L42.5653,3.88 C42.2233,3.88 42.1893,3.88 42.1893,3.561 L42.1893,1.277 C42.1893,0.843 42.1893,0.82 42.5313,0.82 L43.3533,0.82 C43.8553,0.82 44.2203,0.831 44.4603,0.889 C45.0533,1.037 45.1563,1.437 45.3273,1.973 C45.3843,2.042 45.5673,2.02 45.6123,1.95 C45.5673,1.449 45.4983,0.627 45.4303,0.433 C45.2933,0.468 44.6193,0.468 43.8893,0.468 L41.7443,0.468 C41.2773,0.468 40.8893,0.456 40.3983,0.433 C40.3303,0.468 40.3073,0.673 40.3753,0.719 L40.5583,0.742 C41.2313,0.822 41.2543,0.993 41.2543,2.18 L41.2543,6.287 Z M74.6903,1.197 C74.6903,0.831 74.7023,0.786 75.3073,0.786 C76.4943,0.786 77.1453,1.505 77.1453,2.612 C77.1453,3.606 76.7013,4.302 75.4673,4.53 C75.3983,4.553 75.3983,4.723 75.4783,4.757 C75.9473,4.757 76.5513,4.655 77.0543,4.416 C77.5443,4.177 78.1943,3.651 78.1943,2.601 C78.1943,1.813 77.8063,1.22 77.2833,0.889 C76.7463,0.559 76.0383,0.433 75.0903,0.433 C74.1433,0.433 73.4363,0.445 72.8313,0.524 C72.7413,0.57 72.7293,0.74 72.8093,0.809 L73.2193,0.854 C73.7333,0.911 73.7563,1.106 73.7563,2.076 L73.7563,6.286 C73.7563,7.484 73.7333,7.621 73.0723,7.713 L72.8313,7.747 C72.7633,7.816 72.7863,8 72.8543,8.034 C73.3563,8.011 73.7673,7.998 74.2463,7.998 C74.7023,7.998 75.0783,8.011 75.7293,8.034 C75.7983,8 75.8223,7.804 75.7523,7.747 L75.4443,7.713 C74.7133,7.633 74.6903,7.484 74.6903,6.286 L74.6903,1.197 Z M91.5933,6.286 C91.5933,7.484 91.5713,7.633 90.9093,7.713 L90.6233,7.747 C90.5543,7.827 90.5773,8 90.6463,8.034 C91.1823,8.011 91.5933,7.998 92.0723,7.998 C92.5283,7.998 92.9153,8.011 93.4293,8.034 C93.4983,8 93.5213,7.804 93.4523,7.747 L93.2123,7.713 C92.5503,7.621 92.5283,7.484 92.5283,6.286 L92.5283,4.849 C92.5283,4.609 92.5503,4.597 93.0643,4.597 C93.5213,4.597 93.7033,4.712 93.8753,4.963 C94.2283,5.476 94.6983,6.263 94.9943,6.687 C95.8033,7.84 96.3843,8.124 97.3543,8.124 C97.5723,8.124 97.7543,8.101 97.8573,8.067 C97.9143,8.022 97.9033,7.931 97.8453,7.908 C97.5373,7.886 97.2523,7.76 97.0583,7.589 C96.2833,6.938 95.6773,6.025 94.7653,4.552 C94.7083,4.461 94.6513,4.347 94.7083,4.279 C95.2803,4.051 96.1333,3.457 96.1333,2.373 C96.1333,1.574 95.7353,1.061 95.1873,0.774 C94.6623,0.49 93.9903,0.433 93.2823,0.433 C92.1633,0.433 91.3763,0.468 90.7383,0.524 C90.6463,0.57 90.6463,0.752 90.7253,0.809 L91.0913,0.854 C91.5593,0.911 91.5933,1.106 91.5933,2.19 L91.5933,6.286 Z M92.5283,1.151 C92.5283,0.831 92.5613,0.786 93.2693,0.786 C94.5373,0.786 95.0963,1.642 95.0963,2.544 C95.0963,3.32 94.8343,3.72 94.5253,3.96 C94.1943,4.211 93.7603,4.257 93.3493,4.257 C92.7673,4.257 92.5963,4.234 92.5613,4.199 C92.5283,4.154 92.5283,4.028 92.5283,3.823 L92.5283,1.151 Z M110.5253,6.287 C110.5253,7.484 110.4683,7.656 109.8183,7.713 L109.4413,7.747 C109.3733,7.816 109.3953,7.998 109.4643,8.033 C110.1373,8.01 110.5253,7.998 111.0153,7.998 L112.0423,7.998 C113.0573,7.998 114.0743,8.01 115.1003,8.033 C115.2483,7.726 115.5353,6.847 115.6153,6.447 C115.5683,6.344 115.4093,6.311 115.3283,6.367 C115.0333,6.961 114.7233,7.361 114.5183,7.475 C114.2673,7.6 113.9363,7.646 113.0573,7.646 C112.0533,7.646 111.8133,7.52 111.6763,7.383 C111.4943,7.189 111.4603,6.801 111.4603,6.196 L111.4603,4.586 C111.4603,4.289 111.4943,4.278 111.8363,4.278 L112.4983,4.278 C112.9433,4.278 113.2173,4.289 113.3773,4.335 C113.6053,4.392 113.6853,4.563 113.7313,4.77 L113.8333,5.214 C113.8903,5.283 114.0843,5.283 114.1303,5.203 C114.1303,4.952 114.0863,4.519 114.0863,4.107 C114.0863,3.674 114.1303,3.229 114.1303,2.955 C114.0843,2.875 113.8903,2.875 113.8333,2.944 L113.7433,3.412 C113.6853,3.697 113.6053,3.766 113.4683,3.812 C113.3313,3.857 112.9773,3.88 112.4983,3.88 L111.8363,3.88 C111.4943,3.88 111.4603,3.88 111.4603,3.561 L111.4603,1.277 C111.4603,0.843 111.4603,0.82 111.8023,0.82 L112.6243,0.82 C113.1263,0.82 113.4923,0.831 113.7313,0.889 C114.3253,1.037 114.4273,1.437 114.5983,1.973 C114.6563,2.042 114.8383,2.02 114.8833,1.95 C114.8383,1.449 114.7693,0.627 114.7013,0.433 C114.5643,0.468 113.8903,0.468 113.1603,0.468 L111.0153,0.468 C110.5483,0.468 110.1603,0.456 109.6693,0.433 C109.6013,0.468 109.5783,0.673 109.6473,0.719 L109.8293,0.742 C110.5023,0.822 110.5253,0.993 110.5253,2.18 L110.5253,6.287 Z M130.4383,2.315 C130.0843,1.585 129.7993,0.877 129.8453,0.433 C129.4683,0.468 129.1603,0.466 128.8993,0.466 C128.6143,0.466 128.3393,0.456 127.9973,0.433 C127.9073,0.479 127.8943,0.649 127.9513,0.717 L128.1343,0.74 C128.8303,0.831 128.9213,1.003 128.8993,1.722 C128.8763,2.349 128.8303,3.319 128.7733,4.266 C128.7043,5.396 128.6473,6.024 128.5783,6.777 C128.5103,7.576 128.3503,7.645 127.8713,7.713 L127.6203,7.747 C127.5523,7.804 127.5763,7.978 127.6433,8.034 C128.0323,8.011 128.4413,7.998 128.8063,7.998 C129.2413,7.998 129.6853,8.011 130.0743,8.034 C130.1543,8 130.1643,7.816 130.0843,7.747 L129.6513,7.713 C129.2053,7.678 129.1373,7.496 129.1373,6.651 C129.1373,5.681 129.1833,4.666 129.2173,3.97 C129.2513,3.308 129.2853,2.646 129.3313,1.938 L129.3543,1.938 C129.6053,2.463 129.8453,3.057 130.0843,3.582 L131.1133,5.784 C131.3743,6.344 131.9223,7.462 132.1173,8.067 C132.1393,8.101 132.1973,8.114 132.2193,8.114 C132.2643,8.114 132.3103,8.101 132.3333,8.067 C132.5383,7.542 133.0523,6.469 133.5663,5.465 L134.5823,3.468 C134.8103,3.023 135.2443,2.11 135.3253,1.984 L135.3463,1.984 L135.3813,6.743 C135.3813,7.473 135.3813,7.656 134.8223,7.713 L134.4913,7.747 C134.4223,7.816 134.4333,7.978 134.5133,8.034 C134.9813,8.011 135.4953,7.998 135.8943,7.998 C136.3043,7.998 136.7723,8.011 137.2413,8.034 C137.3193,7.988 137.3313,7.816 137.2623,7.747 L136.8973,7.713 C136.3623,7.667 136.3723,7.359 136.3383,6.788 C136.2473,5.146 136.2353,3.034 136.2133,1.824 C136.2013,1.025 136.2923,0.809 137.0113,0.74 L137.2513,0.717 C137.3083,0.672 137.3083,0.479 137.2413,0.433 C136.8863,0.456 136.5093,0.466 136.2243,0.466 C135.9963,0.466 135.7573,0.468 135.3693,0.433 C135.3463,0.957 135.0153,1.585 134.5023,2.623 L133.4293,4.803 C133.1433,5.385 132.8583,5.979 132.5503,6.514 L132.5283,6.514 C132.2533,6.012 132.0023,5.487 131.7403,4.951 L130.4383,2.315 Z M150.7423,6.263 C150.7423,7.473 150.7183,7.633 150.0453,7.713 L149.7603,7.747 C149.6913,7.816 149.7143,8 149.7843,8.034 C150.3533,8.011 150.7423,7.998 151.2203,7.998 C151.6763,7.998 152.0643,8.011 152.6343,8.034 C152.7033,8 152.7263,7.793 152.6583,7.747 L152.3723,7.713 C151.6993,7.633 151.6763,7.473 151.6763,6.263 L151.6763,2.201 C151.6763,0.991 151.6993,0.797 152.3723,0.74 L152.6583,0.717 C152.7263,0.672 152.7033,0.468 152.6343,0.433 C152.0643,0.456 151.6763,0.466 151.2203,0.466 C150.7423,0.466 150.3533,0.456 149.7843,0.433 C149.7143,0.468 149.6913,0.672 149.7603,0.717 L150.0453,0.74 C150.7183,0.797 150.7423,0.991 150.7423,2.201 L150.7423,6.263 Z M166.1703,6.287 C166.1703,7.484 166.1143,7.656 165.4633,7.713 L165.0863,7.747 C165.0183,7.816 165.0403,7.998 165.1093,8.033 C165.7833,8.01 166.1703,7.998 166.6603,7.998 L167.6873,7.998 C168.7023,7.998 169.7183,8.01 170.7453,8.033 C170.8933,7.726 171.1793,6.847 171.2593,6.447 C171.2133,6.344 171.0533,6.311 170.9733,6.367 C170.6773,6.961 170.3693,7.361 170.1633,7.475 C169.9123,7.6 169.5813,7.646 168.7023,7.646 C167.6993,7.646 167.4583,7.52 167.3223,7.383 C167.1393,7.189 167.1053,6.801 167.1053,6.196 L167.1053,4.586 C167.1053,4.289 167.1393,4.278 167.4813,4.278 L168.1433,4.278 C168.5883,4.278 168.8633,4.289 169.0223,4.335 C169.2503,4.392 169.3303,4.563 169.3763,4.77 L169.4783,5.214 C169.5353,5.283 169.7293,5.283 169.7753,5.203 C169.7753,4.952 169.7313,4.519 169.7313,4.107 C169.7313,3.674 169.7753,3.229 169.7753,2.955 C169.7293,2.875 169.5353,2.875 169.4783,2.944 L169.3873,3.412 C169.3303,3.697 169.2503,3.766 169.1143,3.812 C168.9763,3.857 168.6223,3.88 168.1433,3.88 L167.4813,3.88 C167.1393,3.88 167.1053,3.88 167.1053,3.561 L167.1053,1.277 C167.1053,0.843 167.1053,0.82 167.4483,0.82 L168.2693,0.82 C168.7713,0.82 169.1363,0.831 169.3763,0.889 C169.9693,1.037 170.0733,1.437 170.2433,1.973 C170.3003,2.042 170.4833,2.02 170.5293,1.95 C170.4833,1.449 170.4143,0.627 170.3463,0.433 C170.2093,0.468 169.5353,0.468 168.8053,0.468 L166.6603,0.468 C166.1933,0.468 165.8053,0.456 165.3143,0.433 C165.2463,0.468 165.2233,0.673 165.2923,0.719 L165.4743,0.742 C166.1473,0.822 166.1703,0.993 166.1703,2.18 L166.1703,6.287 Z M184.4083,6.286 C184.4083,7.484 184.3843,7.633 183.7223,7.713 L183.4373,7.747 C183.3683,7.827 183.3913,8 183.4603,8.034 C183.9963,8.011 184.4083,7.998 184.8853,7.998 C185.3413,7.998 185.7293,8.011 186.2433,8.034 C186.3123,8 186.3343,7.804 186.2663,7.747 L186.0263,7.713 C185.3653,7.621 185.3413,7.484 185.3413,6.286 L185.3413,4.849 C185.3413,4.609 185.3653,4.597 185.8783,4.597 C186.3343,4.597 186.5173,4.712 186.6883,4.963 C187.0423,5.476 187.5113,6.263 187.8073,6.687 C188.6183,7.84 189.1993,8.124 190.1683,8.124 C190.3853,8.124 190.5683,8.101 190.6713,8.067 C190.7283,8.022 190.7163,7.931 190.6603,7.908 C190.3513,7.886 190.0663,7.76 189.8723,7.589 C189.0963,6.938 188.4923,6.025 187.5793,4.552 C187.5223,4.461 187.4653,4.347 187.5223,4.279 C188.0933,4.051 188.9483,3.457 188.9483,2.373 C188.9483,1.574 188.5483,1.061 188.0013,0.774 C187.4763,0.49 186.8033,0.433 186.0953,0.433 C184.9763,0.433 184.1903,0.468 183.5513,0.524 C183.4603,0.57 183.4603,0.752 183.5393,0.809 L183.9063,0.854 C184.3733,0.911 184.4083,1.106 184.4083,2.19 L184.4083,6.286 Z M185.3413,1.151 C185.3413,0.831 185.3753,0.786 186.0833,0.786 C187.3513,0.786 187.9103,1.642 187.9103,2.544 C187.9103,3.32 187.6483,3.72 187.3393,3.96 C187.0083,4.211 186.5753,4.257 186.1633,4.257 C185.5813,4.257 185.4103,4.234 185.3753,4.199 C185.3413,4.154 185.3413,4.028 185.3413,3.823 L185.3413,1.151 Z" id="Fill-3" fill="#FFFFFF" mask="url(#mask-2)"></path>
                </g>
            </g>
        </g>
    </g>
</svg>