<?xml version="1.0" encoding="utf-8"?>
<!-- Generator: Adobe Illustrator 22.0.1, SVG Export Plug-In . SVG Version: 6.00 Build 0)  -->
<svg version="1.1" id="レイヤー_1" xmlns="http://www.w3.org/2000/svg" xmlns:xlink="http://www.w3.org/1999/xlink" x="0px"
	 y="0px" width="189.7px" height="45.4px" viewBox="0 0 189.7 45.4" style="enable-background:new 0 0 189.7 45.4;"
	 xml:space="preserve">
<style type="text/css">
	.st0{fill:#FFFFFF;}
	.st1{fill:#999999;}
</style>
<path class="st0" d="M186.9,27.5H62.1v-1h124.8V27.5z M78.3,22.7v-1h-1l-0.8-0.3L71.4,7.2h-2.1v0.6l-5.1,13.7l-0.8,0.3h-1v1h5.2v-1
	H66l-0.4-0.4l1.4-4h5.6l1.3,4l-0.4,0.4H72v1H78.3z M72.2,16.2h-4.8l2.5-6.8L72.2,16.2z M92.7,22.8V22h-0.6c-0.7,0-1.1-0.4-1.6-1.2
	l-2.8-4.1c1.2-0.6,2.6-1.9,2.6-3.7c0-2.4-2.4-3.2-5.2-3.2h-4.2v0.8h1.4l0.2,0.2v10.8L81.6,22h-0.8v0.8h5.1V22h-1.3l-0.2-0.2v-4.6
	h1.4l2.7,4c0.8,1.2,1.8,1.6,3.1,1.6H92.7z M88.4,13.4c0,1.3-0.7,2.2-1.4,2.9h-2.6v-5.7C87,10.7,88.4,11.7,88.4,13.4z M105.2,12.7
	V9.5l-1.1,0.4h-8.7l-1.1-0.4v3.2h0.9v-1.5l1.6-0.4h1.9v11L98,22h-0.9v0.8h5.4V22H101l-0.2-0.2v-11h1.9l1.6,0.4v1.5H105.2z
	 M130.5,22.7v-1h-1.7l-0.3-0.3v-13l1-0.3h1v-1h-6.1v1h1.6l0.3,0.3v5.7h-7.4V8.5l1-0.3h0.8v-1h-6.1v1h1.7l0.3,0.3v13l-1,0.3h-1v1h6.1
	v-1h-1.6l-0.3-0.3v-6.2h7.4v6.2l-1,0.3h-0.8v1H130.5z M146.5,16.1c0-4.6-3.8-6.7-7.1-6.7c-2.9,0-6.8,3.3-6.8,7.2
	c0,4.6,3.8,6.7,7.1,6.7C142.6,23.3,146.5,20,146.5,16.1z M144.5,16.3c0,2.6-1.4,4.8-3.7,5.9c-3.5,0-6.2-2-6.2-5.9
	c0-2.6,1.4-4.8,3.7-5.9C141.8,10.4,144.5,12.4,144.5,16.3z M159.3,12.7V9.5l-1.1,0.4h-8.7l-1.1-0.4v3.2h0.9v-1.5l1.6-0.4h1.9v11
	l-0.8,0.2h-0.9v0.8h5.4V22h-1.5l-0.2-0.2v-11h1.9l1.6,0.4v1.5H159.3z M172.9,20l-0.5-0.4L170,22c-1.4,0-2.7-0.1-3.8-0.7v-4.7h3.3
	l0.8,0.2v1.1h0.9v-3.4h-0.9v0.9l-0.8,0.2h-3.3v-4.9h2.6l2.1,0.6v1.2h0.9V9.8h-9.2v0.8h1.4l0.2,0.2v10.8l-0.8,0.2h-0.8v0.8h8.7
	C172.1,22.1,172.6,20.9,172.9,20z M187,20l-0.5-0.4l-2.4,2.4c-1.3,0-2.4-0.2-3.3-0.7V10.9l0.8-0.2h0.9V9.8h-5.3v0.8h1.4l0.2,0.2
	v10.8l-0.8,0.2h-0.8v0.8h8.2C186.2,22.1,186.8,20.9,187,20z M82.3,38.3c-0.4,0.4-0.7,1-0.7,1.6c0,0.6,0.2,1.2,0.7,1.6
	c0.4,0.4,1,0.6,1.7,0.6c0.7,0,1.3-0.2,1.7-0.6c0.5-0.4,0.7-1,0.7-1.6s-0.2-1.2-0.7-1.6c-0.5-0.4-1-0.6-1.7-0.6
	C83.3,37.6,82.7,37.8,82.3,38.3z M85.2,38.7c0.3,0.3,0.5,0.7,0.5,1.2c0,0.5-0.2,0.9-0.5,1.2c-0.3,0.3-0.7,0.5-1.2,0.5
	c-0.5,0-0.9-0.2-1.2-0.5c-0.3-0.3-0.5-0.7-0.5-1.2c0-0.5,0.2-0.9,0.5-1.2c0.3-0.3,0.7-0.5,1.2-0.5C84.4,38.2,84.8,38.4,85.2,38.7z
	 M91.2,41c0,0.2-0.1,0.3-0.2,0.4c-0.1,0.1-0.3,0.2-0.5,0.2c-0.4,0-0.8-0.2-1.2-0.6v0.8c0.4,0.3,0.7,0.4,1.2,0.4
	c0.4,0,0.7-0.1,0.9-0.3c0.2-0.2,0.4-0.5,0.4-0.9c0-0.5-0.3-0.9-0.8-1.2l-0.5-0.3c-0.2-0.1-0.4-0.2-0.5-0.4c-0.1-0.1-0.1-0.2-0.1-0.4
	c0-0.1,0.1-0.3,0.2-0.4c0.1-0.1,0.3-0.1,0.5-0.1c0.4,0,0.7,0.2,1,0.5v-0.7c-0.3-0.2-0.6-0.3-1-0.3c-0.4,0-0.7,0.1-0.9,0.3
	c-0.2,0.2-0.4,0.5-0.4,0.8c0,0.2,0.1,0.4,0.2,0.6c0.1,0.2,0.3,0.4,0.6,0.5l0.5,0.3C91,40.5,91.2,40.7,91.2,41z M94.2,42.1h0.6
	l0.5-1.3h1.9l0.6,1.3h0.6l-2-4.4H96L94.2,42.1z M95.6,40.2l0.7-1.6l0.7,1.6H95.6z M101.5,39.7v-2h-0.6v4.4h0.6v-2.2l2.2,2.2h0.9
	l-2.4-2.3l1.9-2.1h-0.8L101.5,39.7z M106.5,42.1h0.6l0.5-1.3h1.9l0.6,1.3h0.6l-2-4.4h-0.4L106.5,42.1z M108,40.2l0.7-1.6l0.7,1.6
	H108z M119.4,41.9c0.2-0.1,0.4-0.3,0.5-0.4c0.1-0.2,0.2-0.4,0.2-0.6c0-0.3-0.1-0.5-0.3-0.7c-0.2-0.2-0.4-0.3-0.8-0.4
	c0.4-0.2,0.7-0.5,0.7-0.9c0-0.2-0.1-0.4-0.2-0.6c-0.1-0.2-0.3-0.3-0.5-0.4c-0.2-0.1-0.5-0.1-0.8-0.1h-1.1v4.4h1.5
	C118.9,42.1,119.2,42,119.4,41.9z M119,38.9c0,0.2-0.1,0.4-0.2,0.5c-0.1,0.1-0.4,0.2-0.7,0.2h-0.4v-1.3h0.5
	C118.8,38.2,119,38.5,119,38.9z M119,40.2c0.1,0.1,0.3,0.1,0.3,0.2c0.1,0.1,0.1,0.2,0.1,0.4c0,0.1,0,0.3-0.1,0.4
	c-0.1,0.1-0.2,0.2-0.3,0.2c-0.1,0.1-0.4,0.1-0.7,0.1h-0.6v-1.4h0.6C118.6,40.1,118.8,40.1,119,40.2z M122.2,42.1h0.6l0.5-1.3h1.9
	l0.6,1.3h0.6l-2-4.4h-0.4L122.2,42.1z M123.7,40.2l0.7-1.6l0.7,1.6H123.7z M130,39.2l-1.2-1.5h-0.8l1.6,2.1v2.3h0.6v-2.3l1.6-2.1
	h-0.8L130,39.2z M137.7,38.2h1.5v3.8h0.6v-3.8h1.5v-0.6h-3.7V38.2z M144,38.3c-0.4,0.4-0.7,1-0.7,1.6c0,0.6,0.2,1.2,0.7,1.6
	c0.4,0.4,1,0.6,1.7,0.6c0.7,0,1.3-0.2,1.7-0.6c0.5-0.4,0.7-1,0.7-1.6s-0.2-1.2-0.7-1.6c-0.5-0.4-1-0.6-1.7-0.6
	C145,37.6,144.4,37.8,144,38.3z M146.9,38.7c0.3,0.3,0.5,0.7,0.5,1.2c0,0.5-0.2,0.9-0.5,1.2c-0.3,0.3-0.7,0.5-1.2,0.5
	c-0.5,0-0.9-0.2-1.2-0.5c-0.3-0.3-0.5-0.7-0.5-1.2c0-0.5,0.2-0.9,0.5-1.2c0.3-0.3,0.7-0.5,1.2-0.5C146.2,38.2,146.6,38.4,146.9,38.7
	z M154.7,40.7l-1.2-3h-0.6l-1.2,3l-1.2-3h-0.6l1.8,4.4h0.1l1.4-3.6l1.4,3.6h0.1l1.8-4.4h-0.6L154.7,40.7z M158.8,42.1h2.5v-0.6h-1.9
	v-1.4h1.8v-0.6h-1.8v-1.3h1.9v-0.6h-2.5V42.1z M164.6,42.1v-1.9h0.2c0.2,0,0.4,0,0.4,0.1c0.1,0,0.2,0.1,0.3,0.2
	c0.1,0.1,0.2,0.2,0.4,0.4l0.2,0.3l0.2,0.3l0.1,0.2c0,0,0,0,0,0.1l0.2,0.3h0.7l-0.2-0.3c-0.1-0.1-0.2-0.3-0.4-0.6
	c-0.2-0.4-0.4-0.7-0.6-0.8c-0.1-0.2-0.3-0.3-0.4-0.4c0.2-0.1,0.4-0.2,0.5-0.4c0.1-0.2,0.2-0.4,0.2-0.7c0-0.4-0.1-0.7-0.4-0.9
	c-0.3-0.2-0.6-0.3-1.1-0.3H164v4.4H164.6z M165.5,38.3c0.1,0,0.2,0.1,0.3,0.2c0.1,0.1,0.1,0.2,0.1,0.4c0,0.1,0,0.3-0.1,0.4
	c-0.1,0.1-0.2,0.2-0.3,0.2c-0.1,0.1-0.3,0.1-0.7,0.1h-0.2v-1.4h0.2C165.1,38.2,165.3,38.2,165.5,38.3z M44.7,42.7V40h-2.6l-2.3-0.8
	L26.2,1.1h-5.7v1.5L6.9,39.3L4.6,40H2v2.6h14V40h-4.2l-1.1-1.1l3.8-10.6h15L33,38.9L31.9,40h-4.2v2.6H44.7z M28.5,25.3H15.6
	l6.6-18.1L28.5,25.3z"/>
<g>
	<path class="st1" d="M51.3,29.1c-0.9,1-1.8,1.8-2.9,2.3c-1.1,0.6-2.2,0.9-3.2,0.9c-1,0-1.9-0.2-2.6-0.7c-0.7-0.5-1.3-1-1.7-1.6
		h-0.1c-0.4,1.4-1,2.8-2,4.4c-1,1.6-2.1,3-3.5,4.3c-1.4,1.3-2.8,2.4-4.5,3.3s-3.3,1.3-5,1.3c-1.6,0-2.7-0.5-3.5-1.4
		c-0.8-0.9-1.2-2.1-1.2-3.6c0-0.8,0.2-1.7,0.6-2.8c0.4-1,0.9-2.1,1.7-3.2c0.7-1.1,1.5-2.1,2.5-3.1c1-1,2-2,3.1-2.8
		c1.1-0.8,2.3-1.5,3.6-2c1.2-0.5,2.5-0.7,3.8-0.7c1.5,0,2.6,0.4,3.4,1.3c0.8,0.9,1.3,2,1.3,3.4c0.1,0.8,0.5,1.6,1.2,2.3
		c0.7,0.7,1.7,1.1,2.9,1.1c1.1,0,2.1-0.3,3.1-0.8c1-0.5,1.9-1.2,2.7-2.1L51.3,29.1z M24,39.6c0,0.9,0.2,1.7,0.5,2.2
		c0.4,0.5,0.9,0.8,1.6,0.8c1,0,1.9-0.3,2.9-0.8c1-0.5,1.9-1.2,2.8-2.1c0.9-0.8,1.7-1.8,2.5-2.9c0.8-1.1,1.4-2.2,2-3.4
		c0.6-1.2,1-2.3,1.3-3.4c0.3-1.1,0.5-2.1,0.5-3c0-0.8-0.2-1.4-0.6-1.9c-0.4-0.5-1-0.8-1.8-0.8c-0.8,0-1.6,0.2-2.4,0.7
		c-0.9,0.5-1.7,1.1-2.6,1.9c-0.9,0.8-1.7,1.7-2.5,2.8c-0.8,1-1.5,2.1-2.1,3.3c-0.6,1.1-1.1,2.2-1.5,3.4C24.2,37.6,24,38.6,24,39.6z"
		/>
</g>
</svg>
